<svg width="24" height="24" viewBox="0 0 24 24" fill="none" xmlns="http://www.w3.org/2000/svg">
<path d="M17.358 10.4677C17.3637 10.5862 17.3694 10.7047 17.3749 10.8231C17.3757 10.8388 17.3754 10.8545 17.3757 10.8702C17.3794 11.1065 17.3827 11.343 17.3869 11.5794C17.3895 11.7178 17.3966 11.8564 17.3964 11.9949C17.396 12.1432 17.3898 12.2917 17.3855 12.4401C17.3825 12.5474 17.3752 12.6547 17.3758 12.762C17.3768 12.934 17.3813 13.106 17.3872 13.278C17.3931 13.4511 17.4024 13.6241 17.4104 13.7971C17.4181 13.9645 17.4252 14.1321 17.4348 14.2994C17.4361 14.3221 17.4506 14.3441 17.4562 14.3588C17.4562 14.4161 17.454 14.4681 17.4567 14.5198C17.4644 14.666 17.4731 14.8122 17.4837 14.9581C17.4859 14.9887 17.4984 15.0185 17.5055 15.0489C17.5071 15.0551 17.5055 15.0621 17.5058 15.0687C17.5093 15.2111 17.5121 15.3536 17.5165 15.4961C17.5194 15.5935 17.5275 15.6907 17.5279 15.7881C17.5305 16.4716 17.5312 17.1552 17.5334 17.8388C17.5344 18.1328 17.5377 18.4268 17.5398 18.7208C17.5398 18.7247 17.5381 18.7303 17.54 18.7323C17.5914 18.7859 17.55 18.8456 17.5515 18.9024C17.5517 18.9083 17.5491 18.9165 17.552 18.9197C17.6007 18.9715 17.566 19.0288 17.5634 19.0837C17.5632 19.0876 17.5619 19.0925 17.5637 19.0954C17.6164 19.1817 17.5561 19.2729 17.5751 19.3605C17.5799 19.3828 17.5832 19.4052 17.5868 19.4277C17.5885 19.4381 17.5944 19.4515 17.59 19.4584C17.5287 19.5556 17.5192 19.6775 17.4277 19.7629C17.3655 19.8209 17.2941 19.8424 17.2201 19.8596C16.964 19.9189 16.7033 19.8755 16.4448 19.885C16.3321 19.8891 16.2188 19.8779 16.1058 19.8748C15.9419 19.8703 15.7779 19.8666 15.614 19.8629C15.3171 19.8561 15.0201 19.8451 14.7231 19.8443C14.5162 19.8437 14.3092 19.8561 14.1024 19.8649C13.9959 19.8695 13.889 19.8743 13.7833 19.8875C13.6508 19.9039 13.5178 19.9021 13.3851 19.9096C13.3198 19.9132 13.2548 19.9236 13.1898 19.9308C13.1801 19.9318 13.1704 19.9329 13.1606 19.9331C13.0461 19.937 12.9302 19.931 12.8174 19.9466C12.6075 19.9757 12.3965 19.9604 12.1866 19.9779C12.0574 19.9888 11.928 19.9978 11.7985 20.0035C11.5847 20.0128 11.371 20.0203 11.1571 20.0259C10.7238 20.0372 10.2905 20.0506 9.85719 20.0555C9.61825 20.0582 9.37919 20.0435 9.14014 20.0397C8.79566 20.0342 8.45108 20.0321 8.10649 20.0274C7.90131 20.0245 7.69602 20.0224 7.49096 20.0141C7.43226 20.0117 7.37473 19.9871 7.31602 19.9767C7.29273 19.9725 7.26379 19.9717 7.2439 19.9819C7.05802 20.0777 6.8839 19.9721 6.80849 19.8056C6.77932 19.7412 6.7899 19.6791 6.79626 19.6131C6.80684 19.5027 6.81073 19.3914 6.81143 19.2803C6.81273 19.0804 6.80767 18.8804 6.80896 18.6804C6.80967 18.5619 6.81849 18.4436 6.8219 18.3252C6.83402 17.9111 6.85308 17.497 6.85543 17.0829C6.86026 16.2321 6.85508 15.3811 6.85614 14.5302C6.85649 14.2996 6.86296 14.069 6.86967 13.8385C6.87484 13.6592 6.8852 13.4801 6.89261 13.3008C6.90084 13.1002 6.91014 12.8996 6.91579 12.6989C6.92179 12.48 6.92614 12.261 6.92755 12.042C6.92932 11.7609 6.93014 11.4798 6.92626 11.1989C6.92414 11.0436 6.91226 10.8885 6.90367 10.7334C6.89955 10.6601 6.89296 10.5868 6.88696 10.5081C6.87449 10.513 6.86108 10.5154 6.85155 10.5228C6.74214 10.6075 6.63414 10.6942 6.5239 10.778C6.41214 10.863 6.29896 10.9464 6.18532 11.0289C6.11649 11.0789 6.04508 11.1255 5.97555 11.1745C5.90402 11.2251 5.83332 11.2767 5.76249 11.3282C5.62626 11.4275 5.45249 11.4237 5.29755 11.321C5.18838 11.2487 5.09379 11.1616 5.01261 11.0592C4.86085 10.8678 4.70885 10.6767 4.55673 10.4856C4.43191 10.329 4.31179 10.1683 4.18038 10.0175C4.00908 9.82078 3.82661 9.63372 3.65285 9.43913C3.56014 9.33525 3.47473 9.2249 3.38756 9.11619C3.28426 8.98725 3.17932 8.85949 3.0812 8.72666C3.00779 8.62737 2.98979 8.51619 3.00497 8.38913C3.01638 8.29408 3.06497 8.21855 3.10991 8.15184C3.17391 8.0569 3.27803 7.98902 3.36508 7.90961C3.37367 7.90184 3.38332 7.89514 3.39155 7.88702C3.54838 7.73443 3.70438 7.58102 3.86191 7.42914C4.03885 7.25855 4.21685 7.08914 4.39473 6.91961C4.55132 6.77031 4.70873 6.62196 4.86508 6.47243C5.06391 6.28231 5.26238 6.09173 5.46026 5.90055C5.53261 5.83067 5.5992 5.75455 5.67449 5.68808C5.8739 5.51208 6.07132 5.33314 6.28049 5.16937C6.37237 5.09737 6.4899 5.05726 6.59767 5.00655C6.76884 4.92596 6.9392 4.84302 7.11426 4.77149C7.3132 4.69032 7.51649 4.6202 7.71837 4.54632C7.95378 4.4602 8.19037 4.37749 8.42484 4.28914C8.65002 4.20443 8.87731 4.13091 9.11672 4.09643C9.19331 4.08538 9.26813 4.05714 9.34166 4.03114C9.40472 4.00879 9.46202 4.01373 9.52108 4.04243C9.63943 4.09985 9.75684 4.15973 9.87813 4.21043C10.1231 4.31267 10.3624 4.43126 10.6238 4.48949C10.7034 4.50726 10.7846 4.5182 10.8645 4.5349C10.9507 4.5529 11.0354 4.5802 11.1223 4.5922C11.2487 4.60961 11.3763 4.6209 11.5038 4.62785C11.7004 4.63855 11.8973 4.64996 12.094 4.64832C12.213 4.64726 12.3315 4.61161 12.4505 4.61043C12.5858 4.60902 12.7141 4.57608 12.8419 4.5442C13.0535 4.49126 13.2624 4.42632 13.4711 4.36196C13.5837 4.32726 13.6953 4.28808 13.8039 4.24255C13.9415 4.1849 14.0772 4.12185 14.2108 4.05549C14.3608 3.98091 14.511 3.98091 14.6545 4.05914C14.8124 4.14514 14.9822 4.19726 15.1498 4.25702C15.2707 4.3002 15.3922 4.34232 15.515 4.37996C15.6439 4.41949 15.7751 4.45138 15.9044 4.48973C16.0061 4.51996 16.1058 4.55761 16.2077 4.58726C16.3304 4.6229 16.4557 4.6502 16.5779 4.68749C16.733 4.73467 16.8867 4.78667 17.04 4.83949C17.1613 4.88126 17.2848 4.91937 17.4006 4.97361C17.5518 5.04432 17.7007 5.12208 17.8419 5.21067C17.9335 5.2682 18.0107 5.34949 18.0925 5.42232C18.2507 5.56326 18.4073 5.7062 18.5653 5.84749C18.6595 5.93161 18.7552 6.0142 18.8502 6.09737C18.9757 6.20714 19.1011 6.31679 19.2266 6.42643C19.2831 6.47584 19.3385 6.52655 19.3962 6.57431C19.5328 6.68714 19.6655 6.80561 19.81 6.90737C19.8752 6.95325 19.9299 7.00925 19.9928 7.05643C20.0966 7.13408 20.1906 7.22467 20.2928 7.30443C20.4734 7.44514 20.6164 7.62384 20.7807 7.78067C20.8298 7.82749 20.8824 7.86902 20.9258 7.92314C20.9973 8.01231 21.01 8.11231 20.9937 8.21678C20.9825 8.28831 20.9627 8.36125 20.9313 8.42608C20.9009 8.48866 20.8511 8.54196 20.8092 8.5989C20.7955 8.61749 20.7799 8.63478 20.7654 8.65278C20.6872 8.75066 20.6095 8.84902 20.5307 8.94643C20.3462 9.17443 20.1568 9.39866 19.978 9.63113C19.8668 9.77549 19.7706 9.93149 19.6692 10.0831C19.606 10.1775 19.5502 10.2771 19.4828 10.3682C19.4093 10.4675 19.3246 10.5584 19.2474 10.6551C19.1957 10.7198 19.1592 10.8014 19.0969 10.8522C18.9782 10.9492 18.8965 11.0832 18.7545 11.1594C18.6395 11.221 18.5429 11.188 18.4382 11.1567C18.3498 11.1303 18.2861 11.0651 18.2131 11.0138C18.1221 10.9501 18.0231 10.898 17.9308 10.8358C17.7788 10.7335 17.6297 10.6269 17.4788 10.523C17.4452 10.4998 17.4093 10.48 17.3744 10.4585C17.3687 10.4617 17.3632 10.4648 17.3575 10.468L17.358 10.4677ZM16.9818 19.2959C16.9875 19.2508 16.9972 19.2162 16.9955 19.1822C16.9864 18.9941 16.9659 18.8061 16.9651 18.6181C16.9633 18.1954 16.9701 17.7727 16.9749 17.3499C16.9769 17.1762 16.9873 17.0024 16.9853 16.8289C16.9809 16.4576 16.9724 16.0864 16.9627 15.7152C16.9586 15.5561 16.9485 15.3971 16.9395 15.2381C16.9287 15.0444 16.9151 14.8508 16.9048 14.6571C16.8953 14.4762 16.8874 14.2952 16.8813 14.1142C16.8758 13.9483 16.8753 13.7823 16.8695 13.6165C16.8633 13.4355 16.848 13.2547 16.8469 13.0736C16.8454 12.8275 16.8532 12.5812 16.8579 12.3351C16.8598 12.2378 16.8664 12.1405 16.8675 12.0432C16.8713 11.7531 16.8733 11.463 16.8762 11.173C16.8775 11.0437 16.876 10.9143 16.8817 10.7851C16.8871 10.6614 16.8851 10.5376 16.9037 10.4138C16.9213 10.2962 16.9209 10.1757 16.9272 10.0564C16.928 10.0416 16.9229 10.0258 16.9177 10.0116C16.8913 9.94055 16.8528 9.87184 16.8401 9.79855C16.8284 9.73019 16.7871 9.67302 16.7869 9.5996C16.7869 9.52102 16.7637 9.44243 16.7497 9.36396C16.7442 9.33349 16.7365 9.30349 16.7298 9.27325C16.7246 9.2736 16.7195 9.27396 16.7144 9.27431C16.7112 9.28596 16.7058 9.2976 16.7052 9.30937C16.6969 9.46866 16.6898 9.62796 16.6818 9.78725C16.6698 10.027 16.65 10.2667 16.6467 10.5065C16.6384 11.1116 16.6365 11.7168 16.6339 12.3218C16.6325 12.6383 16.6225 12.9542 16.5994 13.27C16.5855 13.4602 16.5833 13.6511 16.5745 13.8418C16.5678 13.987 16.5592 14.1322 16.5512 14.2774C16.5397 14.4851 16.5252 14.6929 16.5167 14.9008C16.5093 15.0823 16.505 15.2642 16.5055 15.446C16.5074 15.9824 16.5119 16.5189 16.5167 17.0554C16.5186 17.2664 16.5234 17.4774 16.5279 17.6884C16.5312 17.8427 16.5341 17.9969 16.5407 18.151C16.5445 18.2388 16.5628 18.3263 16.5613 18.4137C16.5575 18.6409 16.3744 18.8257 16.1493 18.8407C16.058 18.8468 15.9672 18.8588 15.876 18.8675C15.724 18.8821 15.5724 18.9014 15.42 18.9094C15.1837 18.9216 14.947 18.9261 14.7104 18.9338C14.4706 18.9417 14.2308 18.9496 13.9911 18.9574C13.829 18.9625 13.6668 18.9721 13.5047 18.9715C13.1799 18.9702 12.8551 18.9641 12.5304 18.9584C12.4187 18.9564 12.3072 18.9461 12.1955 18.9464C12.0873 18.9468 11.9814 18.9219 11.8715 18.9311C11.7613 18.9403 11.6491 18.9243 11.5378 18.925C11.301 18.9265 11.0641 18.9309 10.8273 18.9357C10.7435 18.9374 10.6599 18.9425 10.5763 18.9478C10.4755 18.9541 10.3751 18.9639 10.2744 18.9687C10.198 18.9722 10.121 18.9656 10.0448 18.9711C9.8726 18.9838 9.70084 19.003 9.52861 19.0158C9.45813 19.0211 9.38661 19.0125 9.31602 19.0178C9.1419 19.0309 8.96814 19.0474 8.79437 19.0644C8.7352 19.0702 8.67614 19.0892 8.62037 19.0525C8.55755 19.1059 8.48249 19.0709 8.41672 19.0707C8.27543 19.0702 8.13684 19.0312 8.01602 18.9545C7.84296 18.8445 7.75567 18.6815 7.75202 18.4765C7.75073 18.4068 7.7639 18.3368 7.76202 18.2671C7.75696 18.0808 7.7419 17.8945 7.74073 17.7082C7.7392 17.4521 7.74626 17.1959 7.75049 16.9398C7.75414 16.7268 7.75873 16.5137 7.76355 16.3007C7.76637 16.1778 7.77049 16.0551 7.7739 15.9323C7.78143 15.6567 7.79261 15.3811 7.79543 15.1055C7.80308 14.3565 7.80731 13.6077 7.81261 12.8588C7.81367 12.7117 7.81414 12.5647 7.81378 12.4176C7.81343 12.2705 7.80649 12.1234 7.81167 11.9765C7.81661 11.8357 7.77037 11.6984 7.78767 11.5582C7.79508 11.4982 7.74661 11.4463 7.77378 11.3837C7.80202 11.3188 7.74637 11.2592 7.75802 11.187C7.77614 11.0745 7.77214 10.9556 7.72555 10.8451C7.72367 10.8405 7.72214 10.8349 7.72284 10.8302C7.72849 10.7944 7.7412 10.7584 7.73967 10.7229C7.73473 10.6069 7.72578 10.4911 7.71637 10.3754C7.70567 10.2443 7.69367 10.1134 7.68026 9.98266C7.67578 9.93949 7.65343 9.89502 7.6599 9.85454C7.67543 9.75713 7.66849 9.66502 7.63143 9.57431C7.62955 9.56984 7.62696 9.56255 7.62896 9.55996C7.67755 9.49702 7.62849 9.43207 7.6299 9.36843C7.63202 9.27419 7.61096 9.17937 7.60014 9.08478C7.59473 9.03713 7.59155 8.98925 7.5852 8.94172C7.57061 8.83243 7.55202 8.72372 7.54026 8.61419C7.52931 8.5129 7.53026 8.41008 7.51673 8.30925C7.4992 8.17925 7.4772 8.04949 7.44849 7.92161C7.40684 7.73572 7.35767 7.55149 7.31108 7.36678C7.30802 7.35478 7.29873 7.34431 7.29226 7.33314C7.28767 7.33502 7.28308 7.3369 7.27849 7.3389C7.30731 7.52937 7.33602 7.71984 7.36484 7.91043C7.37508 7.9749 7.37002 8.04255 7.37614 8.10925C7.39037 8.26372 7.41308 8.41713 7.41131 8.57302C7.41073 8.62219 7.43296 8.67172 7.43179 8.72078C7.4272 8.92313 7.4172 9.12537 7.41073 9.32772C7.41002 9.35055 7.42555 9.37455 7.42237 9.39643C7.41426 9.4536 7.39814 9.50949 7.38861 9.56643C7.37602 9.64125 7.37367 9.71843 7.35414 9.79113C7.3232 9.90631 7.31143 10.017 7.36167 10.1301C7.38026 10.172 7.39343 10.2189 7.39696 10.2644C7.41178 10.4563 7.42249 10.6484 7.43367 10.8407C7.44226 10.9871 7.44908 11.1337 7.4572 11.2803C7.46437 11.4105 7.47449 11.5408 7.47955 11.6711C7.4852 11.8177 7.49084 11.9645 7.48884 12.1111C7.48531 12.3615 7.47602 12.6116 7.46884 12.862C7.46108 13.135 7.45249 13.4082 7.44555 13.6812C7.44108 13.8588 7.43731 14.0364 7.43579 14.2141C7.43273 14.5768 7.43131 14.9395 7.42931 15.3022C7.42461 16.1815 7.45508 17.061 7.41014 17.9399C7.40073 18.1251 7.39296 18.3104 7.38684 18.4958C7.38214 18.6368 7.37967 18.7779 7.37861 18.919C7.37731 19.1184 7.37826 19.3179 7.37826 19.511C7.60531 19.4988 7.8192 19.4789 8.0332 19.4775C8.42472 19.475 8.81637 19.4869 9.2079 19.4865C9.73649 19.4861 10.2651 19.4812 10.7937 19.475C10.9531 19.4731 11.1124 19.4605 11.2717 19.4524C11.4212 19.4448 11.5707 19.4364 11.7204 19.4285C11.8661 19.4209 12.012 19.4137 12.1578 19.4059C12.3798 19.3942 12.6018 19.3825 12.8237 19.3699C13.0144 19.359 13.205 19.3465 13.3955 19.3351C13.5955 19.3231 13.7954 19.3108 13.9955 19.3001C14.1726 19.2907 14.3498 19.277 14.5268 19.2768C14.8908 19.2762 15.2548 19.2827 15.6188 19.2875C15.8082 19.2899 15.9977 19.2968 16.1872 19.2985C16.3635 19.3001 16.5398 19.2974 16.7161 19.2968C16.8039 19.2964 16.8917 19.2968 16.9813 19.2968L16.9818 19.2959ZM6.43861 5.8029C6.39555 5.82137 6.36143 5.82773 6.33861 5.84726C6.21732 5.95102 6.09508 6.0542 5.98049 6.16514C5.86579 6.2762 5.76285 6.39937 5.64885 6.51114C5.51367 6.64373 5.37108 6.76878 5.23402 6.89949C5.15944 6.97055 5.09226 7.04937 5.01708 7.11973C4.91402 7.2162 4.80555 7.30714 4.70108 7.4022C4.55038 7.53937 4.40132 7.67843 4.25085 7.81572C4.2332 7.83184 4.20591 7.83855 4.19085 7.85619C4.15132 7.90243 4.11897 7.9549 4.07814 7.99984C4.0432 8.03819 4.05344 8.06867 4.08191 8.10043C4.16826 8.19678 4.25579 8.29196 4.34144 8.3889C4.36979 8.4209 4.39344 8.45702 4.42002 8.49066C4.46344 8.54561 4.5092 8.59878 4.55108 8.6549C4.63932 8.77313 4.72285 8.8949 4.81379 9.01102C4.88308 9.09949 4.96155 9.18066 5.03426 9.26643C5.11179 9.35807 5.18638 9.45207 5.26391 9.54372C5.3432 9.63737 5.42461 9.72902 5.50473 9.82196C5.55979 9.88572 5.61743 9.94772 5.66767 10.0151C5.71979 10.085 5.76779 10.1585 5.8112 10.2342C5.85308 10.3073 5.91355 10.3691 5.93249 10.457C5.94508 10.5154 5.98779 10.5211 6.03732 10.4831C6.13061 10.4117 6.2239 10.3402 6.31896 10.271C6.50237 10.1374 6.68732 10.0057 6.87049 9.87184C6.8839 9.86207 6.89461 9.8416 6.89708 9.82478C6.90932 9.73972 6.92073 9.65431 6.92814 9.56878C6.9452 9.3709 6.96955 9.1729 6.97273 8.97455C6.97626 8.75455 6.96332 8.53408 6.95049 8.31419C6.93979 8.13066 6.92637 7.94667 6.90084 7.76467C6.84237 7.34784 6.76955 6.93349 6.64932 6.5289C6.57896 6.29231 6.51167 6.05479 6.43873 5.80302L6.43861 5.8029ZM13.9861 4.75985C13.9758 4.7589 13.9653 4.7549 13.9571 4.75761C13.8542 4.79079 13.7517 4.82479 13.6492 4.85902C13.6421 4.86137 13.637 4.86879 13.63 4.87196C13.6108 4.88067 13.5918 4.89137 13.5714 4.89596C13.5395 4.90314 13.5055 4.90208 13.4745 4.91114C13.3845 4.93749 13.2959 4.96949 13.2044 4.9902C13.1322 5.00643 13.0579 5.01279 12.9853 5.02785C12.9081 5.04385 12.8328 5.07067 12.7552 5.08208C12.673 5.09408 12.5888 5.09455 12.5055 5.0982C12.4067 5.10243 12.3078 5.10408 12.209 5.10761C11.8919 5.11914 11.576 5.10949 11.2613 5.06337C10.8258 4.99949 10.4023 4.89396 9.99708 4.71961C9.93672 4.69361 9.87696 4.66608 9.80755 4.63502C9.81261 4.66349 9.81096 4.6849 9.82002 4.69996C9.90943 4.84902 9.98802 5.00679 10.094 5.14314C10.3068 5.41702 10.5857 5.61196 10.9018 5.75243C11.2601 5.91161 11.6353 6.00161 12.0284 5.98984C12.1846 5.98514 12.3405 5.95267 12.4953 5.92561C12.5691 5.91267 12.64 5.8829 12.7121 5.86067C12.7767 5.84079 12.8334 5.80361 12.8974 5.77973C13.0873 5.7089 13.2597 5.59961 13.4252 5.48137C13.5735 5.37537 13.6864 5.23408 13.8014 5.09667C13.8832 4.9989 13.9546 4.89079 13.9861 4.76008V4.75985ZM17.5014 6.3469C17.5865 6.33773 17.6595 6.32514 17.7328 6.32361C17.7764 6.32267 17.8271 6.3282 17.8625 6.35031C17.9225 6.38784 17.9754 6.43831 18.0271 6.48773C18.194 6.64749 18.3619 6.80655 18.5242 6.9709C18.8478 7.29855 19.1612 7.63643 19.5231 7.92384C19.5979 7.98325 19.6604 8.05184 19.6942 8.14325C19.7073 8.17867 19.7266 8.17819 19.7489 8.14996C19.8229 8.05619 19.8961 7.96172 19.9719 7.86937C19.9981 7.83749 20.0004 7.81372 19.9678 7.78584C19.9022 7.72996 19.8407 7.66914 19.7733 7.61561C19.3712 7.29655 18.9686 6.97867 18.5919 6.62867C18.3066 6.36361 18.008 6.11302 17.716 5.85514C17.6769 5.82067 17.6599 5.84443 17.6494 5.87726C17.5987 6.03467 17.55 6.19267 17.5017 6.34702L17.5014 6.3469ZM18.642 10.6811C18.7641 10.4984 18.8862 10.3214 19.0024 10.1404C19.1579 9.89831 19.2954 9.64349 19.4647 9.41172C19.7164 9.06713 19.9895 8.73819 20.252 8.40149C20.2927 8.34925 20.3282 8.29255 20.3601 8.23443C20.3695 8.21725 20.3653 8.18419 20.3544 8.16631C20.3357 8.13561 20.3067 8.11114 20.2692 8.06984C20.2544 8.09302 20.2447 8.11019 20.2331 8.12584C20.0977 8.30831 19.9513 8.48361 19.8285 8.67408C19.5164 9.15819 19.2107 9.64619 18.8551 10.1005C18.7464 10.2394 18.6368 10.3776 18.5299 10.5178C18.5182 10.5331 18.5109 10.5701 18.5199 10.5795C18.5546 10.6157 18.5967 10.6449 18.6418 10.6812L18.642 10.6811ZM17.0635 6.26843C17.1464 6.04079 17.2291 5.81302 17.3128 5.58279C17.2371 5.54737 17.1684 5.51537 17.0911 5.47926C17.1594 5.75455 17.0787 6.00902 17.0635 6.26843ZM9.16319 4.83279C9.17225 4.82549 9.18119 4.8182 9.19025 4.8109C9.16696 4.7502 9.14355 4.68949 9.12049 4.62879C9.10261 4.58157 9.06986 4.56816 9.02225 4.58855C9.01872 4.59008 9.01508 4.59138 9.01143 4.59279C8.97143 4.60773 8.96108 4.62361 9.00131 4.65514C9.04708 4.69102 9.08919 4.73185 9.13002 4.77349C9.14531 4.78914 9.15237 4.81279 9.16319 4.83279ZM6.84567 5.7662V5.53643C6.8399 5.53443 6.83414 5.53255 6.82837 5.53055C6.8072 5.5582 6.76426 5.59102 6.76932 5.61243C6.78143 5.66396 6.81614 5.7102 6.84579 5.7662H6.84567ZM14.7441 4.62961C14.7295 4.66867 14.7161 4.70467 14.7027 4.74055C14.7066 4.7429 14.7104 4.74526 14.7142 4.74773C14.7475 4.72102 14.7808 4.6942 14.8245 4.65902C14.7915 4.6469 14.7711 4.63938 14.7441 4.62949V4.62961Z" fill="#0621FD"/>
</svg>
