<svg width="24" height="24" viewBox="0 0 24 24" fill="none" xmlns="http://www.w3.org/2000/svg">
<path d="M19.1701 9.00096C19.1944 9.17208 19.2121 9.32043 19.2374 9.46737C19.2668 9.63765 19.2492 9.80822 19.2495 9.97864C19.2498 10.1135 19.2387 10.2483 19.2368 10.3833C19.2309 10.8133 19.2262 11.2433 19.2239 11.6732C19.2238 11.7075 19.2457 11.7419 19.2567 11.7765C19.2599 11.7868 19.265 11.7996 19.2616 11.8083C19.2091 11.946 19.2412 12.0867 19.245 12.2265C19.2453 12.2379 19.2498 12.2491 19.2502 12.2604C19.2551 12.4139 19.2605 12.5676 19.2643 12.7213C19.2696 12.9311 19.274 13.141 19.2785 13.3508C19.2834 13.5838 19.2877 13.817 19.2927 14.05C19.2972 14.2669 19.3003 14.4838 19.3072 14.7006C19.3145 14.9329 19.3259 15.165 19.3347 15.3973C19.3446 15.653 19.343 15.9097 19.3673 16.1639C19.3799 16.295 19.3704 16.4241 19.3756 16.5539C19.3815 16.7001 19.377 16.8468 19.377 17.0085C19.5094 17.0121 19.6245 17.0109 19.7391 17.0197C19.8485 17.0282 19.9613 17.0334 20.0651 17.0647C20.178 17.0987 20.2178 17.2067 20.233 17.315C20.2435 17.3897 20.2348 17.4667 20.241 17.5422C20.25 17.6519 20.2649 17.7612 20.2767 17.8706C20.2784 17.8867 20.2794 17.904 20.2758 17.9196C20.2417 18.0728 20.2734 18.0539 20.3942 18.0722C20.4626 18.0825 20.5336 18.0761 20.6014 18.0888C20.7236 18.1116 20.7888 18.1843 20.8086 18.3271C20.8296 18.4782 20.8348 18.632 20.838 18.7848C20.8427 19.0003 20.8407 19.216 20.8389 19.4315C20.8376 19.572 20.8403 19.7135 20.8242 19.8525C20.8148 19.9344 20.7655 20.004 20.6814 20.0435C20.5611 20.1 20.4406 20.0955 20.311 20.0857C20.132 20.072 19.9505 20.0865 19.7702 20.093C19.5099 20.1022 19.2498 20.1152 18.9895 20.1262C18.8638 20.1315 18.7381 20.1394 18.6124 20.1397C17.9973 20.1411 17.3822 20.1412 16.7671 20.1397C16.616 20.1392 16.4648 20.1288 16.3136 20.1266C15.9492 20.1211 15.5847 20.1153 15.2201 20.1143C15.0124 20.1138 14.8046 20.1226 14.5969 20.1262C14.0529 20.1354 13.509 20.1453 12.9649 20.1527C12.1536 20.164 11.3422 20.174 10.5309 20.1838C10.0061 20.1903 9.48123 20.1953 8.95632 20.2017C8.75046 20.2041 8.5446 20.2088 8.33888 20.2112C7.89707 20.2163 7.45527 20.2188 7.01346 20.2257C6.30449 20.2367 5.59551 20.2516 4.8864 20.2621C4.55849 20.267 4.2303 20.2732 3.90267 20.2637C3.73998 20.2589 3.57405 20.2372 3.42275 20.1647C3.28172 20.0969 3.20677 19.9732 3.16824 19.8295C3.12831 19.6804 3.13084 19.5307 3.16824 19.3774C3.18821 19.2955 3.16093 19.2034 3.16487 19.1163C3.17584 18.8779 3.18512 18.6392 3.2093 18.4019C3.22097 18.2873 3.30309 18.2078 3.41474 18.1744C3.51022 18.1459 3.60935 18.1296 3.71678 18.1057C3.71087 18.0562 3.70018 18.0042 3.6992 17.952C3.69583 17.7647 3.70089 17.5784 3.74856 17.3949C3.78413 17.2583 3.88734 17.2074 4.00728 17.1818C4.1022 17.1616 4.20021 17.1534 4.29723 17.1459C4.40817 17.1371 4.51968 17.1352 4.63273 17.1301C4.64005 17.0533 4.65143 16.9781 4.6534 16.9027C4.66015 16.6465 4.68082 16.3891 4.66339 16.1343C4.64595 15.8803 4.67618 15.6285 4.6624 15.375C4.64848 15.1181 4.66142 14.8596 4.66325 14.602C4.66409 14.4895 4.66578 14.3769 4.66845 14.2644C4.67548 13.9632 4.68406 13.662 4.69024 13.3608C4.69151 13.2966 4.68209 13.232 4.68293 13.1678C4.68631 12.9204 4.69109 12.6731 4.69685 12.4257C4.69938 12.3213 4.70768 12.2171 4.71007 12.1126C4.71584 11.8676 4.71893 11.6226 4.72469 11.3776C4.73173 11.0806 4.74101 10.7838 4.74804 10.4868C4.74874 10.4553 4.73862 10.4237 4.73904 10.392C4.74283 10.126 4.74565 9.85996 4.75338 9.59406C4.75802 9.43433 4.77011 9.27473 4.78122 9.11527C4.78502 9.06072 4.76786 9.04061 4.71049 9.04187C4.52812 9.04581 4.3456 9.04694 4.16323 9.04511C4.00953 9.04356 3.85584 9.03864 3.70243 9.03119C3.49559 9.0212 3.30914 8.94963 3.16304 8.80396C2.97068 8.6123 2.96562 8.43006 3.05955 8.18287C3.09766 8.08275 3.1816 8.03339 3.23616 7.95409C3.27834 7.89264 3.37073 7.86705 3.43808 7.82135C3.6348 7.68777 3.82786 7.54884 4.02641 7.41835C4.21061 7.29728 4.40114 7.18578 4.58703 7.06696C4.70177 6.9937 4.81047 6.91088 4.92619 6.8393C5.06807 6.75156 5.21586 6.67324 5.35858 6.58676C5.58567 6.4491 5.81136 6.30891 6.03648 6.16802C6.30589 5.99928 6.57503 5.8297 6.84261 5.65801C7.02035 5.54397 7.19682 5.42755 7.37118 5.30859C7.64861 5.11932 7.92295 4.92527 8.20066 4.73643C8.53996 4.50568 8.87954 4.2755 9.2225 4.05024C9.4891 3.87503 9.75978 3.70587 10.0309 3.5377C10.2384 3.4089 10.4499 3.28642 10.6591 3.16015C10.7811 3.08661 10.8988 3.00548 11.0239 2.93827C11.2835 2.79864 11.5422 2.65577 11.8105 2.53456C11.9521 2.47058 12.1155 2.48408 12.2558 2.55805C12.4192 2.6441 12.5743 2.74633 12.7304 2.8456C12.8382 2.91422 12.9402 2.99198 13.0475 3.06144C13.3824 3.27813 13.7143 3.50044 14.0558 3.7063C14.4812 3.96277 14.9232 4.19212 15.3435 4.45633C16.5857 5.23701 17.8221 6.02698 19.058 6.81779C19.414 7.04558 19.7612 7.28716 20.1108 7.52494C20.3089 7.65978 20.5108 7.79084 20.697 7.94101C20.8031 8.02664 20.8974 8.13548 20.9371 8.27665C20.9564 8.34471 21.0001 8.41094 21 8.47801C21 8.55001 20.973 8.62833 20.9378 8.69301C20.8522 8.85036 20.7037 8.91462 20.5334 8.94752C20.247 9.00264 19.9583 9.00616 19.6685 9.0011C19.5035 8.99814 19.3384 9.00053 19.1695 9.00053L19.1701 9.00096ZM10.9295 17.0935C10.9232 16.9337 10.917 16.7873 10.9115 16.6408C10.9066 16.5083 10.8985 16.3759 10.899 16.2435C10.8997 16.0897 10.9082 15.9359 10.9135 15.782C10.9163 15.7025 10.9236 15.6229 10.922 15.5434C10.9153 15.2045 10.9059 14.8658 10.898 14.5271C10.8966 14.4639 10.8993 14.4005 10.8968 14.3374C10.889 14.1366 10.8786 13.9358 10.8715 13.7348C10.8647 13.5474 10.9761 13.4591 11.1257 13.4227C11.2254 13.3985 11.3359 13.4216 11.4414 13.4182C11.6668 13.4112 11.8922 13.3988 12.1176 13.392C12.3517 13.3849 12.5858 13.3794 12.8201 13.3778C12.9026 13.3773 12.9803 13.402 13.0369 13.4699C13.1037 13.5499 13.1192 13.6481 13.1178 13.7448C13.1129 14.0969 13.0967 14.449 13.0925 14.8011C13.0877 15.1877 13.0904 15.5742 13.092 15.9608C13.0925 16.0631 13.0941 16.1662 13.1071 16.2674C13.139 16.5187 13.1498 16.7693 13.1119 17.0208C13.1095 17.0365 13.1375 17.072 13.1518 17.0723C13.3415 17.0758 13.5313 17.0755 13.7211 17.0729C13.7363 17.0726 13.7638 17.048 13.764 17.0342C13.7652 16.9737 13.7584 16.9131 13.7542 16.8472C13.759 16.8402 13.7771 16.8255 13.7791 16.8089C13.7909 16.7126 13.804 16.616 13.8065 16.5191C13.8089 16.4265 13.7974 16.3334 13.7947 16.2404C13.7889 16.0492 13.7805 15.8578 13.7812 15.6665C13.7827 15.2432 13.7872 14.8198 13.7947 14.3966C13.7995 14.126 13.8132 13.8556 13.8204 13.5851C13.8272 13.333 13.8307 13.0806 13.8355 12.8285C13.8402 12.5762 13.8446 12.3241 13.8498 12.0718C13.8535 11.8897 13.8585 11.7076 13.8623 11.5255C13.8678 11.2686 13.873 11.0116 13.8776 10.7545C13.8816 10.5324 13.8854 10.3103 13.8879 10.0882C13.8909 9.83043 13.8913 9.57269 13.8948 9.31495C13.8961 9.22439 13.9051 9.13398 13.9053 9.04342C13.9053 9.02542 13.8841 8.99477 13.8684 8.99167C13.8166 8.98155 13.7629 8.97747 13.7102 8.97818C13.5628 8.98 13.4155 8.98591 13.2681 8.989C12.8098 8.99871 12.3514 9.00855 11.893 9.01699C11.5821 9.02275 11.2711 9.02641 10.9602 9.03133C10.6845 9.03569 10.4089 9.0423 10.1331 9.04398C10.0773 9.04426 10.0628 9.06747 10.0665 9.11485C10.068 9.1358 10.0728 9.15633 10.0752 9.17714C10.0918 9.32043 10.1176 9.46343 10.122 9.60714C10.1275 9.78642 10.1137 9.96641 10.1108 10.1461C10.1072 10.3598 10.1044 10.5737 10.1047 10.7876C10.1051 11.1311 10.1044 11.4746 10.1119 11.818C10.1158 12.0015 10.0951 12.1853 10.1238 12.3689C10.142 12.4854 10.1147 12.6035 10.1356 12.7231C10.1595 12.8594 10.1299 13.0003 10.1504 13.1403C10.1685 13.2638 10.1635 13.3908 10.1664 13.5163C10.1726 13.7848 10.1768 14.0532 10.1829 14.3216C10.1857 14.449 10.1721 14.576 10.1933 14.704C10.2119 14.8153 10.182 14.9294 10.2072 15.0441C10.2314 15.1542 10.2067 15.2691 10.218 15.3841C10.2403 15.6074 10.23 15.8336 10.2514 16.0581C10.2606 16.1549 10.2625 16.2527 10.2649 16.35C10.2695 16.5421 10.2733 16.7341 10.275 16.9262C10.2756 16.9832 10.2677 17.0402 10.264 17.0928H10.9294L10.9295 17.0935ZM15.8077 8.97072C15.8071 8.98 15.8055 8.98942 15.8064 8.99856C15.808 9.01249 15.8111 9.02613 15.814 9.03991C15.872 9.30651 15.896 9.57592 15.8855 9.84871C15.8767 10.0726 15.8661 10.2964 15.8637 10.5204C15.8597 10.8983 15.858 11.2761 15.8624 11.6538C15.8655 11.926 15.8797 12.1982 15.8894 12.4705C15.8981 12.7102 15.9104 12.9498 15.916 13.1897C15.9237 13.5176 15.9261 13.8457 15.9322 14.1736C15.9351 14.3322 15.9402 14.4908 15.9462 14.6494C15.9541 14.8543 15.9656 15.059 15.9724 15.2639C15.9836 15.6011 15.993 15.9381 16.0019 16.2753C16.0082 16.5135 16.0124 16.7517 16.0181 16.9898C16.0182 16.9983 16.0226 17.0069 16.0251 17.0159C16.1142 17.0159 16.2007 17.0165 16.2872 17.0159C16.5449 17.0138 16.8025 17.0089 17.0603 17.01C17.1334 17.0103 17.1511 16.9704 17.156 16.9133C17.1629 16.8328 17.1718 16.7521 17.171 16.6716C17.1676 16.3397 17.1614 16.0077 17.1544 15.6759C17.1538 15.6465 17.1326 15.6171 17.1333 15.5881C17.1347 15.5268 17.1487 15.4658 17.1494 15.4045C17.1511 15.2592 17.1382 15.1131 17.1494 14.9689C17.1607 14.8263 17.1324 14.6862 17.1513 14.5421C17.1777 14.3396 17.1698 14.1329 17.1822 13.9283C17.1956 13.7055 17.1659 13.4826 17.1953 13.2593C17.2136 13.1212 17.206 12.9795 17.2085 12.8394C17.214 12.5237 17.2185 12.2079 17.2235 11.8922C17.2286 11.5791 17.2344 11.2661 17.2387 10.953C17.2446 10.5366 17.2477 10.1202 17.2555 9.70388C17.2587 9.53163 17.2718 9.35938 17.2785 9.18713C17.2812 9.11809 17.2789 9.0489 17.2789 8.97115H15.8074L15.8077 8.97072ZM6.6982 9.09362C6.69666 9.12835 6.69188 9.15183 6.69511 9.17433C6.71395 9.30482 6.7484 9.43461 6.75178 9.56524C6.75712 9.77236 6.73983 9.98005 6.73659 10.1876C6.73125 10.5249 6.72042 10.8624 6.72956 11.1994C6.73476 11.3924 6.68836 11.5859 6.73631 11.7779C6.73744 11.7823 6.73631 11.7872 6.73659 11.792C6.74587 12.0433 6.75586 12.2944 6.76415 12.5457C6.77442 12.8539 6.78412 13.1621 6.79227 13.4704C6.79846 13.7049 6.80156 13.9396 6.80704 14.1741C6.8107 14.3296 6.81618 14.4852 6.8204 14.6407C6.82546 14.8321 6.83052 15.0234 6.8339 15.2149C6.83446 15.2471 6.82096 15.28 6.82377 15.3117C6.82729 15.3516 6.8436 15.3904 6.84979 15.4304C6.86497 15.5295 6.81295 15.632 6.86328 15.7299C6.86427 15.7317 6.86343 15.7345 6.86357 15.7369C6.87285 15.9414 6.88578 16.1457 6.89014 16.3501C6.89464 16.5609 6.89577 16.772 6.88831 16.9825C6.8855 17.0626 6.92178 17.0826 6.98534 17.0888C7.00854 17.091 7.03216 17.0892 7.05564 17.0893C7.11414 17.0896 7.17277 17.0876 7.23113 17.0909C7.36499 17.0983 7.49872 17.1093 7.63258 17.1166C7.6562 17.1179 7.68109 17.1017 7.70443 17.1042C7.80624 17.1149 7.90748 17.1295 8.00043 17.1416C8.0173 17.0542 8.03698 16.9861 8.04233 16.9169C8.04908 16.8307 8.04388 16.7436 8.04402 16.6568C8.04444 16.4578 8.04528 16.259 8.04528 16.06C8.045 15.4439 8.04331 14.8276 8.04472 14.2114C8.04514 14.0152 8.05344 13.8192 8.05808 13.6231C8.06272 13.4318 8.06806 13.2406 8.072 13.0494C8.07734 12.7902 8.08142 12.5309 8.08648 12.2718C8.0907 12.0523 8.0959 11.8328 8.09998 11.6131C8.10139 11.5406 8.09942 11.4679 8.10068 11.3953C8.10968 10.888 8.11896 10.3805 8.12867 9.87318C8.13049 9.77756 8.13345 9.68209 8.13724 9.58661C8.14385 9.42223 8.15158 9.258 8.15876 9.09432H6.69863L6.6982 9.09362ZM6.24501 9.07393C5.98726 9.07393 5.72586 9.0752 5.4646 9.07295C5.4054 9.07239 5.3441 9.06662 5.28757 9.05003C5.23259 9.03386 5.18731 9.05228 5.18984 9.10937C5.19772 9.28485 5.20306 9.46062 5.21951 9.6354C5.23625 9.81426 5.26085 9.99172 5.26142 10.1723C5.26184 10.3541 5.28518 10.536 5.28406 10.7178C5.28195 11.047 5.26985 11.3761 5.25973 11.7051C5.2586 11.7402 5.23231 11.7755 5.2347 11.8096C5.24398 11.9377 5.27112 12.0658 5.21459 12.1903C5.21164 12.1968 5.21361 12.2057 5.21389 12.2134C5.21979 12.3782 5.23133 12.543 5.22992 12.7077C5.22865 12.8525 5.20995 12.9972 5.20405 13.142C5.19645 13.3306 5.1942 13.5194 5.18928 13.7081C5.18492 13.8734 5.17677 14.0386 5.17592 14.2039C5.17381 14.567 5.17536 14.9302 5.17536 15.2933C5.17536 15.408 5.16777 15.5235 5.17747 15.6373C5.18647 15.7424 5.12629 15.8497 5.189 15.9526C5.19533 15.963 5.19069 15.9802 5.19055 15.9942C5.19027 16.0223 5.1897 16.0505 5.18928 16.0786C5.1852 16.3368 5.18127 16.5949 5.17663 16.8531C5.17635 16.8714 5.17002 16.8894 5.16791 16.9077C5.16046 16.9706 5.15371 17.0338 5.14653 17.0987C5.56472 17.084 5.96462 17.0699 6.37662 17.0554C6.36987 16.9008 6.36186 16.7476 6.3568 16.5945C6.35061 16.4057 6.34709 16.2168 6.34231 16.0278C6.33795 15.8554 6.335 15.683 6.32881 15.5108C6.32052 15.2802 6.30899 15.0497 6.30097 14.8191C6.29971 14.783 6.31461 14.7461 6.31222 14.7103C6.30688 14.6299 6.28916 14.5501 6.28719 14.4698C6.27988 14.1685 6.27749 13.8669 6.27172 13.5656C6.26863 13.3975 6.26315 13.2293 6.2578 13.0613C6.2488 12.774 6.23685 12.4869 6.23038 12.1996C6.2242 11.9254 6.21899 11.6512 6.22138 11.377C6.22673 10.7408 6.23713 10.1045 6.24487 9.46821C6.24641 9.34546 6.24515 9.22256 6.24515 9.07421L6.24501 9.07393ZM8.55149 9.07323C8.56583 9.16125 8.58355 9.23915 8.59002 9.3179C8.5993 9.42969 8.59916 9.54204 8.60478 9.6541C8.6187 9.92675 8.63544 10.1993 8.64767 10.4719C8.65498 10.6333 8.66623 10.7955 8.65681 10.9562C8.64739 11.1155 8.6585 11.275 8.63698 11.4346C8.61898 11.5676 8.62391 11.7038 8.62039 11.8387C8.61491 12.0489 8.61027 12.2591 8.60633 12.4692C8.60141 12.7306 8.5986 12.992 8.59213 13.2532C8.59128 13.2892 8.57483 13.325 8.56358 13.3684C8.56696 13.3877 8.57764 13.4187 8.57722 13.4495C8.57427 13.6186 8.56879 13.7876 8.564 13.9567C8.5595 14.1151 8.54994 14.2734 8.55093 14.4316C8.55346 14.8993 8.55922 15.3671 8.56583 15.8348C8.56766 15.9646 8.56414 16.0938 8.57539 16.2244C8.59649 16.4671 8.59016 16.7111 8.54249 16.9521C8.53124 17.0092 8.52759 17.0678 8.51943 17.1332C8.9341 17.1204 9.33766 17.1501 9.74586 17.1125C9.74586 17.0786 9.74642 17.0508 9.74586 17.0231C9.74108 16.8435 9.73574 16.664 9.73138 16.4843C9.72983 16.4234 9.73194 16.3624 9.72969 16.3015C9.72856 16.2718 9.71886 16.2423 9.7176 16.2126C9.70747 15.9917 9.69735 15.7708 9.68933 15.5499C9.67879 15.2561 9.66852 14.9625 9.66135 14.6687C9.65038 14.229 9.64349 13.7893 9.63239 13.3496C9.62535 13.0721 9.6127 12.7948 9.60511 12.5174C9.59822 12.2628 9.59133 12.008 9.59062 11.7532C9.58879 11.0947 9.59062 10.4363 9.59034 9.77784C9.59034 9.73988 9.58233 9.70163 9.58472 9.66395C9.58739 9.62134 9.60272 9.57916 9.6037 9.53669C9.60511 9.47271 9.57811 9.39973 9.60061 9.34644C9.64153 9.24956 9.62395 9.15577 9.63463 9.05003C9.27452 9.05762 8.9244 9.06507 8.55163 9.07309L8.55149 9.07323ZM14.3203 8.97115C14.3299 9.1666 14.3386 9.35038 14.3479 9.53402C14.3688 9.94799 14.4034 10.3617 14.4076 10.7758C14.4117 11.1769 14.3844 11.5785 14.3715 11.9799C14.366 12.1522 14.3618 12.3248 14.3573 12.4972C14.3524 12.6932 14.3479 12.8893 14.3431 13.0855C14.3384 13.2743 14.3341 13.4633 14.3289 13.6522C14.3248 13.8036 14.3186 13.9552 14.3152 14.1066C14.3109 14.2979 14.3041 14.4891 14.3061 14.6802C14.3112 15.1566 14.3251 15.633 14.3263 16.1092C14.327 16.3822 14.3105 16.6551 14.3003 16.9279C14.2988 16.9705 14.2906 17.0128 14.2843 17.0654C14.4218 17.0592 14.5474 17.0514 14.6731 17.0484C14.9168 17.0426 15.1605 17.0383 15.4041 17.036C15.466 17.0355 15.4922 17.0356 15.4865 16.9503C15.4695 16.6919 15.4728 16.4322 15.468 16.1729C15.4639 15.9537 15.4622 15.7344 15.455 15.5153C15.4483 15.3083 15.4321 15.1018 15.4268 14.8948C15.4192 14.6029 15.4196 14.3108 15.4127 14.0189C15.4054 13.7064 15.3937 13.394 15.3836 13.0816C15.3794 12.9488 15.3746 12.8159 15.3696 12.6832C15.3604 12.4366 15.3489 12.1899 15.3421 11.9432C15.3372 11.7626 15.3358 11.5819 15.3375 11.4014C15.343 10.807 15.3503 10.2126 15.3575 9.61825C15.3583 9.5464 15.3618 9.4744 15.3656 9.40269C15.3734 9.25898 15.3821 9.11541 15.3905 8.97072H14.32L14.3203 8.97115ZM18.7462 9.03667C18.7076 9.02444 18.674 9.00531 18.6398 9.00447C18.369 8.99744 18.0982 8.99364 17.8273 8.98942C17.7461 8.98816 17.7044 9.025 17.7081 9.10599C17.7182 9.33154 17.7337 9.55694 17.7452 9.78248C17.7562 9.99692 17.7715 10.2114 17.7726 10.4258C17.7742 10.7437 17.7656 11.0618 17.7598 11.3797C17.757 11.5383 17.7503 11.6969 17.7462 11.8556C17.741 12.0538 17.7372 12.2519 17.7319 12.4502C17.7281 12.5876 17.7215 12.7248 17.7182 12.8622C17.7126 13.1003 17.7094 13.3385 17.7036 13.5767C17.7006 13.7025 17.6932 13.8282 17.6901 13.9541C17.6829 14.242 17.6715 14.53 17.6722 14.818C17.6732 15.2152 17.6848 15.6123 17.6897 16.0096C17.6925 16.2324 17.6932 16.4553 17.6911 16.6782C17.6904 16.7599 17.688 16.8434 17.6699 16.9223C17.6558 16.9836 17.6766 16.9948 17.7255 16.9926C17.8275 16.9879 17.9294 16.9778 18.0314 16.9768C18.2788 16.9746 18.5263 16.9764 18.7738 16.9764C18.862 16.9764 18.8653 16.9754 18.8632 16.885C18.8578 16.6444 18.8499 16.4038 18.8427 16.1632C18.8334 15.8484 18.8246 15.5336 18.8144 15.2187C18.806 14.9604 18.7949 14.7021 18.7869 14.4438C18.7807 14.2457 18.7776 14.0474 18.7724 13.8492C18.7633 13.4947 18.755 13.1401 18.7439 12.7857C18.7371 12.5732 18.7243 12.3611 18.7166 12.1486C18.71 11.9642 18.7038 11.7799 18.7027 11.5956C18.7005 11.228 18.7004 10.8604 18.7027 10.4929C18.7039 10.2759 18.7131 10.0589 18.7153 9.84182C18.7163 9.75169 18.7012 9.66114 18.7063 9.57142C18.7111 9.48424 18.7377 9.39847 18.7446 9.31129C18.7516 9.22284 18.7461 9.13355 18.7461 9.03681L18.7462 9.03667ZM19.7553 18.0168C19.7512 17.9558 19.7454 17.8914 19.7431 17.8268C19.7407 17.7613 19.7418 17.6956 19.7408 17.6301C19.7402 17.587 19.7255 17.5661 19.6746 17.5659C19.0493 17.5626 18.424 17.5487 17.7988 17.5535C16.7755 17.5612 15.7524 17.5809 14.7293 17.5951C14.467 17.5988 14.2046 17.6007 13.9422 17.6038C13.0257 17.6147 12.109 17.567 11.1924 17.6208C10.859 17.6404 10.524 17.6327 10.1898 17.6373C10.1265 17.6381 10.0621 17.6303 10.0002 17.6398C9.81968 17.6678 9.63773 17.6483 9.45634 17.6602C9.15064 17.6805 8.84284 17.6719 8.53602 17.6674C8.13682 17.6615 7.73776 17.649 7.33884 17.6359C7.28611 17.6342 7.23422 17.6117 7.18149 17.6012C7.16181 17.5972 7.14015 17.5969 7.12033 17.6003C7.08756 17.6058 7.05536 17.6221 7.02302 17.622C6.95342 17.6217 6.88395 17.6102 6.81435 17.6099C6.39546 17.6086 5.97644 17.6106 5.55755 17.6086C5.37109 17.6078 5.18464 17.599 4.99805 17.5955C4.89259 17.5936 4.78699 17.5989 4.68181 17.5936C4.52488 17.5855 4.36838 17.5711 4.20485 17.5587C4.20485 17.596 4.20471 17.6189 4.20485 17.6417C4.20583 17.787 4.20625 17.9324 4.20949 18.0778C4.20977 18.0889 4.22959 18.1079 4.24169 18.1091C4.2954 18.1137 4.34968 18.1152 4.40367 18.1143C4.61038 18.1107 4.81694 18.1062 5.0235 18.1013C5.18886 18.0974 5.35408 18.0915 5.51944 18.0877C5.93735 18.0781 6.35525 18.0619 6.77315 18.0617C8.13907 18.0607 9.50499 18.0679 10.8709 18.0679C12.0604 18.0679 13.2498 18.0628 14.4393 18.0587C14.6237 18.0581 14.8082 18.0513 14.9927 18.0472C15.2261 18.042 15.4595 18.0366 15.693 18.0316C15.8682 18.0278 16.0434 18.0222 16.2186 18.021C17.0479 18.0157 17.8774 18.011 18.7067 18.0078C18.8894 18.0071 19.0722 18.015 19.2548 18.0167C19.4196 18.0182 19.5844 18.0169 19.755 18.0169L19.7553 18.0168Z" fill="#0621FD"/>
</svg>
