<svg width="24" height="24" viewBox="0 0 24 24" fill="none" xmlns="http://www.w3.org/2000/svg">
<path d="M5.00637 8.77154C5.01883 8.74308 5.03446 8.71547 5.04314 8.68591C5.06476 8.61188 5.08394 8.53712 5.10263 8.46224C5.11289 8.42095 5.13769 8.4113 5.17836 8.41154C5.47545 8.41325 5.77266 8.41301 6.06975 8.41154C6.09528 8.41142 6.12069 8.39627 6.14646 8.38858C6.16124 8.38418 6.18237 8.3727 6.19032 8.37844C6.25836 8.42815 6.33373 8.39261 6.40482 8.3981C6.46236 8.4025 6.52124 8.38625 6.57939 8.38674C6.6583 8.38748 6.73697 8.39432 6.80049 8.33751C6.85937 8.40714 6.9334 8.36891 6.999 8.37172C7.02783 8.37294 7.05739 8.35242 7.08707 8.34301C7.09636 8.34008 7.10882 8.33703 7.11676 8.34069C7.23 8.39358 7.34934 8.34961 7.46503 8.36219C7.47798 8.36366 7.49202 8.34399 7.50668 8.34216C7.52769 8.33947 7.54968 8.34399 7.57118 8.3457C7.58486 8.3468 7.59854 8.34924 7.61223 8.34924C7.87877 8.34997 8.14544 8.34985 8.41199 8.35107C8.85469 8.35327 9.29751 8.35828 9.74021 8.35828C10.0181 8.35828 10.2959 8.35083 10.5738 8.3479C10.6591 8.34704 10.7445 8.3501 10.8297 8.35132C10.8419 8.35144 10.857 8.35596 10.8659 8.35058C10.9419 8.30429 11.0219 8.34924 11.0987 8.33825C11.1323 8.33348 11.1644 8.3187 11.1975 8.30966C11.2107 8.306 11.2321 8.29916 11.2375 8.30502C11.2771 8.34826 11.3209 8.32334 11.3642 8.31809C11.393 8.31467 11.4222 8.31491 11.4513 8.31479C11.5235 8.31443 11.5957 8.31467 11.6795 8.31467C11.6795 8.37465 11.6746 8.44159 11.6807 8.50743C11.6881 8.58818 11.6609 8.67088 11.7043 8.75102C11.717 8.77447 11.6854 8.81833 11.6859 8.85265C11.69 9.17576 11.6994 9.49886 11.7016 9.82197C11.7035 10.1049 11.701 10.3879 11.6956 10.6707C11.692 10.859 11.679 11.047 11.672 11.2351C11.667 11.3686 11.6622 11.5024 11.6617 11.636C11.6602 12.0436 11.6595 12.4513 11.661 12.8589C11.6616 13.0196 11.6678 13.1803 11.6736 13.341C11.6754 13.3925 11.6841 13.4439 11.6913 13.511C11.5633 13.511 11.4442 13.5112 11.3251 13.511C11.268 13.5108 11.211 13.507 11.1542 13.5093C11.1145 13.5109 11.0748 13.5266 11.0356 13.525C10.8289 13.5167 10.6224 13.5028 10.4157 13.495C10.2433 13.4885 10.0705 13.4852 9.89791 13.4851C9.77209 13.4851 9.64578 13.4867 9.52069 13.4987C9.41429 13.5089 9.30679 13.5261 9.20504 13.5575C9.14396 13.5765 9.09289 13.6179 9.05796 13.6891C8.97281 13.8632 9.07042 13.987 9.15776 14.1085C9.27931 14.2775 9.41771 14.4345 9.54695 14.5982C9.65787 14.7387 9.76635 14.881 9.87543 15.0229C9.98208 15.1617 10.0882 15.3008 10.1943 15.44C10.1998 15.4472 10.2026 15.4566 10.2098 15.4719C10.0544 15.4719 9.90487 15.4732 9.75548 15.4715C9.55807 15.4692 9.36079 15.4643 9.16338 15.4608C8.93397 15.4566 8.70456 15.4534 8.47515 15.4484C8.34541 15.4456 8.21568 15.4355 8.08607 15.4367C7.91603 15.4384 7.74611 15.4463 7.57631 15.4548C7.41751 15.4627 7.25895 15.4753 7.10026 15.4852C6.86462 15.4998 6.6291 15.5176 6.39334 15.5272C6.20644 15.5348 6.01881 15.5377 5.83191 15.5326C5.63633 15.5272 5.441 15.5108 5.24579 15.4963C5.22381 15.4947 5.19143 15.4788 5.18447 15.4612C5.16725 15.418 5.16187 15.3701 5.1521 15.3241C5.14953 15.3122 5.14966 15.2995 5.14624 15.288C5.06244 15.0112 4.93881 14.7543 4.75228 14.5321C4.6901 14.458 4.60887 14.4001 4.5407 14.3304C4.31654 14.1018 4.02422 14.0068 3.73117 13.9123C3.72164 13.9092 3.71101 13.9084 3.70099 13.9085C3.61133 13.9092 3.57273 13.8795 3.57346 13.7724C3.57456 13.6178 3.57236 13.4631 3.57407 13.3085C3.57676 13.0649 3.58946 12.8212 3.58336 12.5778C3.57749 12.3432 3.55331 12.109 3.5373 11.8746C3.53278 11.8082 3.529 11.7419 3.52496 11.6755C3.52448 11.6674 3.52863 11.656 3.52472 11.6515C3.47952 11.6 3.52216 11.5424 3.51263 11.4888C3.50884 11.4677 3.50469 11.4467 3.50029 11.4257C3.49748 11.4126 3.49003 11.3993 3.49137 11.3867C3.49626 11.3397 3.50884 11.293 3.50957 11.246C3.51238 11.0527 3.50908 10.8593 3.51385 10.6661C3.51629 10.5636 3.53229 10.4613 3.53901 10.3589C3.54475 10.2708 3.54329 10.1821 3.55159 10.0944C3.55355 10.0746 3.57994 10.0504 3.60095 10.0404C3.65567 10.0144 3.71296 9.99299 3.77062 9.97406C3.7964 9.96563 3.82865 9.97418 3.85235 9.96306C3.95117 9.91652 4.04816 9.86607 4.14504 9.8155C4.20172 9.78593 4.26292 9.76077 4.31166 9.72082C4.4249 9.62786 4.53973 9.53453 4.63941 9.42789C4.7673 9.2912 4.87346 9.13569 4.94956 8.96308C4.9757 8.90384 4.9889 8.83897 5.00808 8.77667C5.00747 8.77496 5.00685 8.77313 5.00637 8.77142V8.77154ZM6.86181 12.7872C6.84166 12.7836 6.82883 12.7839 6.81833 12.779C6.68994 12.7192 6.5618 12.6591 6.43402 12.598C6.38833 12.5761 6.34582 12.5467 6.29879 12.5292C6.2051 12.4944 6.10334 12.5292 6.04898 12.6045C5.99156 12.6839 6.01123 12.7912 6.07329 12.8544C6.12411 12.9062 6.18091 12.9543 6.24187 12.9935C6.41227 13.1032 6.60589 13.1512 6.8022 13.1873C6.84777 13.1956 6.86328 13.2107 6.86206 13.2572C6.86059 13.3177 6.86377 13.3794 6.8733 13.4393C6.88637 13.5204 6.94928 13.5684 7.02734 13.5663C7.10686 13.5641 7.15389 13.5197 7.16562 13.4326C7.17112 13.3924 7.17478 13.3517 7.17576 13.3111C7.1782 13.1969 7.17747 13.1969 7.29376 13.1765C7.29572 13.1762 7.29779 13.1762 7.29987 13.1757C7.7036 13.0794 8.03831 12.7784 7.93057 12.2549C7.91041 12.1571 7.86192 12.0782 7.79436 11.9994C7.70788 11.8988 7.606 11.8288 7.49215 11.7748C7.39491 11.7287 7.28912 11.6998 7.1859 11.6673C7.14962 11.6559 7.13716 11.6417 7.13764 11.6017C7.13948 11.4186 7.13655 11.2355 7.13532 11.0523C7.1352 11.0288 7.13532 11.0053 7.13532 10.9693C7.18956 10.9801 7.23684 10.9814 7.27654 10.9993C7.35667 11.0355 7.42936 11.0912 7.51181 11.1183C7.56801 11.1369 7.6413 11.1364 7.69713 11.1167C7.80988 11.0769 7.84127 10.904 7.75723 10.8182C7.63544 10.6937 7.48726 10.6189 7.31343 10.5967C7.27092 10.5912 7.22853 10.583 7.187 10.5724C7.15059 10.5631 7.10295 10.4944 7.12066 10.4739C7.15878 10.4299 7.12494 10.386 7.12311 10.3464C7.11969 10.2702 7.06508 10.2332 6.99558 10.2327C6.91239 10.2322 6.86206 10.2674 6.8463 10.3501C6.83579 10.405 6.84141 10.4631 6.83408 10.5189C6.83164 10.5377 6.81466 10.5638 6.79817 10.5698C6.71095 10.6019 6.6219 10.6294 6.53309 10.657C6.43145 10.6886 6.33935 10.7443 6.27155 10.8199C6.12056 10.9884 6.05228 11.1883 6.09234 11.4193C6.1224 11.5924 6.19764 11.7397 6.34936 11.8284C6.47042 11.8993 6.60455 11.9491 6.73563 12.0013C6.83494 12.0408 6.87122 12.0799 6.87195 12.1845C6.87317 12.3575 6.8733 12.5304 6.87256 12.7033C6.87256 12.7305 6.86584 12.7578 6.86194 12.7872H6.86181Z" fill="#0621FD"/>
<path d="M9.8667 14.0589C9.9097 14.0621 9.93511 14.0654 9.96064 14.0656C10.1336 14.0667 10.3067 14.0667 10.4797 14.0679C10.8431 14.0705 11.2066 14.0751 11.5701 14.0754C11.6683 14.0754 11.7666 14.0639 11.8648 14.0556C11.9075 14.0519 11.9497 14.0429 11.9921 14.0363C12.1083 14.0182 12.1971 13.915 12.2096 13.7834C12.2254 13.6156 12.2434 13.4471 12.2438 13.2789C12.2444 13.0463 12.2287 12.8139 12.2218 12.5811C12.2162 12.3925 12.2142 12.2038 12.2078 12.0153C12.2064 11.9735 12.1932 11.9322 12.1861 11.8944C12.194 11.8619 12.2078 11.829 12.2091 11.7959C12.2152 11.6176 12.2163 11.439 12.2227 11.2605C12.2333 10.9695 12.2479 10.6788 12.2582 10.3879C12.2645 10.207 12.2688 10.0259 12.2686 9.84482C12.2683 9.64155 12.2616 9.43828 12.2582 9.23501C12.2501 8.75811 12.2403 8.28121 12.2364 7.80418C12.2357 7.71146 12.2645 7.61887 12.2679 7.52578C12.27 7.46886 12.2913 7.42268 12.3114 7.37321C12.3818 7.1995 12.5322 7.14197 12.6968 7.10569C12.7624 7.09127 12.8286 7.07258 12.895 7.07087C13.0505 7.0666 13.2061 7.07002 13.3617 7.0727C13.6294 7.07735 13.897 7.08235 14.1647 7.09017C14.2917 7.09384 14.3953 7.14184 14.4913 7.23395C14.559 7.29882 14.5564 7.37614 14.575 7.44638C14.6068 7.56646 14.6191 7.69314 14.6267 7.81786C14.6346 7.94845 14.6281 8.08001 14.6262 8.21109C14.6244 8.33654 14.6173 8.462 14.6179 8.58745C14.6184 8.71657 14.6292 8.84582 14.6285 8.97494C14.627 9.25394 14.6208 9.53295 14.6169 9.81208C14.6121 10.1474 14.6068 10.4826 14.6042 10.8179C14.6038 10.8606 14.6261 10.9036 14.625 10.9461C14.6226 11.037 14.6081 11.1275 14.6064 11.2182C14.6057 11.2529 14.6262 11.2879 14.6382 11.3263C14.6329 11.3439 14.6176 11.3711 14.6179 11.398C14.6201 11.6683 14.6245 11.9384 14.6291 12.2086C14.6325 12.4093 14.6363 12.6101 14.6415 12.8108C14.6489 13.1052 14.6558 13.3996 14.667 13.6938C14.6716 13.8144 14.7039 13.9269 14.8179 13.994C14.8482 14.0118 14.8835 14.0294 14.9173 14.0314C15.1053 14.0426 15.2935 14.0511 15.4819 14.0562C15.5835 14.059 15.6854 14.0548 15.7871 14.0507C15.8131 14.0496 15.8387 14.0365 15.8623 14.037C15.9169 14.0392 15.9715 14.044 16.0261 14.0429C16.1494 14.0406 16.2726 14.0348 16.396 14.0314C16.558 14.0269 16.7201 14.0239 16.8821 14.0184C16.928 14.0169 16.9738 14.0087 17.03 14.016C16.9993 14.0563 16.967 14.0954 16.9383 14.1371C16.8769 14.2261 16.8211 14.3192 16.7564 14.4057C16.6709 14.5199 16.5779 14.6286 16.4902 14.7413C16.4307 14.8176 16.3744 14.8964 16.3173 14.9744C16.1758 15.1681 16.0286 15.3568 15.8622 15.5304C15.8053 15.5898 15.7621 15.6621 15.709 15.7255C15.6841 15.7553 15.6474 15.7749 15.6217 15.8041C15.5584 15.8761 15.4985 15.9511 15.437 16.0246C15.3712 16.1033 15.3034 16.1803 15.24 16.2606C15.1895 16.3248 15.1466 16.3949 15.0956 16.4587C15.0072 16.5691 14.9129 16.6749 14.8253 16.786C14.7402 16.8942 14.6597 17.0058 14.5788 17.1172C14.5013 17.224 14.4276 17.3336 14.3494 17.4398C14.2609 17.5602 14.1681 17.6772 14.0797 17.7976C14.0053 17.899 13.9091 17.9805 13.8298 18.0765C13.7545 18.1679 13.6522 18.2199 13.5616 18.2889C13.5036 18.3332 13.3995 18.3198 13.3393 18.2809C13.0772 18.111 12.892 17.8681 12.7026 17.629C12.4828 17.3516 12.2673 17.0708 12.0484 16.7926C11.974 16.6982 11.8961 16.6065 11.8173 16.5158C11.7521 16.4407 11.6799 16.3716 11.6166 16.295C11.5348 16.1959 11.4602 16.0908 11.3799 15.9906C11.3014 15.8928 11.2206 15.7968 11.1385 15.7021C11.0928 15.6495 11.0392 15.6034 10.9945 15.5499C10.9446 15.4903 10.9031 15.4237 10.854 15.3635C10.7857 15.28 10.7135 15.1997 10.6437 15.1173C10.634 15.1056 10.6303 15.089 10.6209 15.0769C10.5227 14.9517 10.4221 14.8281 10.3256 14.7017C10.2495 14.602 10.1786 14.4984 10.1044 14.3971C10.0365 14.3044 9.96711 14.2127 9.89932 14.1198C9.88747 14.1037 9.88026 14.0842 9.86694 14.0584L9.8667 14.0589Z" fill="#0621FD"/>
<path d="M15.1907 8.30608C15.2866 8.31353 15.3642 8.32098 15.4418 8.32489C15.4693 8.32636 15.4972 8.31695 15.5249 8.31683C15.7794 8.31561 16.0339 8.31976 16.2882 8.31328C16.5216 8.3073 16.7547 8.29056 16.9879 8.27774C17.1183 8.27053 17.2488 8.26088 17.3793 8.25379C17.476 8.24854 17.5729 8.24207 17.6696 8.24219C17.7787 8.24243 17.8877 8.24989 17.9968 8.25331C18.0589 8.25526 18.1204 8.24048 18.1838 8.26283C18.212 8.27273 18.2511 8.25086 18.2855 8.24524C18.2987 8.24304 18.3199 8.24023 18.3253 8.2472C18.3593 8.29081 18.406 8.27615 18.449 8.27786C18.5727 8.28275 18.6965 8.28629 18.8202 8.29142C18.8702 8.2935 18.8789 8.34053 18.8899 8.37229C18.91 8.43043 18.9142 8.49383 18.9304 8.55345C18.9994 8.80741 19.119 9.03743 19.2876 9.23753C19.4017 9.37288 19.5292 9.49723 19.6835 9.59142C19.8376 9.68536 19.9967 9.7661 20.1699 9.81692C20.2505 9.84062 20.3323 9.86041 20.4144 9.87763C20.4606 9.88728 20.4679 9.91941 20.4698 9.95532C20.4741 10.0357 20.4777 10.1163 20.478 10.1968C20.4782 10.2429 20.4691 10.2889 20.4687 10.3351C20.4685 10.3639 20.4771 10.3928 20.4796 10.409C20.4702 10.4497 20.4567 10.4811 20.4567 10.5125C20.4571 10.7739 20.457 11.0354 20.4632 11.2967C20.4689 11.5342 20.4817 11.7714 20.4933 12.0087C20.4944 12.0304 20.5099 12.0514 20.5197 12.0752C20.5038 12.1415 20.4819 12.2122 20.5296 12.2811C20.5324 12.2852 20.5341 12.2911 20.5341 12.2961C20.5337 12.4078 20.5343 12.5194 20.5323 12.6311C20.5279 12.8625 20.5216 13.0939 20.5172 13.3254C20.5168 13.3486 20.5275 13.3721 20.5273 13.3953C20.527 13.4196 20.5202 13.4439 20.5153 13.468C20.5127 13.4808 20.5053 13.493 20.5049 13.5057C20.5029 13.5736 20.5038 13.6417 20.5001 13.7096C20.4996 13.7194 20.4805 13.7352 20.4691 13.7361C20.214 13.7549 20.0006 13.8785 19.7903 14.0073C19.5786 14.1368 19.4021 14.3058 19.2637 14.5114C19.2053 14.598 19.1469 14.6898 19.116 14.7879C19.0895 14.8719 19.0308 14.9386 19.0131 15.0244C18.9952 15.1112 18.9723 15.197 18.9556 15.2839C18.9463 15.3328 18.922 15.3515 18.873 15.3513C18.745 15.3509 18.6168 15.3526 18.4887 15.3559C18.2743 15.3614 18.06 15.3673 17.8458 15.3756C17.6623 15.3827 17.4789 15.3938 17.2955 15.4021C17.1133 15.4103 16.9311 15.4171 16.7488 15.4243C16.7288 15.425 16.7087 15.4243 16.6836 15.4243C16.7107 15.3817 16.7353 15.3432 16.7597 15.3047C16.7581 15.3041 16.7565 15.3036 16.7549 15.303C16.7709 15.2803 16.7857 15.2565 16.8034 15.2351C16.8193 15.2157 16.8397 15.2 16.8558 15.1807C16.8967 15.1315 16.9374 15.082 16.9765 15.0313C17.091 14.8827 17.2063 14.7346 17.3177 14.5837C17.3557 14.5323 17.3796 14.4706 17.4166 14.4183C17.4439 14.3799 17.4858 14.3519 17.5144 14.3141C17.5581 14.2562 17.5928 14.1916 17.6373 14.1344C17.6628 14.1016 17.7044 14.0813 17.7306 14.0487C17.7788 13.9888 17.8279 13.9279 17.8642 13.8607C17.9445 13.7119 17.8378 13.5167 17.6751 13.4833C17.5737 13.4626 17.4694 13.4494 17.3661 13.4468C17.1524 13.4416 16.9385 13.4427 16.7249 13.4468C16.4984 13.4513 16.272 13.4618 16.0456 13.471C15.8943 13.4771 15.7416 13.4746 15.5926 13.4962C15.487 13.5116 15.3861 13.4759 15.283 13.4935C15.2414 13.5006 15.2265 13.4822 15.2261 13.4389C15.2237 13.1587 15.2193 12.8783 15.2144 12.5981C15.2113 12.4197 15.2182 12.2402 15.1995 12.0633C15.1784 11.8642 15.1999 11.6664 15.1908 11.4681C15.163 10.8606 15.1812 10.2529 15.1808 9.64529C15.1808 9.54145 15.1868 9.43774 15.188 9.33391C15.1897 9.19318 15.19 9.05246 15.1902 8.91173C15.1906 8.7153 15.1902 8.51888 15.1902 8.30583L15.1907 8.30608Z" fill="#0621FD"/>
<path d="M3.1164 11.5945C3.10601 11.648 3.0949 11.6984 3.12715 11.7508C3.13362 11.7611 3.13032 11.7776 3.1313 11.7913C3.13435 11.8311 3.13729 11.871 3.14071 11.9108C3.14132 11.9187 3.14523 11.9264 3.14523 11.9342C3.14571 12.0288 3.13765 12.1242 3.14755 12.2178C3.18102 12.5348 3.171 12.8526 3.17344 13.1702C3.17369 13.2093 3.18346 13.2483 3.18859 13.2874C3.18945 13.2945 3.19226 13.3049 3.18871 13.3083C3.13729 13.3577 3.16477 13.421 3.15854 13.4781C3.15378 13.5217 3.14804 13.5654 3.14681 13.6091C3.14193 13.7758 3.14449 13.9412 3.20252 14.1013C3.23843 14.2004 3.30183 14.2574 3.40652 14.2792C3.55763 14.3106 3.71094 14.339 3.85606 14.3897C4.08156 14.4685 4.26724 14.6116 4.43044 14.7865C4.57459 14.941 4.65619 15.125 4.72521 15.3211C4.76613 15.4374 4.75844 15.559 4.79484 15.6743C4.82782 15.7788 4.87595 15.861 4.99847 15.8673C5.07385 15.8713 5.14922 15.8736 5.22471 15.8765C5.22874 15.8766 5.23338 15.875 5.2368 15.8765C5.39573 15.9452 5.56919 15.9129 5.73288 15.9485C5.7407 15.9502 5.74913 15.9494 5.75719 15.9494C5.97512 15.9489 6.19317 15.9494 6.41098 15.9466C6.44299 15.9463 6.47475 15.93 6.50651 15.921C6.51213 15.9194 6.51958 15.9138 6.52263 15.9157C6.6057 15.9687 6.69219 15.9161 6.77709 15.9233C6.83804 15.9284 6.90071 15.9191 6.96191 15.9114C6.98145 15.909 6.99917 15.891 7.01749 15.8862C7.22076 15.8959 7.42342 15.8876 7.6604 15.8551C7.70939 15.8725 7.79392 15.8808 7.87638 15.833C7.88102 15.8303 7.8875 15.8296 7.89299 15.8298C8.02553 15.8367 8.15795 15.8461 8.29049 15.8505C8.48509 15.8568 8.67993 15.8603 8.87465 15.8632C8.90165 15.8636 8.92864 15.8522 8.95601 15.8493C8.97164 15.8476 8.98838 15.8498 9.00377 15.8537C9.02832 15.8598 9.05214 15.8752 9.07633 15.8753C9.40408 15.8774 9.73183 15.878 10.0595 15.877C10.0896 15.877 10.1197 15.8632 10.1498 15.8564C10.1595 15.8542 10.1711 15.8498 10.1792 15.8529C10.299 15.8997 10.4209 15.8742 10.5426 15.8666C10.5582 15.8656 10.587 15.8746 10.5889 15.8832C10.6089 15.9784 10.6919 16.0277 10.7434 16.0994C10.8036 16.1832 10.8714 16.2617 10.9387 16.3401C10.9539 16.3577 10.9805 16.3655 10.9924 16.3838C11.0113 16.4068 11.031 16.4291 11.0489 16.4528C11.0636 16.4721 11.0752 16.4938 11.0902 16.5127C11.1365 16.5713 11.1842 16.6288 11.2303 16.6875C11.2381 16.6974 11.2412 16.711 11.2483 16.7268C11.2342 16.7288 11.2267 16.7305 11.2192 16.7306C11.0228 16.7342 10.8262 16.7359 10.6298 16.7416C10.3993 16.7483 10.1688 16.7588 9.93827 16.7675C9.83542 16.7714 9.73256 16.7766 9.6297 16.7781C9.04237 16.7869 8.45516 16.7956 7.86783 16.8026C7.62571 16.8055 7.3836 16.8076 7.14148 16.8038C6.74606 16.7977 6.35076 16.7803 5.95546 16.7806C5.81168 16.7806 5.66716 16.7913 5.52265 16.7918C5.40953 16.7922 5.29654 16.7987 5.18354 16.8037C5.01045 16.8113 4.83735 16.8198 4.66425 16.8279C4.56982 16.8323 4.4754 16.8383 4.38085 16.8403C4.06336 16.8474 3.74575 16.8516 3.42826 16.8595C3.18798 16.8656 2.95478 16.8247 2.73209 16.7405C2.58013 16.6831 2.44013 16.5954 2.34974 16.4532C2.30845 16.3882 2.28866 16.31 2.25091 16.2425C2.18275 16.1207 2.19142 15.9838 2.17261 15.8538C2.156 15.7396 2.17261 15.6205 2.17359 15.5036C2.17407 15.4485 2.18776 15.3908 2.1461 15.3423C2.14256 15.3382 2.14463 15.3256 2.1483 15.3193C2.21988 15.1979 2.17872 15.0656 2.17579 14.9397C2.17493 14.9017 2.17041 14.8577 2.16919 14.8167C2.16137 14.5578 2.16846 14.2976 2.14354 14.0406C2.12448 13.8439 2.14317 13.6495 2.13596 13.4541C2.12875 13.257 2.13572 13.0592 2.13547 12.8618C2.13523 12.7112 2.13841 12.5602 2.13071 12.4099C2.12521 12.303 2.12582 12.196 2.10115 12.0887C2.08295 12.0093 2.10713 11.9208 2.10677 11.8364C2.10628 11.7335 2.10909 11.6295 2.0937 11.5284C2.07427 11.4013 2.09211 11.275 2.08258 11.1488C2.08001 11.1143 2.06707 11.0807 2.06377 11.0463C2.06157 11.0237 2.07012 11.0004 2.07061 10.9773C2.07244 10.8766 2.07537 10.776 2.07354 10.6753C2.07024 10.4987 2.07452 10.3209 2.05473 10.1461C2.04276 10.0402 2.05509 9.93648 2.04752 9.83204C2.0386 9.70793 2.03359 9.58345 2.02138 9.4597C1.99438 9.18681 2.01735 8.91342 2.00965 8.64027C2.00696 8.54365 2.00049 8.44702 2 8.35039C1.99988 8.32108 2.01637 8.29213 2.02174 8.26232C2.05351 8.08372 2.06645 7.90183 2.1323 7.72959C2.18971 7.57922 2.28524 7.46756 2.42022 7.37912C2.55814 7.28885 2.7123 7.26185 2.86707 7.22691C3.00609 7.19552 3.14718 7.20346 3.28717 7.19332C3.43303 7.18269 3.58023 7.1899 3.72682 7.19124C4.13311 7.19479 4.53929 7.20089 4.94558 7.20248C5.11184 7.20321 5.27821 7.19613 5.44447 7.1899C5.46805 7.18904 5.49101 7.17341 5.51178 7.17573C5.60144 7.17573 5.69098 7.17622 5.78065 7.17536C5.80056 7.17512 5.82023 7.16877 5.84014 7.16803C5.99003 7.16303 6.13991 7.15912 6.28992 7.15423C6.53277 7.14641 6.77586 7.14177 7.01847 7.12919C7.82006 7.08753 8.62142 7.1342 9.42277 7.13114C9.7912 7.1298 10.1597 7.13139 10.5282 7.12931C10.6825 7.12845 10.8366 7.12284 10.9908 7.11661C11.0213 7.11538 11.0512 7.10097 11.0815 7.09327C11.0914 7.09083 11.1021 7.08924 11.1122 7.08961C11.1795 7.09169 11.2467 7.09449 11.314 7.09682C11.32 7.09706 11.326 7.09486 11.332 7.09462C11.4921 7.08888 11.6523 7.08338 11.8291 7.07715C11.7601 7.23131 11.7218 7.3812 11.7216 7.5571C11.7001 7.58178 11.6716 7.62356 11.7274 7.66937C11.7325 7.67352 11.73 7.69917 11.7256 7.70088C11.67 7.72189 11.6857 7.76868 11.6846 7.80899C11.6817 7.9088 11.6819 7.90647 11.5801 7.91136C11.546 7.91295 11.4972 7.88522 11.4798 7.94544C11.4786 7.94972 11.4494 7.95302 11.4397 7.94679C11.3663 7.89878 11.2854 7.92883 11.2087 7.92468C11.1288 7.92028 11.0479 7.93372 10.9674 7.93567C10.8821 7.93775 10.7965 7.93543 10.711 7.9353C10.6823 7.9353 10.6503 7.92492 10.6341 7.9634C10.6318 7.9689 10.6125 7.97097 10.6022 7.9689C10.5656 7.9612 10.5295 7.943 10.4932 7.94288C9.65255 7.93921 8.81174 7.93738 7.97105 7.93506C7.93233 7.93506 7.89348 7.93188 7.85512 7.93481C7.83863 7.93604 7.82385 7.95228 7.80699 7.95644C7.7927 7.95998 7.77438 7.96047 7.76155 7.95448C7.73138 7.94019 7.62021 7.95387 7.59004 7.96829C7.57245 7.97672 7.54484 7.9623 7.52176 7.96193C7.38836 7.95961 7.25496 7.95815 7.12157 7.95754C7.11131 7.95754 7.09506 7.96316 7.09188 7.97061C7.07637 8.00701 7.05487 7.98918 7.02836 7.98624C6.94664 7.9772 6.85331 7.95118 6.7849 7.98014C6.72749 8.00444 6.68852 7.98441 6.64173 7.98466C6.45239 7.98563 6.26305 7.9838 6.07383 7.98575C5.87129 7.98783 5.66863 7.99467 5.46609 7.99602C5.37973 7.99663 5.293 7.98185 5.207 7.98637C5.09889 7.99211 4.99041 8.00481 4.88426 8.02521C4.80168 8.04097 4.74121 8.13662 4.74231 8.22176C4.74243 8.23361 4.72704 8.24497 4.72423 8.25768C4.71739 8.28822 4.71434 8.31961 4.70872 8.35052C4.70114 8.39229 4.69394 8.43407 4.68441 8.47536C4.67818 8.50224 4.66682 8.52801 4.66047 8.55489C4.62467 8.7066 4.5675 8.84892 4.48041 8.97902C4.46037 9.00894 4.45451 9.04852 4.43411 9.07796C4.41725 9.10215 4.38683 9.11644 4.36509 9.13782C4.28459 9.21722 4.21154 9.30579 4.12346 9.37529C4.05273 9.43112 3.9638 9.46398 3.88354 9.50796C3.82271 9.54118 3.76151 9.56916 3.69396 9.59029C3.6341 9.60898 3.57168 9.61301 3.51451 9.63463C3.4698 9.65161 3.42277 9.64832 3.38087 9.66078C3.31844 9.67934 3.25077 9.70866 3.20765 9.75447C3.17076 9.79356 3.155 9.86099 3.14804 9.91816C3.13826 9.99866 3.15036 10.0815 3.14425 10.1627C3.13264 10.3177 3.1131 10.4721 3.10027 10.6272C3.09477 10.6939 3.096 10.7612 3.0971 10.8282C3.09966 10.988 3.1054 11.1478 3.10687 11.3076C3.10748 11.3757 3.09819 11.4439 3.09783 11.5122C3.09771 11.5397 3.10956 11.5672 3.11591 11.5946L3.1164 11.5945Z" fill="#0621FD"/>
<path d="M21.8941 9.67602C21.8502 9.76605 21.8642 9.94696 21.9091 9.96908C21.9008 10.0023 21.8868 10.0325 21.8868 10.0626C21.8853 10.5512 21.8838 11.0397 21.8865 11.5282C21.8872 11.6651 21.8848 11.806 21.9161 11.9374C21.9359 12.0207 21.9158 12.0983 21.929 12.179C21.9482 12.296 21.9414 12.4174 21.9466 12.5367C21.9495 12.6032 21.9515 12.67 21.9603 12.7358C21.9635 12.7593 21.9857 12.7802 21.9928 12.7916C21.9846 12.8243 21.9715 12.8516 21.9718 12.8789C21.9752 13.1998 21.9807 13.5207 21.9853 13.8416C21.986 13.8802 21.9814 13.919 21.984 13.9575C21.9856 13.981 21.9962 14.0039 22 14.0174C21.9897 14.0583 21.9724 14.0959 21.9726 14.1334C21.9729 14.2 21.9903 14.2668 21.9889 14.3331C21.9862 14.4469 21.9725 14.5602 21.9673 14.674C21.9641 14.7451 21.9681 14.8164 21.9687 14.8876C21.9695 14.969 21.9682 15.0505 21.9718 15.1317C21.9731 15.1633 21.9851 15.1946 21.9935 15.2317C21.9912 15.2559 21.9844 15.2889 21.9855 15.3215C21.9925 15.5325 21.9968 15.7427 21.9353 15.9487C21.8931 16.0896 21.8232 16.2116 21.7111 16.3077C21.6551 16.3557 21.6035 16.4121 21.54 16.4466C21.4604 16.4898 21.3731 16.5264 21.2848 16.5442C21.134 16.5745 20.9805 16.5964 20.8272 16.6061C20.6482 16.6176 20.4683 16.6136 20.2887 16.6142C20.1867 16.6146 20.0847 16.613 19.9827 16.6088C19.7993 16.6014 19.6161 16.5834 19.4329 16.5841C19.1326 16.5854 18.8325 16.5972 18.5323 16.6061C18.4521 16.6084 18.3655 16.5988 18.2933 16.6257C18.1942 16.6626 18.1024 16.6212 18.0069 16.6304C17.8264 16.6479 17.643 16.6378 17.4632 16.6593C17.2627 16.6832 17.0636 16.658 16.8639 16.6667C16.6627 16.6754 16.4609 16.6738 16.2595 16.6749C16.0559 16.6761 15.8526 16.6751 15.641 16.6751C15.6506 16.6588 15.6584 16.6398 15.671 16.6251C15.7916 16.483 15.913 16.3417 16.034 16.1998C16.0993 16.1231 16.1639 16.0458 16.2288 15.9687C16.2637 15.9273 16.2955 15.8826 16.335 15.8461C16.3492 15.8329 16.3816 15.8373 16.4057 15.8369C16.6357 15.8331 16.8657 15.8318 17.0955 15.8253C17.1477 15.8238 17.1992 15.805 17.2511 15.7943C17.255 15.7934 17.2593 15.7916 17.2629 15.7924C17.4535 15.8387 17.644 15.7855 17.8346 15.7902C17.8915 15.7917 17.9487 15.7933 18.0055 15.7899C18.0314 15.7883 18.0564 15.7744 18.082 15.7668C18.0944 15.7631 18.1076 15.7582 18.1199 15.7595C18.1589 15.7635 18.1976 15.7747 18.2366 15.7752C18.4482 15.7777 18.66 15.7829 18.8713 15.7756C18.9351 15.7734 19.0093 15.7883 19.0666 15.7367C19.0709 15.7328 19.084 15.7389 19.093 15.74C19.1051 15.7415 19.1176 15.7453 19.1292 15.7436C19.216 15.7301 19.3086 15.6267 19.3221 15.5364C19.3332 15.461 19.362 15.3866 19.3623 15.3117C19.3625 15.2336 19.4078 15.1749 19.4237 15.1048C19.4649 14.9219 19.5654 14.7711 19.6822 14.6289C19.7198 14.5831 19.7493 14.5292 19.7916 14.4889C19.8295 14.4527 19.882 14.4326 19.925 14.4012C20.1469 14.2395 20.3952 14.1489 20.667 14.1172C20.8042 14.1012 20.8985 13.9946 20.8953 13.8512C20.8939 13.7869 20.922 13.7163 20.8737 13.6559C20.8718 13.6535 20.8763 13.645 20.8788 13.6398C20.9272 13.5395 20.9168 13.4315 20.9207 13.3251C20.9286 13.1168 20.9391 12.9085 20.9459 12.7001C20.9468 12.6745 20.9311 12.6485 20.9249 12.6222C20.9194 12.5989 20.9226 12.5773 20.9266 12.5527C20.9365 12.493 20.9184 12.4287 20.9128 12.3662C20.9111 12.3474 20.9149 12.3281 20.914 12.309C20.9118 12.2607 20.914 12.2113 20.9035 12.1649C20.8975 12.1385 20.9027 12.1193 20.9055 12.0952C20.9127 12.0332 20.909 11.9698 20.9066 11.907C20.8959 11.6319 20.8781 11.3569 20.8744 11.0817C20.8707 10.7928 20.8794 10.5038 20.884 10.2149C20.8857 10.1032 20.894 9.99167 20.8935 9.88014C20.893 9.7856 20.8654 9.6963 20.8125 9.61738C20.7603 9.53969 20.683 9.50085 20.5927 9.48301C20.5124 9.46725 20.4294 9.47287 20.3504 9.44074C20.2949 9.41815 20.2307 9.41851 20.1735 9.39897C20.1287 9.3837 20.0888 9.35389 20.0469 9.33019C19.9958 9.30112 19.9391 9.27852 19.8951 9.24114C19.7947 9.15575 19.6971 9.06658 19.6046 8.97252C19.4701 8.83582 19.4062 8.65833 19.3312 8.48645C19.2899 8.39178 19.2887 8.29308 19.275 8.19633C19.2532 8.0418 19.1333 7.89802 18.9701 7.89765C18.9105 7.89765 18.8505 7.90083 18.7914 7.89533C18.7255 7.88923 18.6603 7.87457 18.5946 7.86467C18.5786 7.86223 18.5621 7.86382 18.5459 7.86321C18.4391 7.85917 18.3322 7.85563 18.2255 7.85087C18.07 7.8439 17.9146 7.83254 17.7591 7.83035C17.7031 7.82961 17.6469 7.85026 17.5906 7.86052C17.5789 7.86259 17.5663 7.86333 17.5545 7.86186C17.466 7.85075 17.3784 7.83316 17.2905 7.87225C17.2688 7.8819 17.2364 7.86333 17.209 7.86394C17.102 7.86638 16.9915 7.85649 16.8893 7.88043C16.812 7.89851 16.7403 7.87334 16.6673 7.88788C16.6429 7.89277 16.6192 7.90376 16.5949 7.90523C16.5641 7.90706 16.5328 7.90046 16.5018 7.90034C16.3695 7.89985 16.2372 7.90059 16.1049 7.90071C15.8362 7.90107 15.5676 7.90132 15.2988 7.90169C15.2826 7.90169 15.2651 7.89839 15.2503 7.90327C15.2012 7.9194 15.1831 7.88996 15.1798 7.85184C15.1702 7.74019 15.1654 7.62817 15.1572 7.51652C15.1556 7.49527 15.1465 7.47475 15.1425 7.45361C15.1271 7.37262 15.1234 7.28687 15.0933 7.21186C15.0725 7.1597 15.0617 7.10656 15.0456 7.05416C15.0409 7.03913 15.0374 7.01055 15.0427 7.0081C15.059 7.00041 15.0805 6.99845 15.099 7.00114C15.1374 7.00664 15.1753 7.02337 15.2136 7.02374C16.0318 7.0318 16.8501 7.03779 17.6683 7.04524C17.9098 7.04744 18.1512 7.05428 18.3927 7.05697C18.7215 7.06075 19.0503 7.06405 19.3791 7.06466C19.5795 7.06503 19.7799 7.0599 19.9802 7.05733C19.9884 7.05733 19.9982 7.06027 20.0044 7.05685C20.0912 7.00957 20.1819 7.05648 20.2699 7.04463C20.3103 7.03913 20.3499 7.02814 20.3898 7.01922C20.3973 7.01751 20.4063 7.00859 20.4111 7.01079C20.5132 7.05733 20.6185 7.01885 20.722 7.02215C20.8935 7.02777 21.0657 7.03107 21.2303 7.08311C21.4083 7.1393 21.5628 7.23214 21.6776 7.38753C21.7481 7.48281 21.7706 7.59214 21.7978 7.70074C21.8238 7.80408 21.8511 7.9095 21.8571 8.01517C21.8649 8.15553 21.8527 8.29699 21.849 8.43796C21.8486 8.45017 21.8485 8.46239 21.8485 8.4746C21.8485 8.75544 21.8418 9.03665 21.8522 9.31712C21.8557 9.4135 21.8544 9.51037 21.862 9.60663C21.8637 9.62826 21.8805 9.64853 21.894 9.67687L21.8941 9.67602Z" fill="#0621FD"/>
<path d="M7.18213 12.1167C7.24809 12.1533 7.32041 12.1822 7.37856 12.2286C7.48361 12.3123 7.48948 12.4314 7.46004 12.551C7.42913 12.6763 7.33617 12.7419 7.2156 12.7696C7.20192 12.7728 7.16759 12.7494 7.16735 12.7379C7.16429 12.5372 7.16515 12.3363 7.16515 12.1355C7.17077 12.1293 7.17639 12.1229 7.18201 12.1167H7.18213Z" fill="#0621FD"/>
<path d="M6.84145 10.9645C6.84145 11.1602 6.84218 11.3485 6.83937 11.5369C6.83925 11.5473 6.80346 11.5696 6.79295 11.5654C6.69913 11.5266 6.61106 11.4772 6.57099 11.3761C6.54399 11.308 6.52995 11.2299 6.57869 11.1718C6.64123 11.097 6.72027 11.0358 6.79368 10.9706C6.80211 10.9631 6.82044 10.9667 6.84145 10.9644V10.9645Z" fill="#0621FD"/>
</svg>
