<svg width="24" height="24" viewBox="0 0 24 24" fill="none" xmlns="http://www.w3.org/2000/svg">
<path d="M16.628 15.2349C16.4363 15.3801 16.2139 15.4342 16.0003 15.5101C15.7662 15.5934 15.5272 15.6543 15.2795 15.6731C15.1289 15.6845 14.9771 15.6897 14.8263 15.6844C14.7372 15.6813 14.6467 15.6598 14.561 15.6332C14.3721 15.5745 14.1858 15.5051 14.0235 15.3893C13.8331 15.2534 13.6604 15.0953 13.5044 14.9212C13.4061 14.8115 13.3183 14.6918 13.2319 14.5721C13.2012 14.5295 13.1918 14.4723 13.1679 14.4242C13.1464 14.3807 13.1203 14.339 13.0917 14.2998C13.0813 14.2855 13.0583 14.2735 13.0405 14.2729C12.7661 14.2638 12.4918 14.2557 12.2173 14.2506C12.1727 14.2497 12.1251 14.2569 12.0841 14.2735C12.0533 14.2859 12.0265 14.316 12.0057 14.3439C11.9211 14.4574 11.8497 14.5823 11.7547 14.6859C11.607 14.8469 11.4415 14.9915 11.2884 15.1478C11.1504 15.2886 10.9837 15.39 10.8198 15.4928C10.7191 15.5561 10.5974 15.586 10.4851 15.6309C10.2463 15.7265 9.99587 15.7361 9.7444 15.7234C9.58428 15.7152 9.43017 15.667 9.27393 15.6314C9.07772 15.5866 8.90644 15.4897 8.72853 15.4055C8.68618 15.3855 8.65285 15.347 8.61238 15.3218C8.60161 15.315 8.57128 15.3201 8.56464 15.3297C8.53169 15.3774 8.502 15.4278 8.47406 15.4788C8.39788 15.6174 8.32584 15.7583 8.24678 15.8953C8.18613 16.0004 8.11484 16.0992 8.0532 16.2037C7.95146 16.3763 7.85336 16.5511 7.75437 16.7253C7.70401 16.814 7.65564 16.9038 7.60565 16.9926C7.56017 17.0733 7.51795 17.1562 7.46633 17.2328C7.42423 17.2953 7.3686 17.3485 7.32211 17.4084C7.17903 17.593 6.99184 17.7288 6.80553 17.8625C6.6543 17.971 6.49242 18.0671 6.32704 18.1528C6.2248 18.2058 6.10878 18.2352 5.99614 18.2644C5.83075 18.3073 5.66148 18.3308 5.49008 18.3179C5.37619 18.3094 5.2628 18.2935 5.14928 18.279C5.03151 18.2639 4.91336 18.25 4.79646 18.2292C4.7278 18.217 4.65864 18.1984 4.59436 18.1716C4.4707 18.1201 4.34641 18.0679 4.22976 18.0027C4.1066 17.9338 3.99032 17.8518 3.8743 17.771C3.81604 17.7304 3.76054 17.6837 3.71117 17.6327C3.61232 17.5307 3.51747 17.4247 3.4438 17.3018C3.38102 17.1969 3.31374 17.0945 3.25498 16.9873C3.23168 16.945 3.2313 16.8906 3.21113 16.8459C3.13633 16.6801 3.10388 16.5023 3.06303 16.3274C3.04424 16.2468 3.04875 16.161 3.03935 16.0779C3.02908 15.9879 3.01392 15.8983 3.00302 15.8083C3.00076 15.7894 3.01003 15.7694 3.00953 15.7501C3.00677 15.6467 2.99888 15.5434 3.00013 15.4402C3.00089 15.3802 3.0158 15.3204 3.02331 15.2604C3.02832 15.2201 3.03346 15.1796 3.03471 15.1391C3.03697 15.0631 3.02106 14.9825 3.04098 14.9117C3.06453 14.8279 3.06366 14.7472 3.06767 14.6631C3.07205 14.5711 3.10726 14.4807 3.12229 14.3886C3.13319 14.3216 3.12931 14.2522 3.13921 14.1849C3.14535 14.143 3.16878 14.1041 3.17692 14.0624C3.18544 14.0189 3.18118 13.9729 3.1892 13.9293C3.19797 13.8812 3.2189 13.8352 3.22629 13.7871C3.23493 13.7307 3.23168 13.6726 3.23944 13.6159C3.24571 13.571 3.2645 13.5277 3.27102 13.4826C3.28129 13.4121 3.28518 13.3407 3.29382 13.2698C3.29595 13.252 3.30998 13.2356 3.31161 13.2179C3.32414 13.0822 3.35471 12.9495 3.37676 12.8154C3.38391 12.7721 3.37075 12.7255 3.37701 12.6818C3.38553 12.6224 3.40947 12.5651 3.41661 12.5058C3.42989 12.3955 3.47274 12.2887 3.45219 12.1734C3.44643 12.1412 3.46735 12.1049 3.47374 12.0701C3.49993 11.9259 3.52649 11.7818 3.5503 11.6373C3.5726 11.5021 3.58976 11.3661 3.61244 11.2309C3.62647 11.1478 3.64777 11.0661 3.66381 10.9834C3.68549 10.8719 3.70453 10.7598 3.72608 10.6483C3.75026 10.5231 3.77432 10.3979 3.80126 10.2734C3.83283 10.1274 3.86566 9.98169 3.90137 9.8366C3.93419 9.70329 3.96927 9.57048 4.00736 9.43855C4.04896 9.29434 4.08855 9.14887 4.1408 9.00829C4.22024 8.79467 4.30418 8.58217 4.39652 8.37393C4.51555 8.10543 4.67066 7.85672 4.84745 7.6223C4.88943 7.56667 4.94155 7.51881 4.98828 7.46669C5.05456 7.39302 5.11658 7.31496 5.18737 7.24592C5.25127 7.1834 5.32031 7.12401 5.39448 7.07452C5.58956 6.94434 5.78815 6.81942 5.98637 6.69413C6.14411 6.5944 6.32854 6.55694 6.49593 6.48013C6.64227 6.41297 6.80465 6.41247 6.95488 6.35922C7.03945 6.32928 7.13555 6.33379 7.22526 6.31662C7.2943 6.30347 7.3607 6.2754 7.42999 6.26362C7.50905 6.25022 7.59037 6.25034 7.66993 6.23944C7.81727 6.21927 7.96374 6.18406 8.11146 6.17843C8.17148 6.17617 8.22936 6.12743 8.29113 6.1654C8.29414 6.16727 8.2999 6.16702 8.30341 6.16552C8.40928 6.12042 8.5223 6.17554 8.62967 6.14146C8.69445 6.12092 8.76186 6.14435 8.82839 6.13996C8.89905 6.1352 8.97034 6.13783 9.04126 6.13808C9.33983 6.13883 9.63853 6.1481 9.93673 6.13933C11.5306 6.09285 13.1248 6.10275 14.7189 6.09861C14.899 6.09811 15.0804 6.09711 15.2587 6.07543C15.7026 6.02143 16.1469 5.9861 16.5939 6.00527C16.9204 6.0193 17.2447 6.05376 17.5672 6.1124C18.0555 6.2011 18.5298 6.33141 18.9794 6.54278C19.1454 6.62084 19.3083 6.70829 19.4641 6.80527C19.78 7.00173 20.0531 7.24905 20.2953 7.53172C20.4538 7.71665 20.5969 7.91148 20.7033 8.13099C20.7711 8.27094 20.8431 8.40977 20.8966 8.55523C20.9812 8.78565 21.0523 9.0207 21.1028 9.26189C21.1427 9.45196 21.1908 9.6404 21.2398 9.82846C21.2868 10.0089 21.3383 10.1881 21.3904 10.3671C21.4107 10.4366 21.4426 10.5028 21.4609 10.5727C21.487 10.6726 21.5047 10.7747 21.5275 10.8755C21.5604 11.0214 21.5855 11.1698 21.6307 11.3119C21.7054 11.547 21.7099 11.7917 21.7495 12.0315C21.7504 12.0371 21.7529 12.0471 21.7511 12.048C21.6823 12.0815 21.7249 12.1342 21.7293 12.1788C21.7402 12.2885 21.753 12.3978 21.7664 12.5072C21.7831 12.6439 21.8021 12.7804 21.818 12.9171C21.8245 12.9736 21.8254 13.0307 21.829 13.0875C21.8358 13.193 21.8421 13.2984 21.85 13.4038C21.8589 13.5223 21.8703 13.6407 21.8788 13.7594C21.8883 13.893 21.8946 14.0267 21.9045 14.1601C21.9201 14.3736 21.9357 14.5872 21.955 14.8005C21.9664 14.9268 21.9857 15.0524 21.9997 15.1786C22.0018 15.1975 21.9925 15.2174 21.9922 15.237C21.9885 15.42 21.9922 15.6035 21.9808 15.7859C21.9696 15.9654 21.9527 16.1456 21.9211 16.3225C21.8983 16.4507 21.8493 16.5745 21.8087 16.6992C21.6975 17.0413 21.498 17.3303 21.2544 17.5892C21.1719 17.6769 21.075 17.7522 20.9799 17.8269C20.8301 17.9447 20.6543 18.0182 20.4878 18.1079C20.368 18.1725 20.2396 18.2163 20.1119 18.2372C19.9285 18.2673 19.7414 18.2798 19.5508 18.2584C19.3054 18.2309 19.0801 18.1444 18.8598 18.0496C18.7158 17.9875 18.5749 17.9076 18.4594 17.7872C18.3029 17.6239 18.1273 17.4791 17.9639 17.3224C17.9248 17.2849 17.9084 17.2239 17.8692 17.1867C17.797 17.1183 17.7584 17.0283 17.7003 16.9514C17.6486 16.8832 17.5976 16.8139 17.5538 16.7406C17.5097 16.667 17.4767 16.5866 17.4349 16.5115C17.4016 16.4517 17.359 16.3971 17.3261 16.3371C17.3048 16.2983 17.2987 16.2512 17.277 16.2128C17.2223 16.1159 17.1622 16.0219 17.1047 15.9266C17.0395 15.8185 16.9786 15.7075 16.9084 15.6026C16.8451 15.5079 16.7721 15.4197 16.7029 15.3288C16.6806 15.2996 16.6571 15.2714 16.6279 15.2351L16.628 15.2349ZM10.6491 12.4209C10.5325 12.2638 10.3498 12.2575 10.1823 12.2148C10.1014 12.1941 10.0174 12.1744 9.94475 12.1357C9.87396 12.098 9.80003 12.0834 9.73025 12.0979C9.42215 12.1623 9.16517 12.3219 8.95218 12.5506C8.73792 12.7807 8.59609 13.0481 8.60336 13.3699C8.60624 13.4968 8.65147 13.6225 8.67578 13.7491C8.72565 14.009 8.8344 14.2346 9.04264 14.4072C9.32091 14.6377 9.6374 14.753 9.99662 14.6941C10.2609 14.6507 10.513 14.5555 10.7316 14.395C10.9376 14.2437 11.07 14.0374 11.1177 13.7858C11.1571 13.5786 11.1273 13.3696 11.087 13.1661C11.0319 12.8874 10.9455 12.618 10.7555 12.3952C10.7447 12.3826 10.7363 12.3679 10.7273 12.354C10.7006 12.3127 10.6663 12.3107 10.6245 12.3479C10.6369 12.3681 10.6498 12.3892 10.6625 12.4101C10.6582 12.4138 10.6537 12.4174 10.6493 12.421L10.6491 12.4209ZM16.7205 9.43529C16.6807 9.43529 16.641 9.43304 16.6016 9.43567C16.3993 9.44945 16.2337 9.53816 16.126 9.70768C15.9961 9.91165 16.0193 10.2263 16.1675 10.4178C16.3035 10.5936 16.4785 10.7004 16.7086 10.687C16.7971 10.6818 16.8865 10.6684 16.9727 10.6475C17.0888 10.6193 17.2112 10.605 17.3077 10.5202C17.3199 10.5096 17.3618 10.5169 17.3789 10.5304C17.4472 10.584 17.4622 10.6571 17.4373 10.7385C17.4183 10.8001 17.3925 10.8599 17.3767 10.9221C17.3553 11.0066 17.3407 11.0928 17.323 11.1782C17.2849 11.3622 17.3095 11.5288 17.4344 11.6799C17.5671 11.8404 17.7402 11.9138 17.9378 11.9393C18.0895 11.9588 18.2386 11.937 18.3547 11.8299C18.4999 11.6956 18.5692 11.5208 18.5848 11.3241C18.6 11.1345 18.5356 10.9632 18.466 10.7926C18.452 10.7581 18.4365 10.7226 18.4316 10.6862C18.4201 10.5994 18.4648 10.5473 18.5515 10.5518C18.6233 10.5555 18.6953 10.5681 18.7657 10.5835C18.9216 10.6176 19.0765 10.6594 19.2377 10.6505C19.403 10.6414 19.5619 10.5989 19.664 10.4608C19.7845 10.2979 19.8596 10.1206 19.8291 9.90238C19.7965 9.66846 19.5888 9.44494 19.3834 9.38931C19.258 9.35535 19.1312 9.36763 19.0076 9.39294C18.867 9.42163 18.7293 9.46411 18.5898 9.49907C18.5023 9.52099 18.4394 9.47539 18.4488 9.38542C18.4584 9.29333 18.4793 9.20124 18.5066 9.11254C18.553 8.96156 18.5631 8.80594 18.5432 8.65422C18.4976 8.30502 18.224 8.12485 17.9358 8.11032C17.706 8.09867 17.5304 8.21907 17.3991 8.39448C17.2907 8.5392 17.2577 8.7111 17.2939 8.89127C17.3145 8.99338 17.341 9.09424 17.3625 9.19611C17.38 9.2793 17.3948 9.36312 17.4082 9.44694C17.4101 9.4586 17.3996 9.48052 17.3898 9.48428C17.3162 9.5121 17.2436 9.53653 17.161 9.51197C17.0177 9.46925 16.8756 9.41387 16.7206 9.43517L16.7205 9.43529ZM15.1667 14.5925C15.1366 14.6311 15.1259 14.6585 15.1754 14.6591C15.2544 14.6601 15.3346 14.664 15.4123 14.6525C15.6362 14.6193 15.8131 14.4937 15.974 14.3445C16.2051 14.1299 16.3343 13.8522 16.4398 13.5623C16.4624 13.5004 16.4743 13.4326 16.479 13.3667C16.4978 13.1041 16.3972 12.88 16.235 12.6833C16.0314 12.4364 15.7806 12.2499 15.4777 12.1404C15.4103 12.1159 15.3379 12.1005 15.2666 12.0934C15.2081 12.0875 15.1475 12.1043 15.088 12.103C14.9805 12.1006 14.8767 12.1017 14.7827 12.1679C14.643 12.2665 14.4986 12.3585 14.3583 12.4562C14.0742 12.6542 13.9469 12.9352 13.951 13.2739C13.953 13.4392 13.974 13.6057 14.003 13.7687C14.025 13.8927 14.0596 14.0195 14.1525 14.1145C14.4279 14.3966 14.7544 14.5754 15.1667 14.5923V14.5925ZM8.76436 9.96891C8.76323 9.96891 8.76223 9.96866 8.7611 9.96854C8.7611 9.92055 8.76524 9.87219 8.76035 9.8247C8.74695 9.69615 8.69482 9.58264 8.55725 9.55294C8.50262 9.54116 8.448 9.53603 8.3861 9.54981C8.27259 9.57524 8.15293 9.57274 8.03578 9.58201C7.91625 9.59153 7.79672 9.60569 7.67707 9.6082C7.64712 9.60882 7.59112 9.57361 7.59012 9.55294C7.5826 9.3848 7.58047 9.2159 7.58698 9.04763C7.58987 8.97221 7.61718 8.89803 7.63171 8.82286C7.65301 8.71285 7.60816 8.61575 7.55629 8.52679C7.51043 8.44823 7.41721 8.44848 7.33803 8.44711C7.19933 8.44472 7.06013 8.45036 6.92168 8.45963C6.83159 8.46565 6.7499 8.50036 6.71595 8.59295C6.69665 8.64544 6.69515 8.70433 6.68099 8.75909C6.65994 8.84028 6.71006 8.9137 6.69891 8.99714C6.68951 9.0668 6.71783 9.14198 6.73261 9.21402C6.73675 9.23395 6.75942 9.25099 6.76093 9.27041C6.76581 9.3318 6.76293 9.39382 6.76682 9.45534C6.76957 9.50007 6.79338 9.54943 6.78097 9.58802C6.75216 9.67723 6.67172 9.70279 6.55419 9.68588C6.38856 9.66195 6.22242 9.6404 6.0559 9.62423C5.97496 9.61634 5.89265 9.62348 5.81083 9.62286C5.64908 9.62173 5.52253 9.76155 5.54183 9.92256C5.55774 10.0562 5.57503 10.1897 5.59282 10.3231C5.61299 10.4743 5.7106 10.5643 5.86408 10.5607C5.98186 10.5579 6.09963 10.5441 6.21678 10.5304C6.34909 10.5148 6.48027 10.489 6.61283 10.4767C6.70668 10.4681 6.738 10.5029 6.74464 10.5953C6.74552 10.6073 6.75191 10.6192 6.75203 10.6311C6.75303 10.7336 6.75704 10.8362 6.75203 10.9383C6.7489 11.0025 6.72371 11.0657 6.72259 11.1298C6.72033 11.2538 6.72923 11.3781 6.73111 11.5022C6.73224 11.5776 6.80967 11.6675 6.88572 11.6684C6.95626 11.6693 7.02717 11.6635 7.09659 11.6609C7.23466 11.6556 7.37211 11.6267 7.50918 11.6034C7.58586 11.5903 7.64362 11.5339 7.64524 11.4617C7.64788 11.3444 7.64224 11.2266 7.63485 11.1095C7.63034 11.0375 7.58811 10.9694 7.61304 10.8938C7.61593 10.8849 7.61117 10.8733 7.60916 10.863C7.58824 10.7553 7.56593 10.6479 7.54664 10.5399C7.53887 10.4965 7.58749 10.438 7.63109 10.4385C7.76766 10.4404 7.90498 10.4116 8.04067 10.4495C8.05232 10.4528 8.0656 10.45 8.07813 10.45C8.13025 10.45 8.18288 10.446 8.2345 10.4513C8.32584 10.4604 8.4163 10.4785 8.50764 10.4859C8.54021 10.4885 8.57479 10.4722 8.60775 10.4623C8.63919 10.4528 8.67177 10.4439 8.70034 10.4285C8.77501 10.3881 8.75559 10.3071 8.77125 10.2429C8.77839 10.2139 8.75196 10.1783 8.75183 10.1456C8.75158 10.0866 8.75973 10.0277 8.76436 9.96866V9.96891Z" fill="#0621FD"/>
</svg>
