<svg width="24" height="24" viewBox="0 0 24 24" fill="none" xmlns="http://www.w3.org/2000/svg">
<path d="M21.9767 11.0253C21.8541 11.3546 21.7252 11.6522 21.5639 11.9386C21.4342 12.1691 21.2911 12.3885 21.1275 12.5936C21 12.7536 20.848 12.8938 20.7108 13.0463C20.5738 13.1988 20.406 13.3141 20.247 13.4398C20.0936 13.561 19.9306 13.67 19.7765 13.7903C19.4932 14.0114 19.1902 14.2036 18.885 14.3912C18.2389 14.7882 17.5892 15.1796 16.937 15.5669C16.5867 15.7748 16.2324 15.9767 15.8718 16.1659C15.6904 16.261 15.4922 16.325 15.2991 16.3962C15.1405 16.4546 14.9765 16.4648 14.8122 16.4156C14.6607 16.3704 14.5331 16.2813 14.4556 16.1487C14.3158 15.9096 14.1813 15.6655 14.0684 15.4129C13.6077 14.3819 13.1153 13.3668 12.5871 12.3689C12.5335 12.2677 12.4701 12.1718 12.4131 12.0723C12.3968 12.0438 12.3892 12.0102 12.3736 11.9813C12.1671 11.5974 11.9601 11.214 11.7531 10.8304C11.6466 10.6332 11.5417 10.4351 11.4336 10.2387C11.2483 9.90267 11.062 9.56717 10.8741 9.23257C10.8063 9.11163 10.7315 8.99465 10.6624 8.87439C10.6248 8.80906 10.5912 8.7412 10.558 8.67345C10.4765 8.50723 10.3896 8.34308 10.3178 8.17266C10.2788 8.07985 10.2729 7.9799 10.2902 7.87288C10.3265 7.64661 10.4686 7.51035 10.6504 7.40536C10.9378 7.23931 11.2275 7.0774 11.5199 6.92049C11.8531 6.74164 12.1902 6.56982 12.526 6.39592C12.6653 6.32376 12.8042 6.25021 12.9464 6.18407C13.1277 6.09969 13.312 6.0221 13.4952 5.94158C13.6542 5.87161 13.8126 5.79999 13.9726 5.73214C14.1007 5.67783 14.23 5.62645 14.3599 5.57668C14.6854 5.45224 15.0083 5.32034 15.3379 5.20858C15.7458 5.07038 16.1557 4.93664 16.5813 4.85946C17.0508 4.77434 17.522 4.76439 17.9943 4.82528C18.149 4.84518 18.3027 4.87674 18.4547 4.91187C18.6231 4.95075 18.7938 4.98728 18.9552 5.04721C19.1758 5.12921 19.3904 5.2286 19.6043 5.32723C20.0718 5.54283 20.4801 5.84533 20.8429 6.20669C21.0016 6.36464 21.1366 6.54627 21.2831 6.71638C21.5043 6.97321 21.6753 7.26234 21.817 7.56796C21.9363 7.82531 22.032 8.09253 22.094 8.37025C22.1954 8.82483 22.2338 9.28466 22.1971 9.74948C22.1823 9.93658 22.1648 10.1239 22.1374 10.3096C22.1162 10.4536 22.0785 10.5953 22.0463 10.7376C22.0227 10.8416 21.996 10.9448 21.9763 11.025L21.9767 11.0253ZM18.6107 7.13801C18.7837 7.19534 18.9581 7.2448 19.1437 7.22894C19.3617 7.21033 19.4426 7.04955 19.3233 6.89334C19.239 6.78302 19.1403 6.67506 19.0267 6.59747C18.6655 6.35055 18.2438 6.2747 17.8218 6.21076C17.6855 6.19008 17.5456 6.18842 17.4072 6.18756C17.271 6.18668 17.1344 6.19401 16.9985 6.20511C16.8606 6.2164 16.7224 6.23096 16.5861 6.25495C16.4544 6.27813 16.323 6.30849 16.1951 6.34746C15.9591 6.41958 15.7243 6.49603 15.492 6.57922C15.374 6.62142 15.2635 6.68443 15.1478 6.73389C15.0469 6.77711 14.9418 6.8105 14.8418 6.85546C14.7032 6.91779 14.5669 6.98542 14.431 7.05359C14.1426 7.19785 13.8543 7.34211 13.5676 7.48975C13.3263 7.6141 13.0849 7.73871 12.8486 7.87203C12.7361 7.9354 12.6417 8.03161 12.5275 8.09044C12.3868 8.16299 12.2692 8.26056 12.159 8.36947C12.1387 8.38956 12.1358 8.42778 12.1265 8.45824C12.1231 8.46957 12.1282 8.48436 12.123 8.49396C12.0909 8.55404 12.1592 8.72432 12.2202 8.7525C12.3177 8.79732 12.4172 8.79036 12.5099 8.75676C12.6905 8.69122 12.8688 8.61788 13.0436 8.53818C13.263 8.43822 13.4795 8.33153 13.6944 8.22233C13.9291 8.10317 14.1596 7.97542 14.3944 7.85601C14.5423 7.78073 14.694 7.71273 14.8452 7.64401C15.0242 7.56258 15.2026 7.47938 15.3846 7.40541C15.6462 7.29922 15.911 7.2013 16.1739 7.0985C16.2161 7.08199 16.2537 7.05068 16.2968 7.03968C16.3789 7.01888 16.4636 7.00825 16.547 6.9924C16.7199 6.95955 16.8913 6.92128 17.0689 6.91398C17.5972 6.89221 18.1107 6.96748 18.6107 7.13814L18.6107 7.13801Z" fill="#0621FD"/>
<path d="M6.02043 19.536C5.84674 19.4795 5.66544 19.4391 5.50107 19.3627C5.27658 19.2582 5.06193 19.1309 4.84861 19.0042C4.70338 18.918 4.56221 18.8228 4.42854 18.7197C4.28033 18.6053 4.13978 18.4804 4.00117 18.3542C3.87904 18.2431 3.75791 18.1297 3.64793 18.0067C3.52454 17.869 3.41351 17.7202 3.29839 17.5752C3.24566 17.5088 3.19224 17.4423 3.14589 17.3714C3.09709 17.2968 3.0562 17.2169 3.01175 17.1393C2.949 17.0298 2.8835 16.9217 2.82486 16.81C2.79993 16.7623 2.79558 16.704 2.77074 16.656C2.71756 16.5536 2.71683 16.4297 2.63751 16.3376C2.62405 16.3221 2.62778 16.2924 2.62191 16.2696C2.56424 16.0448 2.49888 15.8215 2.44986 15.5949C2.37058 15.2283 2.3397 14.8554 2.3494 14.4808C2.35544 14.2465 2.37359 14.0123 2.39557 13.7789C2.40611 13.6661 2.43028 13.553 2.46175 13.4439C2.50167 13.3054 2.56134 13.1727 2.60143 13.0341C2.69163 12.723 2.87408 12.4619 3.05079 12.199C3.15105 12.05 3.26643 11.9093 3.3879 11.7768C3.67944 11.4588 3.99993 11.1709 4.34698 10.9147C4.50051 10.8014 4.66722 10.7062 4.82793 10.6026C4.90549 10.5526 4.99465 10.5135 5.05645 10.4485C5.11076 10.3914 5.18661 10.3906 5.24189 10.3396C5.29494 10.2907 5.37053 10.2664 5.43527 10.2298C5.60677 10.1324 5.77659 10.0321 5.94926 9.93683C6.08286 9.8631 6.21987 9.79585 6.3546 9.72432C6.37644 9.71277 6.39233 9.69038 6.41383 9.67772C6.57249 9.58515 6.73265 9.4949 6.89101 9.40152C6.98608 9.34551 7.07813 9.28442 7.17238 9.22702C7.29332 9.15356 7.4159 9.08246 7.53667 9.00866C7.65672 8.93534 7.77233 8.85435 7.89544 8.78682C8.07687 8.68724 8.26131 8.59272 8.44796 8.50317C8.64363 8.40934 8.84006 8.31533 9.05037 8.25776C9.13845 8.23368 9.23004 8.21186 9.3205 8.21003C9.41891 8.20809 9.51083 8.23612 9.59619 8.30173C9.80467 8.46159 9.92448 8.68124 10.0375 8.908C10.0747 8.98285 10.1141 9.05654 10.1509 9.13152C10.2663 9.36612 10.3808 9.60116 10.4962 9.83589C10.5717 9.9897 10.6468 10.1438 10.724 10.2968C11.1432 11.1278 11.5628 11.9587 11.9829 12.7893C12.2099 13.2382 12.4375 13.6867 12.6664 14.1347C12.7681 14.3339 12.8706 14.5328 12.9785 14.7288C13.1368 15.0165 13.2962 15.3037 13.4629 15.5865C13.6043 15.8264 13.7582 16.0589 13.9036 16.2964C13.991 16.4392 14.0526 16.5919 14.0383 16.7638C14.0264 16.9059 13.9687 17.0309 13.8842 17.1449C13.7968 17.2627 13.6816 17.3457 13.5518 17.4086C13.3837 17.4902 13.2142 17.5687 13.0448 17.6472C12.9267 17.7018 12.8057 17.7505 12.6894 17.8084C12.1212 18.0912 11.554 18.3758 10.9868 18.6608C10.8034 18.7529 10.624 18.8536 10.438 18.9403C10.2334 19.0355 10.0263 19.1264 9.81518 19.2059C9.52914 19.3135 9.23863 19.4091 8.94921 19.5075C8.91555 19.5189 8.87628 19.5128 8.84094 19.5207C8.81243 19.5271 8.78678 19.5465 8.75836 19.5531C8.5582 19.5989 8.35809 19.6451 8.15719 19.6872C7.83447 19.755 7.50539 19.7576 7.17813 19.7646C7.02075 19.768 6.86093 19.7415 6.70496 19.7136C6.47278 19.6719 6.24305 19.6171 6.01222 19.5678C6.01498 19.5571 6.01779 19.5463 6.02056 19.5356L6.02043 19.536ZM9.02905 9.53624C8.97268 9.55142 8.91357 9.55637 8.86596 9.58244C8.75956 9.64071 8.66079 9.71289 8.55513 9.77281C8.45971 9.82687 8.35744 9.86895 8.26146 9.92212C8.18444 9.96478 8.11315 10.0176 8.03802 10.0636C7.91704 10.1376 7.79391 10.2082 7.67371 10.2833C7.58827 10.3367 7.50786 10.398 7.42173 10.45C7.32308 10.5097 7.21999 10.5617 7.11992 10.6192C6.86089 10.768 6.60374 10.9201 6.3435 11.0666C6.17681 11.1604 6.00487 11.2447 5.83737 11.3371C5.71993 11.4019 5.60448 11.4707 5.49092 11.5423C5.33616 11.6398 5.17703 11.7325 5.03232 11.8435C4.79263 12.0271 4.57805 12.2383 4.37959 12.4673C4.15104 12.731 3.98077 13.0302 3.85213 13.3487C3.74497 13.6142 3.67367 13.8949 3.59838 14.1723C3.56052 14.3119 3.53167 14.4585 3.52987 14.6023C3.5269 14.8494 3.53881 15.0975 3.56197 15.3437C3.58625 15.6021 3.66657 15.8485 3.76749 16.0876C3.8054 16.1775 3.8323 16.2726 3.8755 16.3597C3.91917 16.4475 3.98503 16.5244 4.02692 16.6129C4.07983 16.7249 4.13712 16.8317 4.21656 16.9277C4.34549 17.0836 4.46563 17.247 4.59802 17.3997C4.6628 17.4743 4.74469 17.5349 4.82301 17.5966C4.95858 17.7034 5.09499 17.8093 5.23582 17.9086C5.29764 17.9523 5.37201 17.9804 5.43929 18.0143C5.5171 18.0535 5.5911 18.105 5.67456 18.1386C5.89132 18.226 6.10487 18.3215 6.32397 18.4026C6.47594 18.4589 6.63432 18.4977 6.79058 18.5416C6.8166 18.549 6.84754 18.5373 6.87431 18.5431C6.96788 18.5635 7.05966 18.5963 7.1541 18.6083C7.28869 18.6255 7.42514 18.6361 7.56083 18.6355C7.69227 18.635 7.82417 18.6221 7.95459 18.6048C8.05563 18.5912 8.15452 18.5626 8.2543 18.5403C8.34967 18.5191 8.44226 18.4898 8.54055 18.4765C8.64384 18.4626 8.74338 18.4198 8.84389 18.3874C8.86424 18.3809 8.88442 18.3514 8.89953 18.3549C8.93176 18.3623 8.95366 18.3592 8.98319 18.3418C9.03134 18.3137 9.08485 18.2925 9.1384 18.276C9.2553 18.2402 9.37489 18.2126 9.49139 18.1755C9.65049 18.1246 9.80803 18.0685 9.9657 18.0134C10.0124 17.997 10.0578 17.9769 10.1032 17.9571C10.1152 17.952 10.1239 17.9386 10.1359 17.9347C10.2057 17.9119 10.2777 17.895 10.3456 17.8679C10.4252 17.836 10.5006 17.7936 10.5793 17.7593C10.6341 17.7354 10.6926 17.72 10.7471 17.6957C10.7964 17.6737 10.8425 17.6447 10.8902 17.6191C10.8999 17.6138 10.91 17.609 10.9203 17.6046C11.0207 17.5612 11.1243 17.5239 11.2211 17.4734C11.3519 17.4051 11.476 17.3242 11.6057 17.2538C11.7051 17.1998 11.813 17.161 11.9092 17.1024C12.0878 16.9933 12.2609 16.875 12.4357 16.7598C12.5202 16.7041 12.6066 16.6503 12.6857 16.5877C12.7114 16.5675 12.7375 16.5147 12.7284 16.4891C12.6807 16.3548 12.6312 16.2198 12.565 16.0941C12.4527 15.8816 12.3276 15.676 12.2075 15.4677C12.1461 15.3611 12.0836 15.2549 12.0217 15.1485C11.9344 14.9981 11.847 14.8477 11.7598 14.6973C11.6984 14.5911 11.6366 14.485 11.5762 14.3783C11.5109 14.2631 11.449 14.1458 11.3816 14.0318C11.292 13.88 11.1977 13.731 11.1073 13.5798C11.0328 13.4553 10.959 13.3304 10.8884 13.2036C10.8074 13.058 10.7284 12.9114 10.6522 12.7633C10.5674 12.5986 10.4878 12.4313 10.4034 12.2662C10.3757 12.212 10.3363 12.1639 10.3094 12.1093C10.2791 12.0481 10.2601 11.9813 10.2307 11.9197C10.1143 11.6766 9.99641 11.434 9.87754 11.1919C9.75469 10.9416 9.6307 10.6917 9.50586 10.4423C9.48532 10.4012 9.45309 10.3655 9.43416 10.3238C9.33198 10.0977 9.23433 9.86943 9.12982 9.64444C9.11129 9.60451 9.0673 9.57637 9.02875 9.53629L9.02905 9.53624Z" fill="#0621FD"/>
<path d="M4.33223 13.9218C4.40738 13.6944 4.51367 13.4829 4.64381 13.2833C4.72892 13.1527 4.81069 13.0189 4.90644 12.8964C4.9766 12.8066 5.07109 12.7363 5.14758 12.6509C5.29199 12.49 5.47679 12.38 5.64206 12.2454C5.7743 12.1376 5.92109 12.0711 6.08594 12.0443C6.16981 12.0305 6.26072 12.0204 6.32918 12.0924C6.38333 12.1492 6.40716 12.2207 6.39095 12.2971C6.3674 12.4079 6.32206 12.51 6.23734 12.5898C6.11813 12.7023 5.99393 12.8102 5.88033 12.928C5.77307 13.0394 5.67475 13.1597 5.57596 13.279C5.48281 13.3913 5.38731 13.5025 5.30518 13.6227C5.17938 13.8067 5.06859 14.0016 5.02186 14.2224C4.98752 14.3846 4.95588 14.5498 4.94906 14.7148C4.94222 14.878 4.97046 15.0425 4.97833 15.2066C4.98332 15.3099 4.97396 15.414 4.98044 15.5171C4.98803 15.6386 4.93803 15.7472 4.9171 15.8621C4.90979 15.9019 4.76965 15.9936 4.72621 15.9917C4.68927 15.9901 4.65203 15.9895 4.61545 15.9846C4.50455 15.9702 4.44006 15.8943 4.39457 15.8029C4.33234 15.6779 4.26162 15.5537 4.22398 15.4208C4.1907 15.3032 4.19206 15.1742 4.18831 15.05C4.184 14.9072 4.18201 14.7633 4.19504 14.6214C4.20819 14.4779 4.23835 14.3355 4.26579 14.1936C4.28349 14.1022 4.30988 14.0123 4.33235 13.9218L4.33223 13.9218Z" fill="#0621FD"/>
</svg>
