<svg width="24" height="24" viewBox="0 0 24 24" fill="none" xmlns="http://www.w3.org/2000/svg">
<path d="M5.4214 9.00447C5.87235 8.99639 6.25904 9.08382 6.62427 9.25842C6.82802 9.35579 6.99507 9.50814 7.16795 9.65161C7.40787 9.85059 7.60525 10.0851 7.77562 10.3439C7.91154 10.5505 7.98943 10.7792 8.02427 11.0229C8.04441 11.1638 8.07779 11.3057 8.07474 11.4465C8.06136 12.0722 7.89577 12.652 7.50855 13.1537C7.34918 13.3602 7.14013 13.5152 6.91969 13.6522C6.65739 13.815 6.36502 13.8984 6.06549 13.9577C5.88003 13.9944 5.69417 14.0243 5.50314 14.0294C5.19262 14.0376 4.89336 13.9866 4.6084 13.8715C4.45341 13.8088 4.29947 13.7285 4.16779 13.6267C3.99902 13.4962 3.8525 13.3368 3.69777 13.1884C3.53482 13.0322 3.41228 12.8473 3.3075 12.6478C3.20721 12.457 3.10256 12.2684 3.05394 12.0567C2.99141 11.7846 2.98002 11.5106 3.03685 11.2351C3.07977 11.0272 3.15992 10.8332 3.25398 10.645C3.3479 10.4571 3.43189 10.2601 3.55324 10.0906C3.69035 9.89907 3.85117 9.71957 4.02525 9.56047C4.25337 9.35208 4.51646 9.18847 4.81546 9.09468C5.02662 9.02844 5.24229 8.98539 5.4214 9.0046V9.00447Z" fill="#0621FD"/>
<path d="M19.4374 13.974C19.1998 13.9626 18.9702 13.9171 18.7402 13.8712C18.4912 13.8217 18.2551 13.7368 18.0381 13.6063C17.8775 13.5097 17.7464 13.375 17.617 13.2403C17.4078 13.0225 17.2607 12.7657 17.1463 12.489C17.0955 12.3665 17.0399 12.2451 17.0021 12.1185C16.9729 12.0204 16.9636 11.9155 16.9538 11.8128C16.9444 11.7151 16.9386 11.616 16.944 11.5182C16.9514 11.3826 16.9623 11.246 16.9872 11.1127C17.0212 10.9306 17.0596 10.748 17.1155 10.5717C17.1562 10.4434 17.2227 10.3221 17.2878 10.2031C17.3679 10.0564 17.467 9.9199 17.5971 9.81379C17.711 9.72079 17.8358 9.64091 17.9585 9.55917C18.0617 9.49042 18.1651 9.42074 18.2746 9.36298C18.4962 9.24587 18.7229 9.1375 18.974 9.09895C19.0964 9.08014 19.2203 9.06372 19.3439 9.06067C19.4475 9.05802 19.5548 9.06345 19.6551 9.08783C19.9521 9.16016 20.2486 9.23646 20.5411 9.32509C20.7549 9.38987 20.9469 9.50446 21.1089 9.66012C21.2351 9.78133 21.3712 9.89871 21.4689 10.0411C21.5552 10.1667 21.6055 10.3212 21.6519 10.4691C21.7094 10.6526 21.7508 10.8415 21.7909 11.0299C21.8191 11.1625 21.8375 11.2976 21.8523 11.4325C21.8669 11.5647 21.8838 11.6986 21.8775 11.8309C21.864 12.1128 21.8271 12.3908 21.713 12.655C21.6333 12.8393 21.5214 12.9985 21.3893 13.1462C21.1462 13.4182 20.8501 13.6189 20.5164 13.7578C20.3511 13.8267 20.1719 13.8679 19.9952 13.9026C19.8115 13.9385 19.6234 13.9514 19.4373 13.9743L19.4374 13.974Z" fill="#0621FD"/>
<path d="M12.3386 13.9527C12.2027 13.9461 12.0741 13.9516 11.9498 13.9306C11.822 13.9092 11.698 13.8635 11.5731 13.826C11.3375 13.7554 11.1189 13.6473 10.9315 13.4891C10.7562 13.3411 10.593 13.1815 10.4787 12.9746C10.3502 12.7419 10.2609 12.4949 10.1929 12.242C10.1221 11.9787 10.0501 11.7106 10.0828 11.4329C10.1051 11.2443 10.1376 11.0564 10.1748 10.8701C10.2455 10.5161 10.3938 10.1979 10.6274 9.91981C10.8647 9.63764 11.1546 9.43336 11.4961 9.29426C11.6865 9.21676 11.884 9.19027 12.0837 9.16285C12.1569 9.15278 12.2272 9.11913 12.3002 9.11304C12.4394 9.10151 12.5796 9.10323 12.7194 9.09754C12.8941 9.09038 13.0625 9.12893 13.2263 9.17914C13.5402 9.27545 13.8382 9.40687 14.1068 9.60121C14.2573 9.71023 14.3681 9.85291 14.4739 10.0008C14.6308 10.2201 14.7699 10.4517 14.8567 10.7071C14.9043 10.8471 14.9333 10.9988 14.9387 11.1464C14.9465 11.3599 14.9382 11.5761 14.9135 11.7885C14.8709 12.1556 14.7737 12.5126 14.5818 12.8298C14.4096 13.1144 14.1904 13.3616 13.8695 13.497C13.7263 13.5574 13.5957 13.6494 13.4504 13.7024C13.1939 13.7958 12.9417 13.9098 12.6644 13.9331C12.5532 13.9425 12.4416 13.9465 12.3386 13.9524V13.9527Z" fill="#0621FD"/>
</svg>
