<svg width="24" height="24" viewBox="0 0 24 24" fill="none" xmlns="http://www.w3.org/2000/svg">
<path d="M15.7405 10.9661C15.7478 10.8509 15.7557 10.7461 15.761 10.6414C15.7711 10.4449 15.7811 10.2484 15.7884 10.0518C15.7922 9.9502 15.7686 9.84197 15.7968 9.74872C15.8229 9.66169 15.8137 9.58021 15.8148 9.49735C15.8187 9.21342 15.8134 8.92935 15.8141 8.64541C15.8146 8.38837 15.845 8.13464 15.9134 7.88646C15.9615 7.71228 16.0278 7.54613 16.1374 7.39994C16.1957 7.32206 16.2728 7.27121 16.3577 7.22575C16.5036 7.14788 16.6588 7.09453 16.818 7.05864C17.0546 7.00515 17.2935 6.98409 17.5307 7.06584C17.5917 7.08677 17.6666 7.08136 17.7172 7.11504C17.8468 7.20137 18.0247 7.21564 18.1113 7.36266C18.1698 7.46188 18.2161 7.56913 18.2597 7.67611C18.3391 7.87094 18.3898 8.07256 18.3951 8.28513C18.3998 8.47262 18.4191 8.65969 18.4205 8.84703C18.4239 9.27605 18.4217 9.7052 18.4189 10.1342C18.4178 10.3124 18.4081 10.4905 18.4055 10.6687C18.4036 10.7978 18.4054 10.9271 18.4083 11.0564C18.4109 11.1709 18.4192 11.2852 18.421 11.3997C18.4218 11.4493 18.407 11.4993 18.4088 11.5489C18.4157 11.7498 18.4249 11.9507 18.436 12.1514C18.4526 12.4553 18.4762 12.7589 18.4879 13.0629C18.4964 13.2844 18.4924 13.5065 18.4904 13.7282C18.4891 13.8866 18.48 14.0448 18.4781 14.2031C18.4748 14.4804 18.4716 14.7578 18.4734 15.0352C18.4745 15.2104 18.4803 15.3859 18.4922 15.5607C18.5053 15.7531 18.5279 15.9451 18.546 16.1373C18.5471 16.1488 18.546 16.1604 18.5466 16.1719C18.5513 16.2864 18.5597 16.4007 18.5599 16.5151C18.56 16.7241 18.5509 16.9358 18.4731 17.1305C18.3415 17.4605 18.0934 17.6726 17.7458 17.7492C17.5809 17.7856 17.409 17.7916 17.24 17.807C17.1038 17.8195 16.9669 17.8332 16.8304 17.8323C16.6379 17.8309 16.4566 17.7789 16.3013 17.6606C16.1721 17.5622 16.0599 17.4476 15.9831 17.3004C15.8982 17.1375 15.8645 16.9608 15.8461 16.7823C15.8218 16.5467 15.8084 16.31 15.7959 16.0735C15.7925 16.0075 15.8127 15.9408 15.8157 15.8741C15.8231 15.711 15.8313 15.5476 15.8308 15.3844C15.8302 15.166 15.8235 14.9476 15.8159 14.7294C15.8095 14.5474 15.7987 14.3656 15.7886 14.1838C15.7804 14.0355 15.7689 13.8876 15.762 13.7393C15.76 13.6967 15.7398 13.6923 15.7047 13.6913C15.5857 13.6884 15.4667 13.6827 15.3475 13.6775C15.2171 13.6718 15.0863 13.6568 14.9563 13.6617C14.7305 13.67 14.505 13.6904 14.2795 13.706C14.15 13.715 14.0201 13.7222 13.8909 13.7342C13.7168 13.7501 13.5433 13.7716 13.3693 13.7872C13.2714 13.7961 13.1729 13.7996 13.0747 13.8025C12.9197 13.8072 12.7647 13.8097 12.6096 13.8124C12.2552 13.8188 11.9007 13.8271 11.5461 13.8306C10.9326 13.8367 10.319 13.8428 9.70546 13.8429C9.45035 13.8429 9.19524 13.8224 8.94013 13.822C8.73117 13.8217 8.5222 13.8388 8.3131 13.8456C8.26737 13.8471 8.24908 13.8586 8.24894 13.909C8.24838 14.0674 8.2427 14.2258 8.23758 14.3842C8.22372 14.8054 8.20654 15.2266 8.19628 15.648C8.19254 15.8039 8.21804 15.9613 8.20612 16.1161C8.18533 16.386 8.15194 16.6552 8.11189 16.9231C8.08667 17.0919 8.00755 17.245 7.8996 17.3754C7.82907 17.4605 7.74218 17.5397 7.64712 17.5952C7.45243 17.7089 7.23529 17.7603 7.0115 17.794C6.67242 17.8451 6.37324 17.7364 6.0821 17.5875C5.94866 17.5192 5.87245 17.3958 5.81106 17.2647C5.68413 16.994 5.61373 16.7082 5.60805 16.4095C5.59863 15.9117 5.58075 15.4132 5.59447 14.9157C5.61332 14.2282 5.60154 13.5413 5.58574 12.8544C5.58034 12.6214 5.5432 12.3893 5.52061 12.1568C5.51992 12.1499 5.52048 12.1429 5.52048 12.136C5.51937 11.8752 5.51757 11.6144 5.51715 11.3538C5.51701 11.2336 5.51784 11.1135 5.52075 10.9935C5.52921 10.6489 5.54417 10.3042 5.54625 9.95948C5.5475 9.74913 5.53225 9.5385 5.51964 9.32829C5.50981 9.16492 5.49498 9.00168 5.47849 8.83872C5.45147 8.57253 5.45105 8.30633 5.46117 8.0393C5.46782 7.8618 5.52727 7.70341 5.61221 7.55348C5.6966 7.40451 5.80954 7.28298 5.96349 7.19666C6.10899 7.1149 6.2628 7.05947 6.42465 7.0434C6.68364 7.0179 6.94443 7.00764 7.20481 7.0003C7.40934 6.99448 7.59114 7.07374 7.75036 7.19568C7.83073 7.25721 7.90639 7.33218 7.96376 7.41518C8.07171 7.57177 8.12838 7.75108 8.15443 7.94037C8.17189 8.06716 8.19975 8.19243 8.21665 8.31922C8.22303 8.36716 8.21042 8.41746 8.20931 8.4668C8.19961 8.87807 8.18367 9.28949 8.1845 9.70077C8.18492 9.88618 8.18007 10.0738 8.2003 10.2574C8.21416 10.3824 8.19697 10.5049 8.20903 10.6281C8.22316 10.7726 8.23564 10.9174 8.25157 11.0618C8.25559 11.0984 8.26889 11.1287 8.31961 11.1292C8.60243 11.1317 8.88553 11.1461 9.16808 11.1394C9.42056 11.1333 9.67262 11.1046 9.92482 11.0869C10.0114 11.0808 10.0983 11.0776 10.1849 11.0726C10.4266 11.0589 10.6682 11.0446 10.9101 11.0312C11.0835 11.0215 11.2569 11.0108 11.4304 11.004C11.6094 10.9971 11.7889 10.9989 11.9676 10.9888C12.6404 10.9508 13.3134 10.945 13.9869 10.9619C14.3418 10.9708 14.6968 10.9809 15.0517 10.9893C15.144 10.9916 15.2365 10.9925 15.3287 10.9891C15.467 10.9837 15.605 10.9738 15.7404 10.9659L15.7405 10.9661Z" fill="#0621FD"/>
<path d="M2.94085 13.9078C2.78925 13.8756 2.64431 13.8496 2.502 13.8134C2.34638 13.7739 2.24107 13.6694 2.16957 13.5287C2.09806 13.3877 2.0655 13.2381 2.04125 13.0814C2.00882 12.8729 1.99275 12.6651 2.00314 12.4563C2.01201 12.2786 2.03751 12.1018 2.05885 11.925C2.07076 11.8259 2.07575 11.7231 2.10721 11.63C2.18897 11.3873 2.36287 11.2402 2.61438 11.1878C2.70847 11.1682 2.80353 11.1526 2.8972 11.1315C2.91466 11.1276 2.9396 11.1081 2.94168 11.0931C2.95069 11.028 2.95512 10.9619 2.95665 10.8959C2.96247 10.6662 2.96427 10.4363 2.97161 10.2066C2.97757 10.0239 2.98145 9.84059 3.00099 9.6592C3.01928 9.48932 3.03841 9.31569 3.09037 9.15439C3.18127 8.87254 3.38192 8.69073 3.66946 8.60496C4.05191 8.49077 4.42411 8.50657 4.78717 8.67757C4.97577 8.76639 5.06916 8.93157 5.11489 9.12099C5.17933 9.3876 5.1997 9.66087 5.18736 9.93538C5.17655 10.1772 5.15646 10.4186 5.14746 10.6605C5.13886 10.8899 5.13956 11.1196 5.13581 11.3492C5.1354 11.3778 5.13152 11.4063 5.13291 11.4346C5.14621 11.7132 5.1415 11.9944 5.17836 12.2699C5.24335 12.7554 5.21217 13.2407 5.21452 13.7264C5.2166 14.1463 5.22104 14.5663 5.22921 14.9861C5.23323 15.1883 5.25429 15.3902 5.25637 15.5924C5.2579 15.7459 5.22117 15.8935 5.1408 16.0283C5.04325 16.1917 4.90191 16.3031 4.72537 16.363C4.61008 16.4022 4.48827 16.4306 4.36716 16.4429C4.16748 16.4633 3.96517 16.4829 3.76563 16.4726C3.60377 16.4643 3.44747 16.414 3.31402 16.3005C3.14164 16.1539 3.0409 15.9732 3.00071 15.7554C2.9888 15.6911 2.98977 15.6244 2.98492 15.5587C2.98021 15.4953 2.96967 15.4315 2.97217 15.3682C2.97813 15.2183 2.99656 15.0686 2.99836 14.9187C3.00058 14.7352 2.99573 14.5513 2.98519 14.368C2.97619 14.2097 2.95512 14.0522 2.94071 13.9075L2.94085 13.9078Z" fill="#0621FD"/>
<path d="M21.0388 9.45683C21.0388 9.53858 21.0421 9.62048 21.0379 9.7021C21.0342 9.76875 21.0142 9.83499 21.0144 9.90122C21.0154 10.1137 21.0201 10.3262 21.028 10.5385C21.0323 10.6549 21.0475 10.7708 21.0538 10.8872C21.0561 10.9303 21.078 10.9325 21.1118 10.9351C21.2284 10.9441 21.3476 10.9441 21.4606 10.97C21.6812 11.0205 21.8133 11.1788 21.8808 11.3835C21.926 11.5206 21.952 11.6665 21.9667 11.8103C21.9878 12.0155 21.992 12.2226 21.9999 12.4289C22.0017 12.4774 21.9897 12.5264 21.983 12.5751C21.956 12.7742 21.9357 12.9746 21.8991 13.1721C21.8676 13.3415 21.7423 13.4452 21.6042 13.5347C21.4573 13.6299 21.2877 13.6443 21.1227 13.6745C21.076 13.683 21.0552 13.7004 21.0541 13.7496C21.0467 14.0489 21.0367 14.3481 21.0286 14.6473C21.025 14.7791 21.0322 14.9118 21.0189 15.0425C20.9995 15.2332 20.9884 15.4291 20.9338 15.6108C20.8267 15.9666 20.5792 16.1854 20.2073 16.2528C20.0583 16.2798 19.9091 16.313 19.7569 16.2961C19.5096 16.2687 19.2715 16.2051 19.0793 16.0394C18.9733 15.9479 18.921 15.8164 18.8828 15.6799C18.8024 15.3935 18.826 15.1015 18.8251 14.8105C18.825 14.7468 18.8163 14.6828 18.8182 14.6191C18.8197 14.5675 18.8333 14.5163 18.8376 14.4645C18.8482 14.3402 18.8599 14.2158 18.8649 14.0911C18.8742 13.8591 18.8915 13.6263 18.8821 13.3949C18.8721 13.1495 18.8565 12.9038 18.8386 12.6585C18.8271 12.4998 18.8008 12.3417 18.7983 12.1831C18.792 11.7931 18.797 11.4029 18.7951 11.0128C18.7942 10.8363 18.7855 10.6596 18.7854 10.4831C18.7854 10.4253 18.8116 10.367 18.8084 10.31C18.7945 10.067 18.7706 9.82459 18.7577 9.58154C18.7509 9.45406 18.7538 9.32546 18.7624 9.19798C18.7742 9.02449 18.8257 8.86125 18.9217 8.71492C19.0067 8.58563 19.1234 8.49016 19.2744 8.45676C19.4477 8.41851 19.6246 8.39108 19.8012 8.37292C19.9696 8.3556 20.1428 8.33399 20.3083 8.35602C20.4378 8.37334 20.5674 8.44082 20.682 8.51053C20.8631 8.62069 20.9603 8.79903 20.9961 9.00495C21.0221 9.15363 21.0312 9.30537 21.0478 9.45572C21.0449 9.45599 21.0421 9.45641 21.0392 9.45669L21.0388 9.45683Z" fill="#0621FD"/>
</svg>
