<svg width="24" height="24" viewBox="0 0 24 24" fill="none" xmlns="http://www.w3.org/2000/svg">
<path d="M19.9443 18.1974C19.8375 18.1974 19.7308 18.1974 19.624 18.1974C19.5316 18.1974 19.4366 18.1839 19.3474 18.2011C19.193 18.2309 19.0404 18.1985 18.887 18.2083C18.7312 18.2181 18.5744 18.2151 18.4182 18.219C18.3141 18.2215 18.2102 18.226 18.1063 18.2298C18.0059 18.2334 17.9056 18.2385 17.8052 18.2405C17.589 18.2449 17.3726 18.2478 17.1564 18.2516C16.9794 18.2546 16.8026 18.2592 16.6258 18.261C16.0819 18.2669 15.538 18.2713 14.9941 18.2775C14.9345 18.2782 14.8748 18.2901 14.8153 18.2899C14.7644 18.2897 14.7137 18.2763 14.6627 18.2744C13.4936 18.2322 12.3242 18.2559 11.1549 18.2563C10.4063 18.2565 9.65765 18.2752 8.90907 18.2873C8.78162 18.2894 8.65428 18.3051 8.52683 18.3061C8.18158 18.3089 7.83623 18.307 7.49099 18.3071C7.27176 18.3071 7.05253 18.3078 6.8333 18.3078C6.68951 18.3078 6.5456 18.3084 6.4018 18.3068C6.20356 18.3046 6.00532 18.3001 5.80707 18.2972C5.73318 18.2961 5.65919 18.2969 5.5853 18.2958C5.15789 18.2894 4.73037 18.2826 4.30295 18.2761C4.23095 18.275 4.15894 18.2752 4.08693 18.2738C3.9185 18.2704 3.74964 18.2722 3.58165 18.2615C3.32786 18.2453 3.15259 18.1093 3.12089 17.8261C3.10896 17.7198 3.10587 17.6125 3.09803 17.5057C3.08245 17.2946 3.09195 17.0831 3.08952 16.8717C3.08698 16.6582 3.08864 16.4447 3.08776 16.2311C3.08687 16.0158 3.08555 15.8004 3.08334 15.5851C3.08257 15.5062 3.08544 15.4264 3.07528 15.3486C3.05308 15.1772 3.07075 15.0055 3.06545 14.8341C3.06004 14.6594 3.0671 14.4838 3.05241 14.31C3.04314 14.2006 3.04623 14.0921 3.04325 13.9833C3.03795 13.7864 3.04413 13.5888 3.02966 13.3925C3.00956 13.1196 3.02514 12.8469 3.02083 12.5743C3.01023 11.9105 3.00316 11.2467 3.00006 10.5829C2.99896 10.3498 3.01221 10.1166 3.02116 9.88355C3.03066 9.63825 3.04314 9.39296 3.05385 9.14767C3.06158 8.97008 3.06898 8.79237 3.07594 8.61478C3.08036 8.50136 3.08345 8.38793 3.08709 8.27462C3.09405 8.05495 3.10543 7.83517 3.10631 7.6155C3.10686 7.45282 3.08952 7.29025 3.0872 7.12745C3.08157 6.7324 3.07793 6.33724 3.07782 5.94219C3.07782 5.77608 3.0882 5.60854 3.1453 5.45127C3.20858 5.27666 3.35271 5.12325 3.56862 5.12922C3.69585 5.13275 3.82363 5.11453 3.9512 5.11066C4.01658 5.10868 4.08218 5.11917 4.14778 5.11972C4.32626 5.12116 4.50484 5.12149 4.68343 5.11939C4.73368 5.11884 4.78382 5.10702 4.83418 5.10326C4.85649 5.10161 4.87946 5.10978 4.90177 5.10868C5.00537 5.10326 5.10885 5.09487 5.21245 5.09023C5.24602 5.08869 5.28026 5.09907 5.31383 5.09741C5.41721 5.09233 5.52036 5.08062 5.62374 5.07808C5.70546 5.07609 5.78763 5.08935 5.86925 5.0857C6.00554 5.07963 6.14149 5.0645 6.27767 5.05544C6.30583 5.05356 6.33465 5.06483 6.36304 5.0645C6.77841 5.05942 7.19379 5.05136 7.60916 5.04837C7.87235 5.0465 8.13553 5.05125 8.39871 5.05434C8.45725 5.055 8.51578 5.06406 8.57432 5.0645C9.03188 5.06814 9.48944 5.07256 9.94701 5.07289C10.3003 5.07311 10.6537 5.06847 11.0071 5.06472C11.2168 5.06251 11.4263 5.05577 11.6358 5.05434C12.324 5.0497 13.012 5.04793 13.7002 5.04241C14.4786 5.03623 15.2569 5.02739 16.0353 5.01911C16.1637 5.01778 16.292 5.01303 16.4204 5.00983C16.5559 5.00641 16.6915 5 16.827 5C16.9716 5 17.1163 5.00685 17.2608 5.00972C17.4589 5.01381 17.657 5.01701 17.8551 5.02054C18.2851 5.02816 18.7149 5.03457 19.1449 5.04396C19.2596 5.0465 19.3742 5.05887 19.4888 5.06472C19.5929 5.07002 19.6972 5.07411 19.8015 5.07565C19.9394 5.07764 20.0777 5.08073 20.2155 5.07554C20.348 5.07046 20.4833 5.05997 20.6075 5.10492C20.6814 5.13165 20.7465 5.19504 20.8028 5.25424C20.8769 5.33199 20.8955 5.43901 20.8997 5.54117C20.9095 5.78138 20.9107 6.02204 20.9125 6.26247C20.9142 6.4923 20.9102 6.72213 20.912 6.95185C20.9154 7.41162 20.9209 7.8715 20.9259 8.33128C20.9286 8.59258 20.9323 8.85389 20.9347 9.1152C20.9388 9.53963 20.9441 9.96406 20.9454 10.3886C20.9475 11.0756 20.9463 11.7624 20.9479 12.4493C20.9483 12.6234 20.953 12.7976 20.9571 12.9716C20.964 13.2685 20.9707 13.5654 20.9798 13.8622C20.982 13.9327 20.9984 14.0028 20.9996 14.0732C21.0015 14.1826 20.9953 14.2922 20.9937 14.4016C20.9916 14.5397 20.9916 14.6777 20.989 14.8157C20.9868 14.9365 20.9812 15.0573 20.979 15.1783C20.9673 15.805 20.9564 16.4318 20.9449 17.0586C20.9422 17.2016 20.9378 17.3446 20.9353 17.4876C20.9349 17.505 20.9367 17.5252 20.9452 17.5394C20.9934 17.6193 20.9831 17.7032 20.9628 17.7864C20.9482 17.8461 20.9398 17.9119 20.8748 17.9451C20.8172 18.0906 20.6858 18.1382 20.5531 18.1692C20.4531 18.1925 20.3465 18.1899 20.2427 18.1937C20.1434 18.1973 20.0439 18.1945 19.9446 18.1945C19.9446 18.1954 19.9446 18.1966 19.9446 18.1975L19.9443 18.1974ZM3.93562 15.1342C3.92867 15.1632 3.91574 15.1914 3.9163 15.2194C3.92171 15.4635 3.9301 15.7076 3.93629 15.9518C3.94137 16.1535 3.94479 16.3553 3.94888 16.557C3.95219 16.7153 3.95473 16.8736 3.95948 17.0317C3.96047 17.0627 3.9745 17.0936 3.97494 17.1245C3.97527 17.1519 3.96069 17.1793 3.96036 17.2068C3.95981 17.2502 3.97792 17.2974 3.96599 17.3363C3.94369 17.4092 3.98852 17.3977 4.02817 17.3987C4.3574 17.4071 4.68674 17.4153 5.01597 17.4235C5.10554 17.4257 5.19522 17.4273 5.2849 17.4293C5.53781 17.4348 5.79061 17.4407 6.04353 17.4458C6.14326 17.4478 6.2431 17.4492 6.34294 17.4492C7.19235 17.4485 8.04176 17.4478 8.89129 17.446C9.02691 17.4457 9.16264 17.4391 9.29827 17.4363C9.51827 17.4316 9.73838 17.4256 9.95838 17.424C11.1492 17.4158 12.34 17.4068 13.5308 17.4022C14.4429 17.3987 15.355 17.4028 16.2672 17.4006C16.4961 17.4 16.725 17.3882 16.9539 17.3816C17.1004 17.3773 17.2469 17.3713 17.3934 17.3689C17.8963 17.3607 18.3993 17.3538 18.9023 17.3466C18.9557 17.3458 19.0094 17.3498 19.0624 17.346C19.2149 17.3353 19.367 17.3584 19.5212 17.33C19.6441 17.3075 19.7743 17.3248 19.9013 17.3245C19.9613 17.3244 20.0214 17.3245 20.0799 17.3245C20.0817 17.2917 20.0836 17.2674 20.0841 17.243C20.0916 16.7671 20.0988 16.2912 20.1065 15.8154C20.1074 15.7632 20.0734 15.7081 20.1184 15.659C20.1203 15.657 20.1188 15.6518 20.1188 15.6482C20.1183 15.5949 20.1183 15.5415 20.1171 15.4882C20.1166 15.4637 20.1099 15.439 20.1119 15.4148C20.1149 15.3777 20.1205 15.3405 20.129 15.3042C20.1467 15.2286 20.0885 15.1496 20.1405 15.0759C20.1423 15.0733 20.1408 15.0687 20.141 15.065C20.1437 15.003 20.1475 14.941 20.1492 14.8791C20.1532 14.7305 20.1604 14.5819 20.1589 14.4333C20.1551 14.0883 20.1473 13.7433 20.1395 13.3983C20.1392 13.3815 20.1241 13.3654 20.1179 13.3482C20.1128 13.3342 20.1062 13.3185 20.1079 13.3046C20.1124 13.2711 20.1276 13.2382 20.1274 13.2052C20.1263 13.0642 20.12 12.9231 20.1177 12.7821C20.1131 12.512 20.1075 12.2418 20.1069 11.9717C20.1062 11.5889 20.1136 11.2061 20.1101 10.8234C20.1048 10.2405 20.0935 9.65769 20.0836 9.07489C20.0831 9.04208 20.1041 9.00034 20.0553 8.97913C20.0498 8.9767 20.0469 8.94909 20.0526 8.94368C20.1027 8.89652 20.0749 8.83832 20.0745 8.7863C20.0682 8.15015 20.0583 7.514 20.0521 6.87785C20.0491 6.57248 20.0515 6.26711 20.0515 5.96394C20.0113 5.95919 19.97 5.95168 19.9284 5.95003C19.7947 5.94495 19.6611 5.94064 19.5275 5.93876C19.4376 5.93755 19.3475 5.94207 19.2576 5.94163C19.2385 5.94163 19.2195 5.92794 19.2002 5.92672C19.1073 5.92109 19.0143 5.91502 18.9213 5.91391C18.5717 5.90983 18.222 5.90717 17.8724 5.90563C17.8449 5.90552 17.8175 5.92208 17.7895 5.92462C17.7719 5.92617 17.7529 5.91722 17.7352 5.91093C17.7233 5.90673 17.7132 5.89458 17.7015 5.89326C17.6595 5.8884 17.6172 5.88453 17.575 5.88387C17.2628 5.87923 16.9507 5.87084 16.6385 5.8725C15.938 5.87625 15.2373 5.88619 14.5368 5.89182C13.9486 5.89657 13.3602 5.89735 12.772 5.90232C11.9921 5.90883 11.2121 5.92065 10.4322 5.92485C9.6741 5.92893 8.91603 5.92761 8.15784 5.92595C7.99847 5.92562 7.8391 5.90872 7.67962 5.90817C7.40573 5.90717 7.13183 5.91226 6.85804 5.91612C6.73711 5.91789 6.61617 5.92219 6.49524 5.92705C6.33863 5.93346 6.18213 5.94439 6.02542 5.94826C5.77383 5.95433 5.52213 5.95555 5.27054 5.96063C5.23873 5.96129 5.20715 5.97267 5.17556 5.97907C5.16054 5.98426 5.14298 5.97289 5.12487 5.97189C5.04469 5.96748 4.96417 5.96262 4.88399 5.96449C4.75058 5.9677 4.61727 5.97852 4.48386 5.98139C4.33863 5.98448 4.1934 5.98205 4.04816 5.98205C4.0136 5.98205 3.97903 5.98205 3.94015 5.98205C3.94015 6.00735 3.94015 6.02745 3.94015 6.04755C3.94081 6.22238 3.94092 6.39721 3.94247 6.57215C3.94324 6.66326 3.95142 6.75449 3.94711 6.84527C3.94137 6.96477 3.92193 7.0835 3.91696 7.203C3.90845 7.40588 3.91022 7.60909 3.89498 7.81187C3.88526 7.94141 3.88626 8.07174 3.88283 8.20173C3.87841 8.37048 3.8751 8.53924 3.87002 8.708C3.85997 9.04164 3.84683 9.37529 3.83932 9.70894C3.83357 9.9656 3.83269 10.2224 3.83302 10.4792C3.83368 10.9642 3.83479 11.4493 3.83954 11.9344C3.8423 12.221 3.85268 12.5074 3.85909 12.794C3.86372 13.0012 3.86704 13.2085 3.87201 13.4157C3.87344 13.4777 3.87974 13.5396 3.88195 13.6016C3.88626 13.7224 3.88946 13.8434 3.89266 13.9643C3.89675 14.1182 3.90083 14.2722 3.90393 14.4262C3.90801 14.6304 3.91033 14.8347 3.91574 15.0389C3.91663 15.0725 3.92977 15.1056 3.93618 15.1345L3.93562 15.1342Z" fill="#0621FD"/>
<path d="M9.98016 8.67672C10.1243 8.66999 10.239 8.71637 10.3453 8.79269C10.3843 8.82074 10.4297 8.83963 10.4717 8.86348C10.6054 8.9388 10.74 9.01258 10.8719 9.09077C10.9589 9.14235 11.0409 9.20232 11.1269 9.25577C11.2466 9.33021 11.3682 9.40156 11.4886 9.47489C11.7067 9.60764 11.9241 9.74172 12.1426 9.8737C12.3961 10.0269 12.6311 10.208 12.8841 10.3614C13.0936 10.4884 13.3071 10.609 13.5202 10.7302C13.6355 10.7958 13.7524 10.8584 13.8703 10.9191C13.9972 10.9846 14.1104 11.0717 14.2337 11.1427C14.3092 11.1861 14.3918 11.2209 14.4581 11.2754C14.57 11.3677 14.6871 11.4578 14.6974 11.627C14.7025 11.7117 14.6811 11.7763 14.6316 11.8395C14.599 11.881 14.5801 11.9378 14.5401 11.9678C14.4681 12.0219 14.3844 12.0601 14.3065 12.1067C14.1638 12.1921 14.0206 12.2766 13.8799 12.3653C13.7027 12.4769 13.5286 12.5931 13.352 12.7056C13.2985 12.7396 13.231 12.7575 13.1879 12.8005C13.0893 12.8991 12.9627 12.9501 12.8487 13.0216C12.6819 13.1263 12.5094 13.2218 12.34 13.3222C12.1713 13.422 12.0021 13.521 11.8354 13.6238C11.6769 13.7215 11.5216 13.8246 11.3639 13.9236C11.2087 14.021 11.0533 14.1181 10.8962 14.2123C10.6987 14.3307 10.5022 14.4517 10.2992 14.56C10.2091 14.6081 10.1058 14.6392 10.0049 14.6572C9.93532 14.6697 9.84951 14.6507 9.79804 14.6023C9.72338 14.5322 9.65491 14.4484 9.64983 14.3349C9.64541 14.2364 9.63978 14.138 9.63625 14.0395C9.63161 13.9094 9.62862 13.7793 9.62498 13.6492C9.62498 13.6473 9.62575 13.6446 9.62476 13.6438C9.57075 13.5923 9.62896 13.5335 9.61405 13.4795C9.60554 13.4487 9.59825 13.4177 9.59008 13.3868C9.58776 13.3783 9.57926 13.3673 9.58213 13.362C9.62774 13.2767 9.59715 13.1851 9.60245 13.0969C9.60886 12.9886 9.604 12.8797 9.60289 12.7712C9.59892 12.3762 9.59328 11.9813 9.59141 11.5863C9.59107 11.5207 9.61151 11.4551 9.61316 11.3892C9.62156 11.062 9.62885 10.7346 9.6326 10.4072C9.63448 10.2425 9.62818 10.0775 9.62443 9.91269C9.62421 9.90098 9.61416 9.88949 9.60874 9.87779C9.60311 9.86542 9.58953 9.8483 9.5935 9.84112C9.62653 9.78181 9.60731 9.72526 9.60013 9.66353C9.58997 9.57661 9.60609 9.48671 9.60908 9.39802C9.61007 9.36776 9.60256 9.33717 9.60355 9.30691C9.60543 9.25125 9.6093 9.19547 9.61482 9.14003C9.62067 9.08116 9.61714 9.01722 9.63978 8.96498C9.67335 8.88756 9.71731 8.81014 9.77386 8.74829C9.82742 8.68976 9.90473 8.65695 9.98027 8.67661L9.98016 8.67672Z" fill="#0621FD"/>
</svg>
