<svg width="24" height="24" viewBox="0 0 24 24" fill="none" xmlns="http://www.w3.org/2000/svg">
<path d="M11.5432 16.08C10.9759 16.0968 10.4086 16.1169 9.84124 16.1286C9.60263 16.1335 9.3636 16.1222 9.12484 16.1146C9.06572 16.1128 9.00152 16.1082 8.94916 16.0842C8.86863 16.0472 8.80134 15.9887 8.78473 15.8914C8.75939 15.7424 8.73884 15.5925 8.70562 15.4453C8.61383 15.0379 8.46194 14.6571 8.18194 14.3385C8.04623 14.1842 7.898 14.0458 7.7195 13.937C7.50988 13.8092 7.28971 13.7101 7.0549 13.6445C6.75547 13.5609 6.44957 13.5461 6.14198 13.5887C5.56607 13.6686 5.06323 13.9098 4.66245 14.3271C4.41722 14.5825 4.26532 14.9013 4.19268 15.2552C4.15031 15.462 4.09386 15.6673 4.02544 15.867C3.98391 15.9882 3.85905 16.0296 3.74305 16.0338C3.60016 16.0392 3.45601 16.0182 3.3127 16.006C3.24443 16.0002 3.17686 15.987 3.10872 15.9792C2.9595 15.9625 2.8359 15.8942 2.71301 15.81C2.5445 15.6944 2.41766 15.5475 2.298 15.3846C2.1271 15.1518 2.07488 14.8798 2.00449 14.6122C1.99759 14.5857 2.00055 14.5561 2.00111 14.5281C2.01026 14.1255 2.01251 13.7225 2.03222 13.3203C2.04165 13.1285 2.1005 12.9389 2.1074 12.7473C2.11429 12.5556 2.17074 12.3757 2.20129 12.1903C2.21973 12.0787 2.26689 11.9717 2.30321 11.8633C2.38331 11.6244 2.53296 11.4241 2.6764 11.2232C2.79099 11.0628 2.96288 10.9571 3.1311 10.86C3.31031 10.7565 3.49669 10.6571 3.69209 10.5921C4.03825 10.4769 4.28334 10.2644 4.45677 9.94635C4.63837 9.6137 4.83334 9.28781 5.03536 8.96712C5.26425 8.60393 5.4978 8.24411 5.79441 7.92793C5.97347 7.73704 6.15169 7.54854 6.35863 7.38722C6.66453 7.14874 6.97466 6.91661 7.31885 6.73501C7.76004 6.50245 8.22192 6.32127 8.70843 6.21063C8.91791 6.1629 9.13287 6.13911 9.34544 6.10448C9.4582 6.08604 9.57025 6.06239 9.68358 6.05014C10.2402 5.98975 10.7979 5.97863 11.3544 6.04606C11.5621 6.07126 11.7665 6.12222 11.9727 6.15938C12.0911 6.18064 12.2126 6.18881 12.3289 6.21837C12.7501 6.32522 13.148 6.49231 13.5261 6.70545C13.7082 6.80807 13.891 6.91041 14.0666 7.02374C14.4971 7.30134 14.867 7.6454 15.2102 8.02675C15.6501 8.51566 16.0346 9.04202 16.3889 9.59357C16.4893 9.74969 16.6029 9.89877 16.722 10.0412C16.8788 10.2289 17.0948 10.3232 17.3272 10.3782C17.5151 10.4227 17.7071 10.45 17.8942 10.4976C18.1478 10.562 18.3996 10.6343 18.6498 10.7109C18.8626 10.7761 19.0794 10.8362 19.2808 10.9281C19.4972 11.0268 19.7046 11.1497 19.9036 11.2806C20.2059 11.4792 20.4565 11.7359 20.6717 12.0263C20.8242 12.232 20.9411 12.4562 21.0281 12.6971C21.1284 12.9743 21.1812 13.2621 21.2321 13.5512C21.2751 13.7943 21.2998 14.0382 21.3022 14.2849C21.3057 14.6386 21.2475 14.9837 21.1392 15.3187C21.1085 15.4137 21.0477 15.5055 20.9808 15.5814C20.7562 15.8369 20.4704 15.9812 20.129 16.0063C19.8487 16.0268 19.5683 16.0507 19.2876 16.0593C19.0424 16.0668 18.8968 15.9149 18.8658 15.6684C18.8053 15.1878 18.6507 14.7406 18.345 14.3581C18.1872 14.1607 18.009 13.9783 17.7786 13.8644C17.6272 13.7895 17.4687 13.7249 17.3075 13.6745C16.9792 13.5721 16.6416 13.5458 16.2993 13.5842C15.8657 13.6328 15.4738 13.7915 15.1187 14.0401C14.8462 14.2309 14.6384 14.4774 14.4989 14.7828C14.3854 15.0311 14.3242 15.2917 14.2713 15.5575C14.2458 15.6853 14.1882 15.8094 14.1294 15.9274C14.066 16.0543 13.9475 16.1141 13.8077 16.1179C13.6202 16.1231 13.4324 16.1241 13.2449 16.1194C12.7806 16.1079 12.3165 16.0917 11.8523 16.0786C11.7492 16.0757 11.646 16.0782 11.5428 16.0782C11.5428 16.0789 11.5428 16.0795 11.5428 16.0802L11.5432 16.08ZM15.4839 10.2154C15.4547 9.97774 15.354 9.79051 15.2349 9.61088C14.9412 9.16815 14.6159 8.75061 14.2425 8.37165C13.8332 7.95608 13.3854 7.59204 12.8435 7.35991C12.6494 7.27671 12.4547 7.18802 12.2517 7.13382C11.9633 7.05682 11.6691 6.99502 11.3736 6.95236C10.8382 6.87494 10.2997 6.88986 9.76424 6.95659C9.52718 6.98615 9.29405 7.04598 9.05854 7.08821C8.62256 7.16662 8.22769 7.34949 7.84098 7.556C7.56056 7.70579 7.29914 7.88316 7.06194 8.09348C6.89836 8.23848 6.73084 8.38347 6.59189 8.55057C6.34089 8.85239 6.11946 9.17617 5.96235 9.54022C5.89492 9.69647 5.85002 9.85414 5.85832 10.0249C5.86452 10.1524 5.98234 10.2825 6.11073 10.2893C6.42409 10.3059 6.73802 10.3315 7.05124 10.3257C7.74047 10.3132 8.429 10.2814 9.11865 10.3194C9.46495 10.3385 9.81252 10.3422 10.1594 10.3378C10.783 10.3298 11.4064 10.3101 12.0299 10.2959C12.7941 10.2784 13.5582 10.2621 14.3225 10.2445C14.7067 10.2356 15.0907 10.2251 15.4837 10.2152L15.4839 10.2154Z" fill="#0621FD"/>
<path d="M6.39548 17.864C6.16348 17.8777 5.93177 17.8393 5.7092 17.7558C5.2507 17.5838 4.89271 17.2918 4.68057 16.845C4.60652 16.6891 4.54627 16.5208 4.51671 16.3517C4.49024 16.1998 4.50488 16.0383 4.51811 15.8825C4.55795 15.4109 4.71984 14.9849 5.06263 14.6517C5.48931 14.237 6.00581 14.0174 6.60706 14.0696C6.93718 14.0983 7.26419 14.1777 7.54293 14.3751C7.80702 14.562 8.01452 14.7959 8.11503 15.1129C8.17008 15.2866 8.24764 15.4537 8.29536 15.6292C8.37181 15.9102 8.37434 16.1921 8.30057 16.4798C8.20513 16.8527 8.01424 17.16 7.72551 17.4074C7.50055 17.6001 7.2397 17.7296 6.95224 17.8042C6.77177 17.8511 6.58848 17.8736 6.39534 17.8638L6.39548 17.864ZM6.42786 15.0455C6.25864 15.0515 6.06846 15.1172 5.89545 15.2306C5.62418 15.4084 5.46595 15.6519 5.48284 15.986C5.48861 16.1004 5.48143 16.2305 5.53267 16.3252C5.71202 16.6568 5.9809 16.8779 6.37844 16.8921C6.75853 16.9058 7.05472 16.747 7.22858 16.4124C7.34824 16.1821 7.38273 15.9363 7.30417 15.6654C7.21886 15.3711 6.88776 15.05 6.42771 15.0455H6.42786Z" fill="#0621FD"/>
<path d="M16.5685 17.8882C16.1511 17.8912 15.8035 17.7541 15.47 17.5635C15.1924 17.4048 14.9962 17.1782 14.851 16.8958C14.673 16.549 14.6282 16.1849 14.6616 15.8025C14.6809 15.5808 14.7266 15.3706 14.8211 15.1664C14.9603 14.8651 15.1537 14.6144 15.4278 14.4263C15.6701 14.2602 15.9335 14.1408 16.2205 14.0783C16.8827 13.9342 17.4696 14.0644 17.9316 14.5837C18.0441 14.7101 18.1274 14.8686 18.1985 15.024C18.2816 15.2059 18.3503 15.3971 18.4011 15.5905C18.5078 15.9964 18.4744 16.389 18.2876 16.7748C18.0724 17.219 17.7321 17.5184 17.2973 17.7301C17.0574 17.847 16.8077 17.8998 16.5686 17.8881L16.5685 17.8882ZM17.4907 15.8766C17.4758 15.8146 17.4562 15.7248 17.4321 15.6361C17.3292 15.2584 17.0761 15.0532 16.695 14.9881C16.4398 14.9446 16.2212 15.0426 16.0038 15.15C15.9594 15.1721 15.9183 15.2051 15.8825 15.2401C15.6501 15.4676 15.5644 15.7486 15.5919 16.067C15.5987 16.1442 15.607 16.226 15.6381 16.2949C15.6781 16.3834 15.7333 16.4684 15.7971 16.5419C15.963 16.7333 16.1466 16.8989 16.4135 16.9424C16.7683 17.0001 17.0437 16.8713 17.2552 16.5955C17.4093 16.3945 17.4628 16.1552 17.4908 15.8766H17.4907Z" fill="#0621FD"/>
</svg>
