<svg width="24" height="24" viewBox="0 0 24 24" fill="none" xmlns="http://www.w3.org/2000/svg">
<path d="M8.10721 6.98639C8.17634 6.62405 8.1807 6.27144 8.21626 5.92195C8.2391 5.69636 8.30648 5.479 8.39594 5.26975C8.47105 5.09407 8.569 4.93087 8.69452 4.78863C8.77151 4.70141 8.86634 4.6263 8.96328 4.56092C9.29593 4.33657 9.66838 4.21292 10.0603 4.13756C10.8299 3.98958 11.6066 3.98159 12.385 4.01865C12.5851 4.02813 12.7867 4.05209 12.9829 4.09276C13.2844 4.15515 13.581 4.23875 13.8573 4.38261C14.081 4.49915 14.2478 4.67558 14.3949 4.87447C14.5764 5.1199 14.6911 5.39603 14.7574 5.69199C14.7868 5.82338 14.7972 5.959 14.823 6.09126C14.8456 6.20743 14.8812 6.32097 14.9045 6.43701C14.9231 6.5291 14.9367 6.6228 14.9436 6.71651C14.9518 6.82855 14.9693 6.85575 15.0827 6.85812C15.4108 6.86511 15.739 6.86923 16.0671 6.87247C16.8648 6.88033 17.6624 6.88782 18.4601 6.89356C18.6711 6.89506 18.8824 6.90691 19.0853 6.96006C19.3155 7.02033 19.5346 7.11029 19.6853 7.31542C19.7848 7.4508 19.8458 7.60053 19.8814 7.76186C19.9299 7.98171 19.9291 8.20555 19.9321 8.4294C19.9491 9.68088 19.9653 10.9325 19.9873 12.1838C19.9963 12.6952 20.0097 13.2067 20.0382 13.7172C20.0771 14.4152 20.0925 15.113 20.0805 15.8118C20.0723 16.2939 20.0597 16.776 20.0515 17.2583C20.0448 17.6656 20.0388 18.073 20.0383 18.4804C20.0381 18.6676 20.0147 18.8502 19.9485 19.0238C19.8817 19.1985 19.7548 19.3324 19.6172 19.4548C19.4451 19.6077 19.2383 19.6872 19.0155 19.7289C18.9718 19.7371 18.9251 19.7288 18.8798 19.7297C18.261 19.7421 17.6422 19.762 17.0234 19.7656C16.5085 19.7686 15.9934 19.7544 15.4785 19.7445C14.5066 19.7258 13.535 19.6946 12.5625 19.7229C11.8442 19.7437 11.1255 19.7569 10.4069 19.7615C8.97377 19.7707 7.54049 19.7691 6.10734 19.7778C5.58404 19.7811 5.06099 19.8026 4.53769 19.8129C4.37598 19.8161 4.21365 19.8146 4.05219 19.8051C3.99031 19.8015 3.92979 19.7703 3.86928 19.75C3.53301 19.6368 3.30043 19.4183 3.20136 19.073C3.15432 18.9089 3.11015 18.7432 3.1094 18.5696C3.10666 17.9626 3.10928 17.3553 3.09668 16.7484C3.08495 16.1873 3.05588 15.6267 3.03529 15.0659C3.02256 14.7169 3.00222 14.3678 3.00135 14.0188C2.99885 12.9501 2.9991 11.8813 3.00834 10.8126C3.01358 10.2099 3.04165 9.60739 3.05313 9.00473C3.05687 8.80983 3.04252 8.61431 3.03304 8.41929C3.02119 8.17474 3.04302 7.93193 3.13274 7.70571C3.19974 7.53677 3.3199 7.39453 3.46314 7.27686C3.62696 7.14223 3.81762 7.07735 4.0225 7.02632C4.25433 6.96855 4.48229 6.99026 4.71237 7.00099C5.64693 7.04454 6.58148 7.01858 7.51604 7.00336C7.66976 7.00086 7.82335 6.998 7.97707 6.9945C8.01775 6.9935 8.05843 6.98951 8.10709 6.98639H8.10721ZM9.191 6.97778C9.23916 6.98103 9.27547 6.98577 9.3119 6.98564C9.49058 6.98502 9.66925 6.98589 9.84768 6.98103C10.7237 6.95732 11.5996 6.93124 12.4757 6.90741C12.8618 6.89693 13.248 6.89007 13.6343 6.88121C13.6759 6.88021 13.7175 6.88008 13.7587 6.87509C13.8885 6.85962 13.9064 6.83991 13.893 6.70665C13.8835 6.61307 13.8629 6.52061 13.8482 6.4274C13.808 6.17337 13.7491 5.92469 13.659 5.68288C13.5832 5.47925 13.4433 5.34699 13.2481 5.25915C12.9703 5.134 12.6732 5.08571 12.3765 5.06949C11.869 5.04167 11.3599 4.98764 10.8517 5.08284C10.6471 5.12115 10.4369 5.12851 10.2314 5.16282C10.0941 5.18578 9.95673 5.22072 9.82659 5.26963C9.61211 5.35011 9.42944 5.47713 9.34459 5.70334C9.2993 5.82437 9.24328 5.94316 9.23641 6.07617C9.2328 6.14641 9.22543 6.21654 9.2187 6.28666C9.20472 6.43077 9.18538 6.57451 9.17702 6.719C9.17241 6.79948 9.18526 6.88083 9.19125 6.97766L9.191 6.97778Z" fill="#0621FD"/>
</svg>
