<svg width="24" height="24" viewBox="0 0 24 24" fill="none" xmlns="http://www.w3.org/2000/svg">
<path d="M11.3064 21.7645C10.5314 21.7694 9.21808 21.7855 7.90475 21.7808C7.71075 21.7801 7.51623 21.7832 7.32276 21.7962C7.07466 21.8127 6.82825 21.8131 6.58352 21.7665C5.95106 21.6463 5.50042 21.2996 5.2676 20.6922C5.17973 20.4629 5.15902 20.2193 5.15203 19.9749C5.14401 19.6966 5.17649 19.4202 5.18969 19.143C5.20613 18.801 5.22489 18.4595 5.2346 18.1172C5.24922 17.598 5.27122 17.0789 5.29491 16.5599C5.31264 16.1714 5.33982 15.7833 5.35962 15.3948C5.3943 14.7113 5.41514 14.0271 5.45487 13.3441C5.48865 12.764 5.51091 12.1838 5.52307 11.6031C5.52799 11.366 5.52475 11.1286 5.52747 10.8914C5.53058 10.6218 5.55154 10.3546 5.6169 10.0912C5.68717 9.8078 5.89644 9.63166 6.18893 9.62183C6.32274 9.6173 6.45617 9.62455 6.58947 9.63516C6.66764 9.64137 6.67709 9.62726 6.65457 9.55181C6.59815 9.36364 6.49655 9.19617 6.41165 9.02107C6.13742 8.45577 5.86914 7.88815 5.63657 7.30383C5.42213 6.76506 5.23978 6.21672 5.11308 5.65077C5.02766 5.26964 4.97939 4.88371 5.00851 4.49222C5.03581 4.12403 5.12887 3.77564 5.36234 3.47979C5.51207 3.29006 5.70076 3.15184 5.93397 3.07549C6.13923 3.00819 6.34928 2.9849 6.56139 3.00961C6.81233 3.03886 7.04541 3.12868 7.27047 3.24412C7.68603 3.4574 8.03481 3.7561 8.36159 4.08339C8.63259 4.35491 8.88056 4.64701 9.1126 4.9523C9.29081 5.18655 9.46902 5.42067 9.64231 5.65893C9.90322 6.01754 10.1425 6.38936 10.3681 6.77037C10.6915 7.31677 10.9973 7.87288 11.2728 8.44516C11.4227 8.75667 11.5728 9.06818 11.7039 9.38836C11.7178 9.42201 11.738 9.45307 11.7547 9.48555C11.8095 9.59219 11.8886 9.63995 12.0157 9.62856C12.2019 9.61173 12.1974 9.65677 12.2752 9.42395C12.3125 9.31252 12.346 9.19915 12.3791 9.08733C12.4134 8.97189 12.442 8.85231 12.4689 8.7335C12.4992 8.59982 12.5424 8.4691 12.5824 8.33774C12.6351 8.16497 12.6726 7.98793 12.7332 7.81736C12.8638 7.44916 13.046 7.11125 13.299 6.811C13.4849 6.59047 13.6883 6.38677 13.8844 6.17608C14.1081 5.93575 14.2803 5.66475 14.3807 5.35065C14.4037 5.2787 14.4114 5.20105 14.3649 5.13892C14.2854 5.0328 14.2799 4.92694 14.3168 4.80218C14.3705 4.62125 14.398 4.43308 14.4739 4.25785C14.5674 4.04159 14.8072 3.98296 15.0029 4.0148C15.2575 4.05634 15.5053 4.12597 15.755 4.1877C16.0529 4.26147 16.3537 4.32411 16.648 4.41263C16.7283 4.43683 16.8082 4.45961 16.8817 4.50051C17.0633 4.60158 17.148 4.76892 17.1069 4.97185C17.0653 5.1762 17.0187 5.3799 16.9562 5.57933C16.9327 5.6544 16.8797 5.70448 16.8105 5.73489C16.7418 5.76518 16.7055 5.81241 16.6881 5.88644C16.6222 6.16521 16.6181 6.44255 16.6864 6.72119C16.7115 6.82343 16.723 6.92968 16.756 7.02894C16.8194 7.21983 16.8624 7.4159 16.9139 7.60977C17.0176 7.99983 17.0393 8.39456 16.9887 8.79498C16.9676 8.96193 16.9328 9.1259 16.8993 9.29026C16.8849 9.36105 16.8511 9.42731 16.8611 9.50341C16.8695 9.56708 16.9024 9.59193 16.965 9.60474C17.0829 9.62882 17.2032 9.6195 17.3218 9.64461C17.4945 9.6811 17.5855 9.78477 17.6287 9.94576C17.6785 10.1312 17.6817 10.3209 17.6781 10.5105C17.6707 10.9011 17.7146 11.2902 17.7098 11.6803C17.7071 11.8998 17.7248 12.1186 17.7367 12.3369C17.7625 12.8072 17.7883 13.2775 17.8153 13.7477C17.8392 14.163 17.8528 14.5787 17.8676 14.9943C17.8794 15.3276 17.8866 15.6612 17.9028 15.9944C17.9165 16.2762 17.9177 16.5585 17.9293 16.8402C17.9381 17.0542 17.9464 17.2683 17.9665 17.4819C17.9801 17.6254 17.9824 17.77 17.9934 17.9139C18.0131 18.1722 18.041 18.4301 18.0547 18.6887C18.0622 18.8299 18.0705 18.9712 18.0774 19.1127C18.0973 19.5178 18.1108 19.9228 18.06 20.3268C18.0265 20.5937 17.9654 20.8556 17.8095 21.0793C17.5874 21.3979 17.2795 21.5936 16.8998 21.6824C16.5662 21.7604 16.2285 21.7712 15.8885 21.7689C14.5406 21.7598 13.1928 21.7568 11.3064 21.7641V21.7645ZM9.3792 9.64926C9.3792 9.65017 9.3792 9.65095 9.3792 9.65185C9.87953 9.65185 10.3799 9.65185 10.8802 9.65185C10.9853 9.65185 11.0069 9.61859 10.9714 9.52282C10.9261 9.40078 10.8727 9.28224 10.8235 9.16188C10.7325 8.93915 10.6293 8.72237 10.5102 8.51362C10.4837 8.46716 10.45 8.43028 10.3766 8.44736C10.2256 8.48256 10.0928 8.55154 9.96145 8.62945C9.73899 8.76146 9.53878 8.92284 9.33779 9.0841C9.20591 9.18996 9.07106 9.28922 8.90062 9.33465C8.80032 9.36144 8.70067 9.28405 8.67427 9.20174C8.63945 9.0929 8.6854 8.99195 8.72668 8.90006C8.77754 8.78695 8.84303 8.67876 8.91899 8.57794C9.03871 8.41863 9.16774 8.26915 9.31605 8.13521C9.4949 7.97356 9.69537 7.84285 9.89519 7.71033C9.96469 7.66425 9.9898 7.57962 9.95511 7.50455C9.87785 7.33747 9.76383 7.19266 9.66949 7.03593C9.65124 7.00578 9.62794 6.99814 9.58834 7.00862C9.43252 7.04991 9.28939 7.12044 9.1491 7.19589C9.073 7.23679 8.99328 7.27238 8.92378 7.32557C8.76486 7.44722 8.6036 7.56577 8.44636 7.68949C8.36897 7.75032 8.29908 7.8202 8.22208 7.88219C8.13188 7.95493 8.04801 8.03542 7.93801 8.07826C7.87563 8.10259 7.80238 8.12136 7.7466 8.09107C7.66584 8.0472 7.60269 7.9284 7.63608 7.818C7.70519 7.58971 7.82969 7.39325 7.96143 7.19835C8.03106 7.09533 8.10094 6.99089 8.19413 6.91169C8.38178 6.75199 8.5719 6.59436 8.77961 6.45976C8.82672 6.42922 8.87564 6.40256 8.91861 6.3605C8.9463 6.33332 9.00998 6.31947 9.05333 6.29126C9.12813 6.24247 9.13888 6.20365 9.08944 6.12858C8.98668 5.97276 8.86516 5.83118 8.74221 5.69128C8.70623 5.65025 8.65615 5.62761 8.59894 5.64573C8.38295 5.71406 8.18507 5.81902 7.99909 5.94714C7.84107 6.05598 7.68745 6.17077 7.5416 6.29592C7.46279 6.36361 7.36844 6.40735 7.27034 6.43776C7.23009 6.45019 7.1813 6.47529 7.1373 6.43893C7.09369 6.40295 7.05007 6.36464 7.02613 6.31352C7.01086 6.28091 6.99442 6.24221 7.00788 6.20377C7.03752 6.11914 7.05616 6.03165 7.0999 5.95037C7.20861 5.74887 7.33906 5.56432 7.49734 5.39931C7.63944 5.25113 7.80652 5.13414 7.97437 5.01779C8.0871 4.93962 8.09732 4.88436 8.00259 4.75844C7.94771 4.68557 7.87615 4.62928 7.8117 4.56599C7.56787 4.32618 7.3049 4.1107 7.01487 3.92848C6.81168 3.80074 6.59763 3.71209 6.35148 3.7262C6.11153 3.74005 5.93669 3.8507 5.83587 4.07162C5.7735 4.20815 5.75149 4.35258 5.74463 4.50193C5.73532 4.70408 5.74852 4.90377 5.77401 5.10437C5.79472 5.26757 5.8206 5.43011 5.85697 5.58943C5.909 5.8172 5.98186 6.04019 6.04281 6.26602C6.10429 6.4938 6.19087 6.7129 6.27551 6.93201C6.35898 7.14814 6.43404 7.36737 6.53201 7.57884C6.59336 7.71123 6.65845 7.84402 6.70608 7.98418C6.74736 8.1057 6.81156 8.2192 6.85983 8.33852C6.93722 8.52967 7.02924 8.71422 7.1285 8.89372C7.24963 9.1127 7.38035 9.3274 7.52736 9.53085C7.54639 9.55712 7.57098 9.58223 7.60075 9.60358C7.68189 9.66169 7.77598 9.64435 7.85958 9.64564C8.36599 9.65366 8.87266 9.64965 9.37933 9.64965L9.3792 9.64926ZM14.5364 9.63645C14.5364 9.63063 14.5364 9.62468 14.5364 9.61885C14.5924 9.61885 14.6484 9.61989 14.7045 9.61872C15.1593 9.60837 15.614 9.59801 16.0689 9.58676C16.1505 9.58468 16.1879 9.55751 16.2009 9.48309C16.2072 9.44802 16.2162 9.41308 16.2214 9.37749C16.251 9.17521 16.2834 8.97306 16.3235 8.77259C16.3762 8.50871 16.3657 8.24405 16.3302 7.98159C16.2822 7.62659 16.1547 7.28817 16.0975 6.93421C16.0799 6.82524 16.0333 6.72209 16.0201 6.61053C15.9976 6.41977 15.983 6.22888 16.0222 6.03954C16.0438 5.93523 16.0583 5.83105 16.0636 5.72506C16.0656 5.68649 16.0503 5.66371 16.0134 5.65414C15.8078 5.6003 15.6019 5.54737 15.3966 5.49172C15.3108 5.46842 15.2233 5.45289 15.1384 5.42455C15.0393 5.39155 14.9891 5.42804 14.9664 5.53145C14.9393 5.65582 14.9079 5.77967 14.8496 5.89317C14.7764 6.03514 14.7047 6.17867 14.6043 6.30472C14.5192 6.41149 14.4339 6.51787 14.3446 6.62141C14.2422 6.73995 14.1198 6.83857 14.0228 6.96216C13.965 7.03593 13.8934 7.09883 13.834 7.17143C13.7562 7.26655 13.6804 7.36323 13.611 7.46521C13.5229 7.5945 13.4396 7.72819 13.39 7.87495C13.3219 8.07645 13.2467 8.27588 13.1922 8.48243C13.171 8.56306 13.1344 8.64006 13.1181 8.72328C13.1011 8.80999 13.0721 8.89502 13.054 8.98017C13.0178 9.14997 12.9593 9.31394 12.9313 9.48581C12.9087 9.62519 12.9108 9.63632 13.049 9.63658C13.5449 9.63736 14.0408 9.63684 14.5368 9.63684L14.5364 9.63645ZM9.16515 12.1266C9.16062 12.024 9.15984 11.9246 9.15104 11.8259C9.13888 11.6894 9.0963 11.5688 8.98124 11.4775C8.81559 11.3463 8.54148 11.3682 8.43329 11.5982C8.39226 11.6854 8.38062 11.7772 8.37505 11.8725C8.35913 12.1474 8.37738 12.4211 8.40559 12.6936C8.42151 12.847 8.45322 12.9999 8.48337 13.1517C8.52556 13.3642 8.57604 13.5757 8.65226 13.7798C8.67504 13.8407 8.70662 13.9005 8.72176 13.9616C8.74014 14.0359 8.76382 14.1087 8.79307 14.1769C8.88547 14.3923 9.00053 14.5965 9.12542 14.7952C9.30246 15.0768 9.527 15.3157 9.77522 15.5353C9.98061 15.717 10.2212 15.8378 10.4666 15.95C10.5774 16.0006 10.6975 16.0309 10.8128 16.072C10.9954 16.137 11.1824 16.1766 11.3765 16.1913C11.6676 16.2135 11.9569 16.2104 12.2414 16.1422C12.3414 16.1182 12.4437 16.1005 12.5395 16.0512C12.5933 16.0235 12.6662 16.0289 12.7184 15.9834C12.7272 15.9756 12.7423 15.9729 12.7547 15.9717C12.8904 15.9589 12.9991 15.8806 13.1106 15.8158C13.3006 15.7054 13.4704 15.5666 13.633 15.4179C13.7214 15.3372 13.7982 15.2476 13.8784 15.16C14.0276 14.9971 14.1325 14.8041 14.2493 14.6199C14.3408 14.4756 14.4145 14.3202 14.4762 14.1596C14.5676 13.9221 14.6531 13.6828 14.7071 13.4337C14.7533 13.2209 14.7938 13.0071 14.8229 12.7909C14.8468 12.6124 14.8665 12.4334 14.8818 12.2544C14.8964 12.0836 14.9031 11.9103 14.8705 11.7401C14.8502 11.6344 14.8098 11.534 14.7189 11.4669C14.5998 11.3791 14.4661 11.3734 14.3362 11.4301C14.1895 11.4941 14.1275 11.6261 14.1189 11.7772C14.1028 12.0549 14.1005 12.3327 14.0734 12.6105C14.0419 12.9339 13.9816 13.2497 13.8855 13.5586C13.8115 13.797 13.7199 14.0299 13.5974 14.2476C13.5348 14.359 13.4513 14.4597 13.3703 14.5595C13.1592 14.8196 12.9212 15.0483 12.6065 15.1816C12.575 15.1949 12.5626 15.2374 12.5322 15.2383C12.4579 15.2406 12.4002 15.2876 12.3338 15.3037C12.1559 15.3465 11.9849 15.4254 11.7944 15.4111C11.6413 15.3996 11.4883 15.4199 11.3334 15.3923C11.1275 15.3557 10.9305 15.296 10.7395 15.2157C10.5788 15.1481 10.4276 15.064 10.2802 14.9664C10.1122 14.8551 9.99368 14.7068 9.8807 14.5506C9.79994 14.4388 9.72333 14.3223 9.66366 14.1966C9.64115 14.149 9.59896 14.1087 9.58342 14.0632C9.5402 13.9367 9.47886 13.8181 9.43744 13.6909C9.39719 13.5671 9.355 13.4441 9.32122 13.3184C9.26985 13.1271 9.24901 12.9294 9.20294 12.7369C9.17822 12.6336 9.19103 12.5284 9.16566 12.4228C9.14392 12.3324 9.15958 12.2238 9.16489 12.1268L9.16515 12.1266Z" fill="#0722FC"/>
</svg>
