<svg width="24" height="24" viewBox="0 0 24 24" fill="none" xmlns="http://www.w3.org/2000/svg">
<path d="M9.33579 5.12136C9.35295 5.10686 9.36811 5.09409 9.38328 5.08145C9.38514 5.08704 9.387 5.09262 9.38873 5.09821C9.4164 5.09036 9.44381 5.08212 9.47161 5.07506C9.48146 5.07254 9.49423 5.06828 9.50208 5.07214C9.5674 5.10433 9.62434 5.0869 9.683 5.05178C9.6999 5.04167 9.72983 5.05338 9.76615 5.05591C9.78265 5.04048 9.80806 5.0132 9.85249 5.04979C9.86766 5.06229 9.9069 5.04393 9.93537 5.04207C10.0212 5.03622 10.1087 5.04048 10.1923 5.02385C10.2646 5.00948 10.3339 5.01041 10.4063 5.01121C10.5807 5.01307 10.7554 4.99924 10.9299 5.00003C11.3125 5.00176 11.6951 5.01001 12.0777 5.0128C12.518 5.016 12.9582 5.0148 13.3984 5.01866C13.5084 5.01959 13.6181 5.03409 13.7283 5.03861C13.7629 5.03994 13.798 5.0289 13.8214 5.02518C13.8734 5.03622 13.9171 5.04606 13.9608 5.05471C14.1698 5.09555 14.3784 5.13905 14.5881 5.17577C14.7147 5.19785 14.8327 5.24734 14.9557 5.281C15.0855 5.31652 15.2118 5.36548 15.3387 5.41097C15.4631 5.45554 15.5857 5.50476 15.7102 5.54893C16.1292 5.6978 16.5507 5.83961 16.9669 5.99606C17.1707 6.07269 17.3644 6.17592 17.5627 6.26678C17.694 6.32691 17.809 6.41378 17.9278 6.49347C18.0504 6.57582 18.1597 6.67826 18.2839 6.75768C18.406 6.83577 18.4825 6.95576 18.5847 7.05168C18.7954 7.24937 18.9484 7.49389 19.1156 7.72749C19.2034 7.85015 19.2605 7.98744 19.3425 8.11236C19.4212 8.23236 19.4622 8.37723 19.5213 8.5104C19.5476 8.56986 19.5819 8.626 19.6045 8.68653C19.6278 8.74866 19.643 8.81398 19.6584 8.87877C19.6774 8.95846 19.6955 9.03867 19.7091 9.11943C19.7183 9.1733 19.7179 9.22878 19.7239 9.28332C19.7284 9.3239 19.7364 9.36421 19.7426 9.40465C19.7449 9.41968 19.751 9.43538 19.7483 9.44948C19.7119 9.64318 19.7477 9.69041 19.8992 9.79896C19.975 9.85324 20.0498 9.90818 20.1323 9.95062C20.181 9.97576 20.2364 9.988 20.2889 10.0061C20.301 10.0102 20.3148 10.0121 20.325 10.0191C20.5032 10.1426 20.6841 10.2623 20.8568 10.3928C20.9156 10.4373 20.9691 10.4915 21.007 10.5651C21.051 10.6505 21.094 10.7309 21.0938 10.8285C21.0937 10.929 21.1042 11.0313 21.0887 11.1293C21.0732 11.2269 21.0046 11.3012 20.9256 11.3617C20.8041 11.455 20.6699 11.5231 20.5146 11.5166C20.4247 11.5128 20.3356 11.482 20.2466 11.461C20.1074 11.4281 19.9694 11.3892 19.8294 11.3605C19.7475 11.3438 19.6629 11.3372 19.5794 11.3359C19.5613 11.3356 19.5299 11.3759 19.5267 11.4004C19.5209 11.445 19.5343 11.4917 19.535 11.5374C19.5368 11.6658 19.5405 11.7946 19.5338 11.9226C19.5318 11.9601 19.4966 11.9955 19.4779 12.0325C19.447 12.0934 19.4587 12.1257 19.5262 12.1444C19.5867 12.161 19.6506 12.1658 19.7116 12.1811C19.8428 12.2139 19.9565 12.2867 20.0622 12.3645C20.138 12.4204 20.2066 12.4992 20.2503 12.5824C20.3116 12.6996 20.364 12.8272 20.388 12.9564C20.4122 13.0869 20.3981 13.2247 20.3985 13.3592C20.3986 13.4095 20.3934 13.4598 20.3885 13.5099C20.382 13.5778 20.3885 13.6519 20.3624 13.7116C20.3112 13.8288 20.246 13.941 20.1779 14.0497C20.0998 14.1742 19.9822 14.2604 19.8528 14.3232C19.7893 14.3539 19.7108 14.354 19.6387 14.3661C19.5203 14.386 19.4009 14.4006 19.2831 14.4236C19.0442 14.4703 18.8038 14.4889 18.5602 14.4877C17.873 14.4844 17.1856 14.4839 16.4983 14.488C16.1913 14.4899 15.8844 14.5044 15.5775 14.5149C15.3526 14.5226 15.1279 14.533 14.9033 14.5422C14.6982 14.5505 14.4934 14.5597 14.2884 14.5669C14.1318 14.5725 13.9752 14.5765 13.8186 14.5799C13.4004 14.5892 12.9821 14.5966 12.5639 14.6075C12.3282 14.6136 12.0929 14.6284 11.8573 14.6339C11.4152 14.6445 10.9732 14.6526 10.5311 14.6586C10.4079 14.6602 10.2846 14.6519 10.1614 14.6459C9.90663 14.6334 9.65214 14.6141 9.39738 14.6075C9.21659 14.6028 9.03526 14.6135 8.85434 14.6189C8.76175 14.6217 8.66929 14.6294 8.57669 14.6325C8.39976 14.6385 8.22269 14.6411 8.04589 14.648C7.89875 14.6538 7.75149 14.6609 7.60475 14.6727C7.51681 14.6797 7.42968 14.6981 7.34201 14.709C7.32392 14.7112 7.30409 14.6985 7.28573 14.6999C7.17266 14.7094 7.05984 14.7217 6.94676 14.7312C6.92135 14.7333 6.89541 14.726 6.86974 14.726C6.45334 14.7271 6.03681 14.7284 5.62042 14.73C5.52729 14.7304 5.43364 14.738 5.34118 14.7308C5.25364 14.724 5.16744 14.7018 5.08057 14.687C5.06327 14.6841 5.04558 14.6838 5.02802 14.6822C4.94301 14.6747 4.858 14.6668 4.77299 14.6594C4.75317 14.6576 4.73321 14.6567 4.71326 14.6568C4.46502 14.6575 4.21664 14.6568 3.9684 14.6598C3.70353 14.6629 3.48695 14.5479 3.29272 14.3838C3.14798 14.2616 3.051 14.1043 3.00311 13.9205C2.98887 13.8657 2.99313 13.8061 2.98794 13.7487C2.97477 13.6045 2.95189 13.4605 2.95069 13.3161C2.9499 13.2143 2.96985 13.1102 2.99632 13.0112C3.024 12.9072 3.06058 12.8027 3.11206 12.7088C3.14692 12.6454 3.21171 12.5969 3.26771 12.5468C3.31215 12.507 3.35964 12.4675 3.41245 12.4411C3.496 12.3996 3.58327 12.3635 3.67227 12.3361C3.7308 12.3181 3.73134 12.2872 3.71657 12.2429C3.68517 12.1485 3.65231 12.0544 3.62132 11.9598C3.61533 11.9416 3.61307 11.9214 3.61307 11.9021C3.6124 11.7801 3.61121 11.6581 3.61334 11.5363C3.6144 11.4732 3.62052 11.4101 3.62664 11.3473C3.63036 11.3085 3.61719 11.288 3.57675 11.2888C3.4968 11.2903 3.41631 11.2988 3.33716 11.2915C3.19814 11.2786 3.05712 11.2674 2.92209 11.2344C2.73584 11.1889 2.5504 11.134 2.37213 11.0638C2.21661 11.0027 2.07653 10.9074 2.02012 10.7353C1.96505 10.5668 2.02012 10.3235 2.2214 10.2727C2.34805 10.2406 2.47882 10.2092 2.60813 10.2076C2.87021 10.2044 3.0973 10.1101 3.31215 9.97537C3.44292 9.89328 3.46593 9.81027 3.44265 9.65542C3.42922 9.56655 3.44172 9.47396 3.43933 9.3831C3.43361 9.17158 3.49374 8.97322 3.56358 8.77833C3.63396 8.5821 3.70579 8.38534 3.79333 8.19644C3.92038 7.92239 4.06898 7.65925 4.26041 7.42338C4.3417 7.32334 4.42245 7.22196 4.51291 7.13044C4.58541 7.057 4.67242 6.99807 4.75197 6.93155C4.80918 6.88379 4.86133 6.82938 4.92159 6.78641C5.09081 6.66588 5.25923 6.54309 5.43577 6.43374C5.57279 6.349 5.72205 6.28421 5.86467 6.20838C5.97868 6.14772 6.08976 6.0812 6.2047 6.02253C6.2663 5.99114 6.33507 5.97397 6.39813 5.94497C6.55125 5.87433 6.7069 5.80742 6.85404 5.72547C6.96845 5.66188 7.09989 5.6523 7.2139 5.58871C7.28973 5.5464 7.38139 5.5335 7.46014 5.49532C7.59504 5.42987 7.7475 5.42082 7.8808 5.35856C7.9509 5.32583 8.02314 5.33581 8.09219 5.31213C8.16429 5.28739 8.24784 5.29297 8.31648 5.26278C8.38366 5.23324 8.4704 5.28007 8.52162 5.20437C8.52335 5.20185 8.53013 5.20105 8.53412 5.20185C8.6919 5.23032 8.8401 5.15861 8.99562 5.15781C9.06307 5.15755 9.13038 5.14198 9.1977 5.1328C9.2106 5.13107 9.22457 5.12974 9.23548 5.12362C9.28523 5.09635 9.28497 5.09582 9.33539 5.12083L9.33579 5.12136ZM15.3741 11.8728C15.3733 11.8704 15.3726 11.868 15.3718 11.8658C15.3496 11.8658 15.3264 11.87 15.3055 11.865C15.2458 11.8503 15.1866 11.8329 15.1278 11.8146C14.9009 11.7441 14.692 11.6354 14.4891 11.5132C14.402 11.4608 14.311 11.4148 14.2208 11.3676C13.9293 11.215 13.6291 11.0902 13.2951 11.0677C13.0611 11.052 12.8419 11.1074 12.633 11.2053C12.3696 11.3287 12.1103 11.461 11.8473 11.5853C11.654 11.6769 11.4476 11.7338 11.2366 11.7558C10.9907 11.7813 10.7453 11.7558 10.5117 11.6665C10.3534 11.606 10.1966 11.5408 10.0415 11.4723C9.93164 11.4237 9.82921 11.3568 9.71706 11.3149C9.55423 11.254 9.387 11.2186 9.21393 11.292C9.05123 11.3612 8.88547 11.4233 8.72024 11.4865C8.58774 11.5372 8.45577 11.59 8.32047 11.6316C8.22828 11.6601 8.13156 11.6798 8.03551 11.6878C7.91219 11.698 7.78528 11.7077 7.66408 11.69C7.51282 11.668 7.36928 11.6111 7.23465 11.5319C7.16228 11.4893 7.0782 11.4648 6.99705 11.4395C6.85737 11.396 6.71928 11.3403 6.56881 11.3471C6.45826 11.3521 6.34864 11.3529 6.24687 11.4147C6.17517 11.4583 6.09029 11.4797 6.01273 11.5143C5.90285 11.5634 5.79722 11.6238 5.68441 11.6646C5.52955 11.7206 5.37244 11.7801 5.21107 11.8058C5.067 11.8288 4.91055 11.8373 4.77286 11.7652C4.66111 11.7067 4.55774 11.6323 4.45038 11.5654C4.36777 11.5138 4.28755 11.4575 4.20134 11.4129C4.13509 11.3787 4.09319 11.3963 4.07643 11.4535C4.02029 11.6453 3.98942 11.8386 4.08467 12.0252C4.12871 12.1114 4.18525 12.1965 4.3087 12.1871C4.35181 12.1837 4.39744 12.2146 4.43775 12.1731C4.44094 12.1699 4.45664 12.18 4.46701 12.1824C4.49841 12.1896 4.52994 12.2014 4.56133 12.2016C4.69863 12.2024 4.83605 12.1988 4.97334 12.1982C5.74467 12.195 6.516 12.1896 7.2872 12.1901C7.98762 12.1906 8.68818 12.1976 9.3886 12.2024C9.5215 12.2033 9.6544 12.2083 9.78744 12.2098C9.81723 12.2101 9.84757 12.1982 9.87697 12.2009C9.91448 12.2042 9.9508 12.2199 9.98845 12.224C10.0542 12.2312 10.1203 12.2355 10.1863 12.2371C10.2226 12.238 10.265 12.2175 10.2944 12.2303C10.3764 12.2657 10.4557 12.2536 10.5373 12.2401C10.5517 12.2377 10.5673 12.2447 10.5823 12.2453C10.6454 12.2477 10.7086 12.2497 10.7718 12.2509C10.7833 12.2512 10.8021 12.2409 10.8055 12.2452C10.8627 12.3152 10.9556 12.2224 11.0117 12.2914C11.1767 12.3003 11.3415 12.31 11.5065 12.3176C11.5626 12.3202 11.6174 12.3137 11.6744 12.3314C11.7654 12.3596 11.8626 12.3678 11.9531 12.3971C12.0332 12.4231 12.1063 12.4692 12.1848 12.501C12.4037 12.5896 12.6256 12.6708 12.8426 12.7636C13.0752 12.8631 13.3107 12.9561 13.5331 13.0797C13.7102 13.178 13.8973 13.2584 14.081 13.3444C14.1983 13.3994 14.3231 13.4406 14.434 13.506C14.5205 13.5569 14.6073 13.5545 14.6976 13.5542C14.7131 13.5542 14.7286 13.5379 14.7271 13.5387C14.7916 13.5282 14.8454 13.5303 14.8889 13.5102C14.9843 13.466 15.0747 13.411 15.1668 13.3597C15.2722 13.3012 15.3791 13.2453 15.4814 13.1817C15.5521 13.138 15.6123 13.0773 15.6835 13.0347C15.7866 12.973 15.8982 12.9257 16.0009 12.8633C16.1717 12.7596 16.3417 12.6539 16.506 12.5403C16.7543 12.3685 17.0137 12.2226 17.3098 12.1515C17.3966 12.1306 17.4833 12.1079 17.5714 12.0945C17.6674 12.0798 17.7652 12.077 17.8618 12.0653C17.8984 12.0609 17.9331 12.0405 17.9695 12.0375C18.0246 12.0331 18.0804 12.0385 18.1357 12.0379C18.1478 12.0379 18.1638 12.0343 18.1712 12.0262C18.2111 11.9823 18.2606 12.0003 18.3076 12.0023C18.3266 12.0031 18.3459 12.0105 18.3644 12.0084C18.4588 11.9976 18.5533 11.986 18.6474 11.9719C18.6798 11.967 18.7111 11.9537 18.7489 11.9424C18.7616 11.9461 18.7844 11.9596 18.8057 11.9574C18.8732 11.9508 18.9411 11.9424 19.0071 11.9267C19.0439 11.9179 19.0705 11.895 19.076 11.8461C19.0829 11.784 19.1083 11.7241 19.1236 11.6626C19.1283 11.6437 19.1304 11.6223 19.1264 11.6036C19.1151 11.551 19.1015 11.4989 19.0852 11.4477C19.0818 11.4373 19.0635 11.4282 19.0503 11.425C18.9557 11.4016 18.8609 11.3797 18.7659 11.358C18.7511 11.3547 18.7354 11.3564 18.7204 11.3537C18.698 11.3497 18.6749 11.3465 18.6541 11.3382C18.6362 11.3308 18.6222 11.3144 18.6045 11.3061C18.5642 11.2873 18.5235 11.2694 18.4817 11.2541C18.2801 11.18 18.0857 11.0915 17.8586 11.1024C17.6887 11.1105 17.5383 11.1628 17.3885 11.2284C17.2154 11.3042 17.0746 11.427 16.93 11.546C16.8631 11.601 16.812 11.6962 16.7005 11.6807C16.6954 11.6801 16.6888 11.6924 16.6823 11.698C16.6634 11.7143 16.6456 11.7321 16.625 11.7458C16.5542 11.7927 16.4676 11.8084 16.3908 11.8319C16.2312 11.8805 16.0609 11.899 15.8936 11.9166C15.7774 11.9288 15.6586 11.9235 15.5415 11.9166C15.485 11.9133 15.4297 11.8881 15.3738 11.8728H15.3741Z" fill="#0621FD"/>
<path d="M18.7157 14.9036C18.7492 14.9239 18.8086 14.9196 18.868 14.8865C18.8764 14.8818 18.8869 14.8778 18.896 14.8785C18.9783 14.8847 19.0608 14.9 19.1427 14.8974C19.2895 14.8927 19.408 14.9449 19.516 15.0411C19.5587 15.0791 19.5817 15.1261 19.615 15.1672C19.692 15.2624 19.679 15.3754 19.6943 15.4813C19.7096 15.5872 19.7109 15.696 19.708 15.8033C19.7063 15.8637 19.6814 15.9232 19.671 15.9839C19.6376 16.1776 19.5941 16.3687 19.5394 16.5575C19.4933 16.7168 19.4282 16.8697 19.3335 17.0038C19.2697 17.0942 19.178 17.1661 19.0934 17.24C19.0249 17.2997 18.9488 17.3508 18.8749 17.4041C18.8494 17.4225 18.8215 17.4381 18.7931 17.4518C18.6621 17.5154 18.5338 17.5867 18.398 17.6383C18.284 17.6816 18.1623 17.7083 18.0417 17.7307C17.7326 17.7883 17.4227 17.8439 17.1118 17.8912C16.9735 17.9122 16.8318 17.9134 16.6915 17.9203C16.4801 17.9307 16.2685 17.936 16.0573 17.9477C15.8883 17.957 15.7194 17.9848 15.5512 17.9796C15.4782 17.9774 15.4126 17.9945 15.3433 17.9989C15.1234 18.013 14.9033 18.0265 14.6834 18.0406C14.4905 18.0529 14.2971 18.0597 14.105 18.0801C13.6472 18.1286 13.1883 18.1179 12.7294 18.1217C12.5433 18.1233 12.3573 18.1298 12.1712 18.1329C11.6406 18.1418 11.1099 18.1521 10.5792 18.1575C10.3871 18.1595 10.1947 18.1509 10.0025 18.145C9.75121 18.1373 9.49991 18.1281 9.24875 18.1185C9.04174 18.1105 8.83461 18.101 8.62761 18.0921C8.42274 18.0833 8.218 18.0734 8.01313 18.0657C7.85655 18.0599 7.6997 18.0583 7.54312 18.0517C7.2567 18.0398 6.97027 18.0283 6.68425 18.0113C6.46687 17.9983 6.24976 17.9782 6.03279 17.9584C5.9233 17.9484 5.80995 17.9469 5.70632 17.9155C5.57116 17.8747 5.43027 17.898 5.29631 17.8559C5.16101 17.8135 5.02146 17.7851 4.8847 17.7474C4.71216 17.6996 4.56489 17.6049 4.43638 17.4834C4.30068 17.3553 4.1618 17.2285 4.04247 17.0858C3.93085 16.9522 3.85183 16.7948 3.78305 16.6321C3.75538 16.5664 3.74035 16.4992 3.72358 16.433C3.70363 16.3541 3.70669 16.2696 3.69791 16.1878C3.68607 16.0774 3.6725 15.9671 3.65933 15.8568C3.64895 15.769 3.62554 15.6804 3.63126 15.5935C3.63685 15.508 3.66305 15.4206 3.69711 15.3413C3.71268 15.3051 3.76948 15.2873 3.80633 15.2595C3.8799 15.204 3.96438 15.1873 4.05417 15.1768C4.18574 15.1612 4.31558 15.131 4.44715 15.1145C4.51899 15.1056 4.59283 15.1125 4.66573 15.1117C4.82031 15.11 4.97503 15.1032 5.12949 15.1074C5.25001 15.1106 5.36988 15.1314 5.49041 15.1368C5.67319 15.1451 5.85638 15.1463 6.0393 15.1519C6.12671 15.1545 6.21398 15.1649 6.30125 15.1644C6.83564 15.1609 7.36991 15.1565 7.90417 15.1495C8.00395 15.1482 8.10332 15.1318 8.2031 15.1267C8.24367 15.1246 8.28558 15.1412 8.32562 15.1372C8.57772 15.1124 8.83049 15.1132 9.08338 15.1112C9.24648 15.1098 9.40945 15.1011 9.57255 15.0988C9.97498 15.0932 10.3775 15.0878 10.7801 15.086C10.9479 15.0852 11.1156 15.0944 11.2834 15.0977C11.5239 15.1027 11.7643 15.1074 12.0048 15.1102C12.1954 15.1124 12.3861 15.1137 12.5766 15.1114C13.2785 15.1032 13.9804 15.0945 14.6821 15.0832C14.8934 15.0798 15.1046 15.0679 15.3158 15.0584C15.4785 15.0509 15.6409 15.0405 15.8036 15.0321C16.0651 15.0186 16.3268 15.0063 16.5884 14.9912C16.626 14.989 16.6629 14.9732 16.7002 14.9643C16.707 14.9627 16.7143 14.9627 16.7213 14.9632C16.7798 14.9683 16.8383 14.9791 16.8967 14.9779C17.2549 14.9708 17.613 14.9622 17.971 14.9515C18.1092 14.9474 18.2476 14.94 18.385 14.9261C18.4315 14.9215 18.4713 14.907 18.5229 14.9211C18.5738 14.9349 18.6343 14.9127 18.7153 14.9035L18.7157 14.9036Z" fill="#0621FD"/>
</svg>
