<svg width="24" height="24" viewBox="0 0 24 24" fill="none" xmlns="http://www.w3.org/2000/svg">
<path d="M4 13.7525C4.00847 13.5182 4.17524 13.2361 4.39536 13.1462C4.47263 13.1146 4.5585 13.0974 4.64195 13.0892C4.83775 13.0701 5.03476 13.0646 5.23069 13.0459C5.46465 13.0236 5.69794 12.9941 5.93137 12.9662C6.14826 12.9404 6.36502 12.9134 6.58152 12.8848C6.61269 12.8806 6.64145 12.8608 6.67263 12.855C6.70475 12.8489 6.73875 12.8538 6.7714 12.8493C6.91035 12.8309 7.04931 12.8117 7.18799 12.7914C7.34173 12.7688 7.49506 12.7449 7.64866 12.7214C7.75885 12.7046 7.86905 12.6871 7.97938 12.6707C8.11148 12.6511 8.24371 12.6327 8.37568 12.613C8.48157 12.5971 8.58747 12.5807 8.69309 12.563C8.79039 12.5466 8.88701 12.5261 8.98457 12.5111C9.02166 12.5053 9.0609 12.5138 9.09826 12.5088C9.25898 12.4877 9.41944 12.4651 9.57962 12.4412C9.7179 12.4205 9.85578 12.3974 9.99393 12.3751C10.1082 12.3565 10.2225 12.3379 10.3366 12.3182C10.4031 12.3068 10.4694 12.2935 10.5358 12.281C10.7259 12.2453 10.9161 12.2094 11.1062 12.1735C11.1781 12.1599 11.2503 12.1474 11.322 12.1331C11.5432 12.0887 11.7646 12.0452 11.9851 11.9977C12.0534 11.9831 12.1185 11.955 12.1863 11.9377C12.2282 11.9269 12.2729 11.928 12.3153 11.9183C12.582 11.8573 12.8491 11.797 13.1149 11.7322C13.4839 11.6423 13.8537 11.5548 14.2202 11.4551C14.5456 11.3664 14.8663 11.2602 15.1902 11.1658C15.6129 11.0424 16.0372 10.924 16.4604 10.8015C16.873 10.6819 17.2849 10.5597 17.6972 10.4389C18.0615 10.3322 18.4241 10.2184 18.7912 10.122C19.0073 10.0653 19.2287 10.0228 19.4562 10.0345C19.5037 10.0369 19.5524 10.0144 19.6009 10.0047C19.6236 10.0001 19.647 9.99609 19.6701 9.99663C19.8683 10.0011 19.9885 10.1219 20.0678 10.2842C20.1745 10.5029 20.272 10.7262 20.3666 10.9504C20.4204 11.0779 20.4678 11.2093 20.5045 11.3426C20.5361 11.4574 20.5444 11.5782 20.5698 11.6948C20.6175 11.9138 20.6293 12.1349 20.6241 12.358C20.6217 12.4585 20.637 12.5622 20.6178 12.659C20.596 12.7686 20.5819 12.8867 20.4905 12.9723C20.4044 13.0531 20.3079 13.1084 20.1931 13.1415C20.0743 13.1758 19.9611 13.2288 19.8441 13.2701C19.7432 13.3057 19.6393 13.3331 19.5388 13.3699C19.4869 13.389 19.4388 13.4124 19.3825 13.4244C19.2666 13.4488 19.1543 13.4912 19.0411 13.5277C18.9049 13.5716 18.77 13.6196 18.6332 13.6611C18.5442 13.6882 18.4519 13.7043 18.3623 13.7297C18.2102 13.7727 18.0597 13.8209 17.9074 13.8633C17.8205 13.8875 17.7307 13.9014 17.6436 13.9252C17.4911 13.9669 17.3396 14.0124 17.1879 14.0566C17.0687 14.0914 16.9492 14.1252 16.8308 14.1624C16.6965 14.2046 16.5644 14.2542 16.4292 14.2932C16.231 14.3503 16.0305 14.3993 15.8317 14.4547C15.7477 14.4781 15.6665 14.5114 15.5827 14.5352C15.4931 14.5607 15.4015 14.5793 15.3114 14.6032C15.1576 14.644 15.0042 14.6861 14.8508 14.7286C14.681 14.7755 14.5119 14.8252 14.3415 14.8705C14.1136 14.9311 13.8846 14.9875 13.6566 15.0479C13.53 15.0815 13.4061 15.127 13.2781 15.154C12.964 15.2205 12.648 15.279 12.333 15.3419C12.2029 15.3678 12.0742 15.4001 11.9438 15.4239C11.848 15.4413 11.7501 15.4468 11.654 15.4628C11.531 15.4833 11.4093 15.5116 11.2862 15.5314C11.203 15.5447 11.1181 15.5467 11.0345 15.5581C10.8181 15.5877 10.6019 15.6185 10.3861 15.6511C10.2131 15.6773 10.0412 15.7102 9.86801 15.734C9.6745 15.7605 9.47951 15.7772 9.28586 15.8034C9.11909 15.8259 8.95366 15.8575 8.78703 15.8817C8.66971 15.8986 8.55118 15.9079 8.43373 15.924C8.34517 15.9361 8.25742 15.9548 8.16899 15.9685C8.05665 15.986 7.94377 16.0004 7.83129 16.0178C7.71048 16.0365 7.5898 16.0571 7.46912 16.077C7.31834 16.1018 7.16743 16.1266 7.01679 16.1521C6.90928 16.1702 6.80218 16.1909 6.6944 16.2081C6.57775 16.2267 6.46057 16.2425 6.34366 16.2595C6.19637 16.2808 6.04909 16.3027 5.90167 16.3232C5.84711 16.3307 5.79215 16.3347 5.73732 16.3401C5.55549 16.358 5.37354 16.3752 5.19185 16.3936C4.98181 16.4149 4.79287 16.3835 4.62932 16.2284C4.50703 16.1124 4.46309 15.9699 4.43003 15.8167C4.39603 15.6594 4.36176 15.5022 4.32897 15.3447C4.29887 15.1997 4.27119 15.0543 4.24176 14.9092C4.19029 14.6555 4.13882 14.4017 4.08627 14.1483C4.05886 14.0162 4.02903 13.8845 4.00013 13.7527L4 13.7525ZM9.0093 13.2425C9.03832 13.4194 9.0648 13.587 9.09382 13.754C9.12366 13.926 9.15806 14.0972 9.18682 14.2692C9.22902 14.5215 9.26678 14.7744 9.31072 15.0262C9.31421 15.0458 9.35359 15.0749 9.37415 15.0733C9.46768 15.066 9.56054 15.0504 9.6534 15.0359C9.7894 15.0147 9.92486 14.9905 10.061 14.9699C10.165 14.9542 10.2697 14.9426 10.374 14.9284C10.4651 14.916 10.5563 14.9043 10.647 14.8893C10.74 14.874 10.8318 14.8506 10.9252 14.8389C11.0161 14.8275 11.1089 14.8312 11.1998 14.8194C11.3161 14.8042 11.4316 14.7803 11.5473 14.7599C11.7482 14.7244 11.9495 14.6905 12.1499 14.6524C12.3878 14.6071 12.6275 14.5673 12.8622 14.5086C13.4558 14.3601 14.0495 14.2105 14.6389 14.0463C15.5186 13.8013 16.3953 13.5457 17.2722 13.2904C18.0422 13.0662 18.8105 12.8366 19.5794 12.6088C19.6201 12.5967 19.6592 12.5798 19.697 12.5658C19.4398 11.9816 19.3188 11.3747 19.2546 10.7344C18.9065 10.8278 18.5589 10.9147 18.215 11.0147C17.7854 11.1397 17.3599 11.2788 16.9307 11.4054C16.5332 11.5226 16.1325 11.6289 15.7343 11.7442C15.2904 11.8728 14.849 12.0094 14.4047 12.1363C14.0916 12.2257 13.7767 12.3098 13.4602 12.3864C13.0418 12.4877 12.6214 12.581 12.2011 12.6744C11.9503 12.7301 11.6985 12.7812 11.4466 12.8313C11.2071 12.879 10.9671 12.9236 10.7271 12.9681C10.5532 13.0002 10.3792 13.0309 10.2048 13.0599C10.0301 13.0889 9.85511 13.1157 9.68001 13.1426C9.53299 13.1651 9.38571 13.1864 9.23856 13.2081C9.16129 13.2196 9.08402 13.2311 9.0093 13.2423V13.2425Z" fill="#0721FD"/>
<path d="M20.8236 7.91176C20.831 7.94616 20.8382 7.98029 20.8456 8.01443C20.8701 8.12852 20.9034 8.24167 20.9171 8.3571C20.9483 8.61794 20.8835 8.86521 20.7908 9.10656C20.7573 9.19378 20.7322 9.2857 20.687 9.36633C20.6579 9.41847 20.6034 9.46013 20.5529 9.49574C20.4391 9.5761 20.3141 9.57153 20.1989 9.50474C20.0824 9.43715 20.007 9.33085 20.0212 9.19002C20.0299 9.10173 20.0569 9.01303 20.0894 8.92971C20.157 8.75636 20.2313 8.58314 20.2034 8.39352C20.1913 8.31115 20.1555 8.22299 20.1046 8.15754C20.0334 8.06616 19.942 7.98889 19.852 7.91431C19.6775 7.76971 19.4991 7.62928 19.369 7.44087C19.267 7.29305 19.2002 7.1326 19.1818 6.94863C19.1689 6.81962 19.1989 6.70176 19.2271 6.58203C19.262 6.4338 19.3134 6.29122 19.3983 6.16181C19.4687 6.05443 19.5602 6.00364 19.6911 6.00014C19.7617 5.99826 19.8199 6.01479 19.8659 6.05564C19.9178 6.10174 19.9687 6.15818 19.9954 6.22053C20.0162 6.26958 20.0089 6.33678 19.9975 6.39241C19.9694 6.52908 19.9213 6.66225 19.9005 6.79986C19.8766 6.95709 19.9765 7.06218 20.0822 7.16445C20.2782 7.3542 20.5152 7.50014 20.6799 7.72281C20.7131 7.7677 20.739 7.81822 20.7716 7.86365C20.7862 7.88407 20.8091 7.89859 20.8237 7.91176H20.8236Z" fill="#0721FD"/>
</svg>
